M48
; DRILL file KiCad 10.0.6 date 2026-10-10T12:28:02
; FORMAT={-:-/ absolute / metric / decimal}
; #@! TF.CreationDate,2026-10-10T12:28:02+05:30
; #@! TF.GenerationSoftware,Kicad,Pcbnew,10.0.6
; #@! TF.FileFunction,NonPlated,1,4,NPTH
FMAT,2
METRIC
; #@! TA.AperFunction,NonPlated,NPTH,ComponentDrill
T1C1.700
; #@! TA.AperFunction,NonPlated,NPTH,ComponentDrill
T2C4.000
%
G90
G05
T1
X1813.033Y-538.05
X1813.033Y-557.1
X1815.414Y-633.3
X1817.795Y-576.15
X1820.176Y-595.2
X1823.192Y-538.05
X1823.192Y-557.1
X1824.939Y-614.25
X1825.574Y-633.3
X1827.955Y-576.15
X1830.336Y-595.2
X1832.082Y-538.05
X1832.082Y-557.1
X1835.099Y-614.25
X1839.226Y-633.3
X1841.607Y-576.15
X1842.242Y-538.05
X1842.242Y-557.1
X1846.37Y-595.2
X1849.386Y-633.3
X1851.132Y-538.05
X1851.132Y-557.1
X1851.767Y-576.15
X1855.895Y-614.25
X1856.53Y-595.2
X1860.658Y-576.15
X1861.293Y-538.05
X1861.293Y-557.1
X1863.039Y-633.3
X1865.42Y-595.2
X1866.055Y-614.25
X1870.182Y-538.05
X1870.182Y-557.1
X1870.817Y-576.15
X1873.199Y-633.3
X1874.945Y-614.25
X1875.58Y-595.2
X1879.707Y-576.15
X1880.342Y-538.05
X1880.342Y-557.1
X1884.47Y-595.2
X1885.105Y-614.25
X1889.232Y-538.05
X1889.232Y-557.1
X1889.867Y-576.15
X1893.995Y-614.25
X1894.63Y-595.2
X1898.757Y-576.15
X1899.392Y-538.05
X1899.392Y-557.1
X1903.52Y-595.2
X1904.155Y-614.25
X1908.283Y-538.05
X1908.283Y-557.1
X1908.918Y-576.15
X1913.045Y-614.25
X1913.68Y-595.2
X1917.807Y-576.15
X1918.442Y-538.05
X1918.442Y-557.1
X1922.57Y-595.2
X1923.205Y-614.25
X1927.332Y-538.05
X1927.332Y-557.1
X1927.967Y-576.15
X1932.095Y-614.25
X1932.73Y-595.2
X1934.476Y-633.3
X1936.857Y-576.15
X1937.492Y-538.05
X1937.492Y-557.1
X1941.62Y-595.2
X1942.255Y-614.25
X1944.636Y-633.3
X1946.382Y-538.05
X1946.382Y-557.1
X1947.017Y-576.15
X1951.145Y-614.25
X1951.78Y-595.2
X1955.907Y-576.15
X1956.543Y-538.05
X1956.543Y-557.1
X1960.67Y-595.2
X1961.305Y-614.25
X1965.432Y-538.05
X1965.432Y-557.1
X1966.067Y-576.15
X1970.195Y-614.25
X1970.83Y-595.2
X1974.957Y-576.15
X1975.592Y-538.05
X1975.592Y-557.1
X1979.72Y-595.2
X1980.355Y-614.25
X1984.482Y-538.05
X1984.482Y-557.1
X1985.117Y-576.15
X1989.245Y-614.25
X1989.88Y-595.2
X1994.007Y-576.15
X1994.642Y-538.05
X1994.642Y-557.1
X1998.77Y-595.2
X1999.405Y-614.25
X2003.532Y-538.05
X2003.532Y-557.1
X2003.532Y-633.3
X2004.168Y-576.15
X2008.295Y-614.25
X2008.93Y-595.2
X2013.057Y-576.15
X2013.692Y-538.05
X2013.692Y-557.1
X2013.692Y-633.3
X2017.82Y-595.2
X2018.455Y-614.25
X2022.582Y-538.05
X2022.582Y-557.1
X2022.582Y-633.3
X2023.217Y-576.15
X2027.345Y-614.25
X2027.98Y-595.2
X2032.107Y-576.15
X2032.742Y-538.05
X2032.742Y-557.1
X2032.742Y-633.3
X2036.87Y-595.2
X2037.505Y-614.25
X2041.632Y-538.05
X2041.632Y-557.1
X2041.632Y-633.3
X2042.267Y-576.15
X2047.03Y-595.2
X2051.157Y-576.15
X2051.793Y-538.05
X2051.793Y-557.1
X2051.793Y-633.3
X2053.539Y-614.25
X2060.682Y-538.05
X2060.682Y-633.3
X2061.318Y-576.15
X2063.699Y-614.25
X2067.826Y-595.2
X2070.207Y-557.1
X2070.842Y-538.05
X2070.842Y-633.3
X2074.97Y-576.15
X2077.986Y-595.2
X2079.733Y-538.05
X2079.733Y-614.25
X2079.733Y-633.3
X2080.367Y-557.1
X2085.13Y-576.15
X2089.892Y-538.05
X2089.892Y-614.25
X2089.892Y-633.3
X2098.782Y-538.05
X2098.782Y-557.1
X2098.782Y-576.15
X2098.782Y-595.2
X2098.782Y-614.25
X2098.782Y-633.3
X2108.943Y-538.05
X2108.943Y-557.1
X2108.943Y-576.15
X2108.943Y-595.2
X2108.943Y-614.25
X2108.943Y-633.3
T2
X1818.112Y-538.05
X1818.112Y-557.1
X1820.494Y-633.3
X1822.875Y-576.15
X1825.256Y-595.2
X1830.019Y-614.25
X1837.162Y-538.05
X1837.162Y-557.1
X1844.306Y-633.3
X1846.688Y-576.15
X1851.45Y-595.2
X1856.212Y-538.05
X1856.212Y-557.1
X1860.975Y-614.25
X1865.737Y-576.15
X1868.119Y-633.3
X1870.5Y-595.2
X1875.262Y-538.05
X1875.262Y-557.1
X1880.025Y-614.25
X1884.787Y-576.15
X1889.55Y-595.2
X1894.312Y-538.05
X1894.312Y-557.1
X1899.075Y-614.25
X1903.837Y-576.15
X1908.6Y-595.2
X1913.362Y-538.05
X1913.362Y-557.1
X1918.125Y-614.25
X1922.887Y-576.15
X1927.65Y-595.2
X1932.412Y-538.05
X1932.412Y-557.1
X1937.175Y-614.25
X1939.556Y-633.3
X1941.938Y-576.15
X1946.7Y-595.2
X1951.462Y-538.05
X1951.462Y-557.1
X1956.225Y-614.25
X1960.987Y-576.15
X1965.75Y-595.2
X1970.512Y-538.05
X1970.512Y-557.1
X1975.275Y-614.25
X1980.037Y-576.15
X1984.8Y-595.2
X1989.562Y-538.05
X1989.562Y-557.1
X1994.325Y-614.25
X1999.087Y-576.15
X2003.85Y-595.2
X2008.612Y-538.05
X2008.612Y-557.1
X2008.612Y-633.3
X2013.375Y-614.25
X2018.137Y-576.15
X2022.9Y-595.2
X2027.662Y-538.05
X2027.662Y-557.1
X2027.662Y-633.3
X2032.425Y-614.25
X2037.188Y-576.15
X2041.95Y-595.2
X2046.712Y-538.05
X2046.712Y-557.1
X2046.712Y-633.3
X2056.237Y-576.15
X2058.619Y-614.25
X2065.762Y-538.05
X2065.762Y-633.3
X2072.906Y-595.2
X2075.287Y-557.1
X2080.05Y-576.15
X2084.812Y-538.05
X2084.812Y-614.25
X2084.812Y-633.3
X2103.862Y-538.05
X2103.862Y-557.1
X2103.862Y-576.15
X2103.862Y-595.2
X2103.862Y-614.25
X2103.862Y-633.3
M30
