M48
; DRILL file KiCad 10.0.6 date 2026-10-10T12:28:02
; FORMAT={-:-/ absolute / metric / decimal}
; #@! TF.CreationDate,2026-10-10T12:28:02+05:30
; #@! TF.GenerationSoftware,Kicad,Pcbnew,10.0.6
; #@! TF.FileFunction,Plated,1,4,PTH
FMAT,2
METRIC
; #@! TA.AperFunction,Plated,PTH,ViaDrill
T1C0.300
; #@! TA.AperFunction,Plated,PTH,ComponentDrill
T2C0.600
; #@! TA.AperFunction,Plated,PTH,ComponentDrill
T3C0.600
; #@! TA.AperFunction,Plated,PTH,ComponentDrill
T4C0.800
; #@! TA.AperFunction,Plated,PTH,ComponentDrill
T5C1.500
%
G90
G05
T1
X1807.05Y-536.25
X1807.1Y-535.0
X1807.15Y-533.5
X1823.1Y-532.6
X1825.7Y-534.45
X1827.45Y-553.25
X1827.571Y-555.685
X1827.65Y-536.6
X1829.05Y-629.75
X1829.4Y-534.71
X1829.55Y-552.35
X1830.098Y-631.971
X1830.4Y-567.6
X1831.5Y-629.05
X1832.35Y-572.5
X1832.35Y-574.75
X1834.25Y-574.7
X1834.6Y-591.25
X1834.659Y-593.765
X1836.05Y-590.8
X1836.8Y-593.8
X1837.15Y-577.9
X1837.3Y-541.9
X1837.681Y-612.469
X1839.5Y-612.85
X1839.65Y-597.45
X1839.7Y-609.5
X1840.9Y-608.9
X1845.4Y-534.4
X1846.1Y-553.15
X1846.684Y-536.593
X1846.759Y-555.744
X1847.35Y-537.35
X1847.55Y-556.45
X1847.95Y-552.55
X1849.05Y-531.42
X1851.906Y-631.41
X1853.558Y-631.888
X1853.723Y-633.227
X1854.65Y-629.25
X1855.8Y-579.15
X1856.0Y-574.4
X1856.2Y-572.5
X1857.05Y-575.7
X1857.25Y-587.8
X1858.45Y-572.9
X1860.7Y-597.75
X1860.8Y-591.2
X1860.916Y-593.695
X1861.85Y-594.9
X1862.15Y-591.8
X1864.6Y-534.15
X1865.3Y-553.2
X1865.685Y-555.685
X1865.807Y-536.593
X1866.3Y-537.6
X1866.65Y-556.6
X1866.85Y-553.76
X1866.9Y-602.532
X1867.35Y-531.42
X1870.1Y-610.1
X1870.15Y-616.47
X1870.427Y-612.816
X1871.25Y-610.9
X1871.45Y-613.9
X1875.05Y-579.2
X1875.1Y-572.25
X1875.317Y-574.761
X1875.7Y-597.75
X1875.881Y-631.419
X1876.15Y-575.8
X1876.95Y-616.52
X1877.15Y-572.91
X1877.45Y-635.1
X1877.55Y-631.876
X1878.05Y-629.35
X1878.5Y-633.1
X1879.55Y-591.35
X1880.081Y-593.8
X1880.95Y-594.75
X1881.05Y-590.66
X1881.1Y-559.95
X1882.6Y-621.85
X1882.8Y-619.15
X1884.1Y-553.45
X1884.2Y-534.3
X1884.728Y-555.714
X1884.76Y-536.634
X1885.6Y-542.25
X1885.8Y-553.76
X1885.9Y-537.3
X1885.9Y-556.45
X1886.1Y-616.47
X1886.9Y-542.002
X1887.7Y-531.42
X1888.15Y-602.65
X1888.2Y-580.7
X1889.4Y-610.35
X1889.471Y-612.799
X1890.25Y-613.7
X1890.75Y-610.91
X1891.4Y-578.6
X1891.75Y-597.6
X1893.95Y-631.876
X1894.371Y-574.822
X1894.65Y-616.52
X1895.25Y-575.7
X1895.45Y-597.75
X1896.35Y-572.6
X1896.95Y-636.5
X1897.056Y-635.808
X1897.5Y-642.3
X1897.8Y-572.8
X1897.95Y-629.75
X1897.95Y-643.75
X1898.35Y-587.9
X1898.6Y-635.3
X1898.65Y-585.1
X1898.7Y-591.4
X1899.05Y-621.2
X1899.071Y-593.8
X1899.5Y-628.0
X1899.55Y-540.27
X1899.85Y-594.5
X1900.2Y-578.65
X1900.55Y-559.95
X1900.7Y-590.55
X1900.7Y-622.169
X1900.75Y-606.45
X1901.35Y-616.52
X1901.485Y-619.324
X1901.6Y-632.7
X1901.7Y-628.1
X1902.05Y-597.8
X1902.126Y-632.238
X1902.502Y-631.647
X1903.184Y-631.491
X1903.3Y-626.4
X1903.4Y-553.7
X1903.65Y-534.45
X1903.8Y-555.35
X1903.849Y-536.654
X1904.002Y-637.713
X1904.435Y-628.685
X1904.55Y-537.35
X1904.7Y-639.95
X1904.8Y-556.25
X1905.0Y-552.56
X1905.3Y-628.45
X1905.6Y-616.47
X1905.8Y-531.42
X1905.9Y-580.7
X1905.995Y-628.537
X1907.65Y-540.27
X1907.7Y-640.5
X1907.95Y-610.55
X1908.15Y-578.35
X1908.531Y-612.765
X1908.7Y-628.5
X1909.665Y-613.85
X1909.8Y-633.0
X1909.95Y-610.91
X1910.15Y-602.7
X1910.612Y-631.41
X1911.95Y-622.169
X1912.35Y-616.5
X1912.45Y-579.8
X1912.75Y-628.45
X1913.364Y-574.781
X1913.85Y-627.85
X1914.2Y-575.65
X1914.25Y-597.75
X1914.45Y-585.9
X1914.7Y-581.3
X1915.1Y-640.35
X1915.4Y-629.8
X1915.4Y-643.8
X1915.55Y-573.07
X1916.1Y-636.7
X1917.4Y-572.45
X1917.8Y-591.4
X1918.132Y-593.87
X1919.1Y-594.7
X1919.25Y-540.27
X1919.4Y-559.95
X1919.65Y-589.52
X1921.1Y-619.15
X1922.3Y-534.45
X1922.45Y-553.45
X1922.85Y-536.3
X1922.931Y-555.773
X1923.8Y-556.35
X1923.85Y-537.45
X1924.2Y-552.56
X1924.55Y-616.47
X1925.2Y-531.42
X1927.4Y-610.45
X1927.711Y-612.884
X1928.1Y-613.75
X1928.6Y-610.91
X1929.5Y-602.532
X1932.25Y-572.5
X1932.419Y-574.761
X1933.3Y-575.6
X1933.55Y-597.75
X1933.75Y-572.81
X1936.4Y-591.6
X1937.191Y-593.87
X1937.95Y-594.5
X1938.25Y-559.95
X1938.65Y-540.27
X1938.75Y-591.86
X1940.9Y-619.4
X1941.35Y-534.25
X1941.947Y-536.507
X1941.972Y-555.685
X1942.05Y-553.4
X1942.7Y-537.6
X1942.95Y-556.7
X1943.1Y-616.47
X1943.15Y-553.76
X1944.4Y-531.42
X1946.35Y-610.3
X1946.703Y-612.867
X1946.75Y-585.3
X1947.25Y-602.65
X1947.35Y-613.65
X1947.8Y-610.9
X1949.05Y-631.6
X1949.4Y-632.95
X1949.8Y-628.8
X1950.15Y-628.1
X1951.373Y-574.77
X1951.55Y-572.35
X1952.15Y-597.75
X1952.3Y-575.75
X1952.5Y-572.81
X1953.1Y-625.35
X1955.6Y-591.6
X1956.086Y-593.74
X1956.9Y-594.6
X1957.1Y-590.66
X1957.2Y-559.95
X1958.85Y-560.55
X1960.8Y-553.35
X1960.85Y-536.35
X1960.9Y-533.85
X1960.985Y-555.714
X1961.55Y-556.75
X1961.75Y-537.25
X1962.1Y-553.76
X1963.05Y-531.42
X1963.4Y-562.7
X1964.25Y-602.532
X1964.8Y-628.85
X1964.885Y-640.915
X1965.415Y-640.385
X1965.5Y-646.3
X1965.714Y-612.884
X1965.824Y-616.326
X1965.9Y-585.05
X1966.0Y-641.9
X1966.05Y-610.5
X1966.7Y-613.7
X1967.05Y-610.91
X1967.6Y-647.4
X1967.625Y-640.825
X1967.625Y-641.575
X1968.7Y-619.25
X1970.15Y-644.55
X1970.407Y-574.75
X1970.45Y-572.45
X1971.35Y-575.6
X1971.35Y-597.75
X1971.6Y-571.15
X1972.25Y-641.95
X1972.45Y-646.3
X1973.65Y-628.15
X1975.25Y-591.4
X1975.311Y-593.8
X1976.05Y-559.95
X1976.1Y-594.8
X1976.65Y-590.65
X1979.75Y-534.25
X1979.75Y-536.3
X1980.0Y-543.5
X1980.05Y-553.3
X1980.115Y-555.656
X1980.9Y-556.45
X1981.0Y-537.2
X1981.15Y-553.76
X1981.55Y-531.42
X1983.1Y-585.05
X1984.4Y-610.3
X1984.825Y-612.867
X1984.95Y-616.47
X1985.35Y-602.75
X1985.65Y-610.9
X1985.73Y-612.72
X1987.3Y-617.95
X1989.0Y-572.45
X1989.48Y-574.73
X1990.0Y-597.75
X1990.2Y-575.55
X1990.65Y-572.81
X1993.75Y-591.55
X1994.3Y-593.8
X1995.35Y-594.55
X1995.55Y-591.86
X1998.6Y-553.35
X1998.65Y-534.05
X1998.9Y-536.25
X1999.128Y-555.685
X1999.7Y-556.5
X2000.15Y-553.8
X2000.25Y-537.55
X2001.2Y-531.42
X2002.15Y-585.3
X2003.85Y-616.47
X2003.852Y-612.901
X2004.05Y-610.15
X2004.75Y-613.85
X2004.95Y-610.9
X2005.05Y-602.532
X2008.45Y-619.15
X2008.636Y-574.75
X2008.95Y-572.65
X2009.25Y-575.55
X2009.6Y-597.75
X2010.2Y-571.61
X2012.85Y-591.7
X2013.275Y-593.881
X2014.3Y-594.7
X2014.7Y-590.66
X2016.223Y-631.41
X2017.75Y-534.35
X2017.75Y-553.5
X2018.1Y-536.35
X2018.102Y-631.994
X2018.113Y-555.656
X2018.55Y-629.65
X2019.05Y-537.5
X2019.05Y-556.3
X2019.05Y-632.75
X2019.25Y-553.76
X2020.3Y-531.42
X2021.5Y-585.05
X2022.85Y-616.47
X2022.896Y-612.935
X2023.2Y-610.35
X2023.5Y-613.9
X2024.05Y-611.01
X2025.6Y-602.65
X2026.8Y-619.75
X2027.45Y-572.3
X2027.69Y-574.709
X2028.2Y-575.5
X2028.75Y-597.75
X2028.8Y-572.81
X2032.3Y-591.8
X2032.44Y-593.881
X2033.3Y-594.65
X2033.7Y-635.05
X2034.1Y-589.35
X2035.488Y-631.41
X2035.8Y-545.8
X2036.6Y-553.25
X2036.65Y-534.0
X2036.85Y-632.8
X2037.0Y-544.85
X2037.027Y-536.373
X2037.145Y-631.935
X2037.244Y-555.685
X2037.8Y-544.05
X2037.8Y-629.65
X2037.9Y-537.75
X2038.0Y-556.4
X2038.55Y-550.47
X2039.05Y-531.42
X2040.95Y-602.75
X2041.137Y-541.585
X2041.3Y-585.05
X2041.65Y-610.3
X2041.85Y-616.25
X2041.957Y-612.85
X2042.8Y-529.85
X2043.0Y-613.6
X2043.15Y-610.9
X2044.15Y-529.2
X2045.55Y-530.5
X2046.1Y-597.75
X2046.65Y-572.25
X2046.723Y-574.709
X2047.35Y-575.5
X2048.0Y-571.61
X2051.35Y-619.15
X2051.45Y-591.45
X2051.465Y-593.846
X2051.55Y-598.35
X2052.25Y-594.75
X2052.85Y-590.66
X2052.95Y-635.3
X2054.45Y-555.3
X2055.552Y-632.702
X2055.75Y-534.15
X2056.192Y-536.463
X2056.272Y-631.912
X2056.285Y-555.714
X2057.0Y-556.6
X2057.15Y-537.35
X2057.25Y-629.6
X2057.5Y-550.47
X2058.05Y-531.42
X2058.6Y-555.26
X2060.1Y-585.0
X2061.85Y-628.81
X2064.8Y-530.4
X2065.35Y-572.3
X2065.757Y-574.73
X2066.1Y-575.75
X2066.8Y-571.61
X2068.05Y-578.85
X2068.126Y-612.935
X2068.25Y-616.47
X2068.4Y-610.25
X2069.0Y-613.8
X2069.1Y-610.85
X2071.55Y-635.57
X2072.6Y-619.15
X2073.7Y-633.7
X2074.35Y-629.63
X2074.95Y-534.25
X2075.28Y-632.029
X2075.363Y-536.641
X2075.4Y-632.95
X2075.95Y-628.95
X2076.25Y-537.45
X2077.6Y-531.42
X2082.2Y-597.25
X2082.25Y-591.55
X2082.352Y-593.846
X2083.15Y-594.55
X2083.65Y-591.86
X2084.6Y-553.55
X2084.865Y-555.685
X2085.65Y-556.3
X2086.866Y-550.436
X2089.2Y-572.5
X2089.584Y-574.75
X2090.4Y-575.5
X2090.45Y-571.61
X2091.6Y-635.3
X2092.692Y-578.142
X2093.7Y-534.25
X2093.95Y-629.5
X2094.15Y-616.2
X2094.3Y-536.4
X2094.3Y-631.9
X2094.314Y-612.833
X2094.45Y-620.9
X2094.55Y-610.45
X2094.75Y-632.5
X2094.85Y-613.7
X2095.15Y-537.4
X2095.3Y-610.91
X2095.55Y-629.15
X2096.35Y-531.42
X2098.95Y-622.169
X2101.85Y-625.5
X2108.3Y-618.0
X2110.35Y-629.65
X2110.55Y-635.0
X2113.4Y-593.85
X2113.408Y-612.85
X2113.413Y-555.656
X2113.42Y-631.894
X2113.439Y-536.661
X2113.452Y-574.689
X2113.9Y-537.35
X2113.95Y-572.15
X2113.95Y-617.3
X2114.05Y-575.45
X2114.05Y-590.8
X2114.15Y-609.45
X2114.25Y-556.95
X2114.25Y-613.65
X2114.3Y-594.75
X2114.35Y-534.1
X2114.5Y-629.1
X2114.95Y-579.0
X2115.5Y-598.0
T3
X1966.2Y-644.15
X1971.98Y-644.15
T4
X1893.5Y-635.0
X1893.5Y-637.0
T5
X1814.303Y-535.51
X1814.303Y-554.56
X1816.684Y-630.76
X1819.065Y-573.61
X1820.652Y-532.97
X1820.652Y-552.02
X1821.446Y-592.66
X1823.034Y-628.22
X1825.415Y-571.07
X1826.209Y-611.71
X1827.796Y-590.12
X1832.559Y-609.17
X1833.352Y-535.51
X1833.352Y-554.56
X1839.702Y-532.97
X1839.702Y-552.02
X1840.496Y-630.76
X1842.877Y-573.61
X1846.846Y-628.22
X1847.64Y-592.66
X1849.227Y-571.07
X1852.402Y-535.51
X1852.402Y-554.56
X1853.99Y-590.12
X1857.165Y-611.71
X1858.752Y-532.97
X1858.752Y-552.02
X1861.928Y-573.61
X1863.515Y-609.17
X1864.309Y-630.76
X1866.69Y-592.66
X1868.277Y-571.07
X1870.659Y-628.22
X1871.452Y-535.51
X1871.452Y-554.56
X1873.04Y-590.12
X1876.215Y-611.71
X1877.803Y-532.97
X1877.803Y-552.02
X1880.977Y-573.61
X1882.565Y-609.17
X1885.74Y-592.66
X1887.327Y-571.07
X1890.502Y-535.51
X1890.502Y-554.56
X1892.09Y-590.12
X1895.265Y-611.71
X1896.852Y-532.97
X1896.852Y-552.02
X1900.027Y-573.61
X1901.615Y-609.17
X1904.79Y-592.66
X1906.377Y-571.07
X1909.553Y-535.51
X1909.553Y-554.56
X1911.14Y-590.12
X1914.315Y-611.71
X1915.902Y-532.97
X1915.902Y-552.02
X1919.077Y-573.61
X1920.665Y-609.17
X1923.84Y-592.66
X1925.428Y-571.07
X1928.602Y-535.51
X1928.602Y-554.56
X1930.19Y-590.12
X1933.365Y-611.71
X1934.952Y-532.97
X1934.952Y-552.02
X1935.746Y-630.76
X1938.127Y-573.61
X1939.715Y-609.17
X1942.096Y-628.22
X1942.89Y-592.66
X1944.477Y-571.07
X1947.652Y-535.51
X1947.652Y-554.56
X1949.24Y-590.12
X1952.415Y-611.71
X1954.002Y-532.97
X1954.002Y-552.02
X1957.178Y-573.61
X1958.765Y-609.17
X1961.94Y-592.66
X1963.527Y-571.07
X1966.702Y-535.51
X1966.702Y-554.56
X1968.29Y-590.12
X1971.465Y-611.71
X1973.053Y-532.97
X1973.053Y-552.02
X1976.227Y-573.61
X1977.815Y-609.17
X1980.99Y-592.66
X1982.577Y-571.07
X1985.752Y-535.51
X1985.752Y-554.56
X1987.34Y-590.12
X1990.515Y-611.71
X1992.102Y-532.97
X1992.102Y-552.02
X1995.277Y-573.61
X1996.865Y-609.17
X2000.04Y-592.66
X2001.627Y-571.07
X2004.803Y-535.51
X2004.803Y-554.56
X2004.803Y-630.76
X2006.39Y-590.12
X2009.565Y-611.71
X2011.152Y-532.97
X2011.152Y-552.02
X2011.152Y-628.22
X2014.327Y-573.61
X2015.915Y-609.17
X2019.09Y-592.66
X2020.678Y-571.07
X2023.852Y-535.51
X2023.852Y-554.56
X2023.852Y-630.76
X2025.44Y-590.12
X2028.615Y-611.71
X2030.202Y-532.97
X2030.202Y-552.02
X2030.202Y-628.22
X2033.377Y-573.61
X2034.965Y-609.17
X2038.14Y-592.66
X2039.727Y-571.07
X2042.902Y-535.51
X2042.902Y-554.56
X2042.902Y-630.76
X2044.49Y-590.12
X2049.253Y-532.97
X2049.253Y-552.02
X2049.253Y-628.22
X2052.427Y-573.61
X2054.809Y-611.71
X2058.777Y-571.07
X2061.159Y-609.17
X2061.952Y-535.51
X2061.952Y-630.76
X2068.302Y-532.97
X2068.302Y-628.22
X2069.096Y-592.66
X2071.477Y-554.56
X2075.446Y-590.12
X2076.24Y-573.61
X2077.827Y-552.02
X2081.003Y-535.51
X2081.003Y-611.71
X2081.003Y-630.76
X2082.59Y-571.07
X2087.352Y-532.97
X2087.352Y-609.17
X2087.352Y-628.22
X2100.052Y-535.51
X2100.052Y-554.56
X2100.052Y-573.61
X2100.052Y-592.66
X2100.052Y-611.71
X2100.052Y-630.76
X2106.402Y-532.97
X2106.402Y-552.02
X2106.402Y-571.07
X2106.402Y-590.12
X2106.402Y-609.17
X2106.402Y-628.22
T2
G00X1964.77Y-644.2
M15
G01X1964.77Y-643.1
M16
G05
G00X1964.77Y-648.23
M15
G01X1964.77Y-647.43
M16
G05
G00X1973.41Y-644.2
M15
G01X1973.41Y-643.1
M16
G05
G00X1973.41Y-648.23
M15
G01X1973.41Y-647.43
M16
G05
M30
