%TF.GenerationSoftware,KiCad,Pcbnew,10.0.6*%
%TF.CreationDate,2026-10-10T12:28:00+05:30*%
%TF.ProjectId,tex,7465782e-6b69-4636-9164-5f7063625858,rev?*%
%TF.SameCoordinates,Original*%
%TF.FileFunction,Copper,L2,Inr*%
%TF.FilePolarity,Positive*%
%FSLAX46Y46*%
G04 Gerber Fmt 4.6, Leading zero omitted, Abs format (unit mm)*
G04 Created by KiCad (PCBNEW 10.0.6) date 2026-10-10 12:28:00*
%MOMM*%
%LPD*%
G01*
G04 APERTURE LIST*
%TA.AperFunction,ComponentPad*%
%ADD10R,1.350000X1.350000*%
%TD*%
%TA.AperFunction,ComponentPad*%
%ADD11C,1.350000*%
%TD*%
%TA.AperFunction,ComponentPad*%
%ADD12O,1.000000X2.000000*%
%TD*%
%TA.AperFunction,ComponentPad*%
%ADD13O,1.000000X1.800000*%
%TD*%
%TA.AperFunction,ComponentPad*%
%ADD14C,0.600000*%
%TD*%
%TA.AperFunction,ComponentPad*%
%ADD15C,2.200000*%
%TD*%
%TA.AperFunction,ViaPad*%
%ADD16C,0.500000*%
%TD*%
%TA.AperFunction,ViaPad*%
%ADD17C,0.600000*%
%TD*%
%TA.AperFunction,ViaPad*%
%ADD18C,0.300000*%
%TD*%
%TA.AperFunction,Conductor*%
%ADD19C,0.200000*%
%TD*%
%TA.AperFunction,Conductor*%
%ADD20C,0.400000*%
%TD*%
%TA.AperFunction,Conductor*%
%ADD21C,0.500000*%
%TD*%
G04 APERTURE END LIST*
D10*
%TO.N,Net-(J1-Pin_1)*%
%TO.C,J1*%
X1893500000Y-637000000D03*
D11*
%TO.N,Net-(J1-Pin_2)*%
X1893500000Y-635000000D03*
%TD*%
D12*
%TO.N,unconnected-(USB1-Pad1)*%
%TO.C,USB1*%
X1964770000Y-643650000D03*
D13*
X1964770000Y-647830000D03*
D12*
X1973410000Y-643650000D03*
D13*
X1973410000Y-647830000D03*
D14*
%TO.N,*%
X1966200000Y-644150000D03*
X1971980000Y-644150000D03*
%TD*%
D15*
%TO.N,Net-(D61-K)*%
%TO.C,SW73*%
X2087352500Y-609170000D03*
%TO.N,/R7*%
X2081002500Y-611710000D03*
%TD*%
%TO.N,Net-(D41-K)*%
%TO.C,SW53*%
X1949240000Y-590120000D03*
%TO.N,/R5*%
X1942890000Y-592660000D03*
%TD*%
%TO.N,Net-(D32-K)*%
%TO.C,SW44*%
X2058777500Y-571070000D03*
%TO.N,/R4*%
X2052427500Y-573610000D03*
%TD*%
%TO.N,Net-(D47-K)*%
%TO.C,SW59*%
X2075446250Y-590120000D03*
%TO.N,/R5*%
X2069096250Y-592660000D03*
%TD*%
%TO.N,Net-(D46-K)*%
%TO.C,SW58*%
X2044490000Y-590120000D03*
%TO.N,/R5*%
X2038140000Y-592660000D03*
%TD*%
%TO.N,Net-(D55-K)*%
%TO.C,SW67*%
X1958765000Y-609170000D03*
%TO.N,/R6*%
X1952415000Y-611710000D03*
%TD*%
%TO.N,Net-(D31-K)*%
%TO.C,SW43*%
X2039727500Y-571070000D03*
%TO.N,/R4*%
X2033377500Y-573610000D03*
%TD*%
%TO.N,Net-(D70-K)*%
%TO.C,SW82*%
X2068302500Y-628220000D03*
%TO.N,/R7*%
X2061952500Y-630760000D03*
%TD*%
%TO.N,Net-(D66-K)*%
%TO.C,SW78*%
X1942096250Y-628220000D03*
%TO.N,/R7*%
X1935746250Y-630760000D03*
%TD*%
%TO.N,Net-(D45-K)*%
%TO.C,SW57*%
X2025440000Y-590120000D03*
%TO.N,/R5*%
X2019090000Y-592660000D03*
%TD*%
%TO.N,Net-(D29-K)*%
%TO.C,SW41*%
X2001627500Y-571070000D03*
%TO.N,/R4*%
X1995277500Y-573610000D03*
%TD*%
%TO.N,Net-(D10-A)*%
%TO.C,SW10*%
X1992102500Y-532970000D03*
%TO.N,/R1*%
X1985752500Y-535510000D03*
%TD*%
%TO.N,Net-(D5-A)*%
%TO.C,SW5*%
X1896852500Y-532970000D03*
%TO.N,/R1*%
X1890502500Y-535510000D03*
%TD*%
%TO.N,Net-(D59-K)*%
%TO.C,SW71*%
X2034965000Y-609170000D03*
%TO.N,/R6*%
X2028615000Y-611710000D03*
%TD*%
%TO.N,Net-(D53-K)*%
%TO.C,SW65*%
X1920665000Y-609170000D03*
%TO.N,/R6*%
X1914315000Y-611710000D03*
%TD*%
%TO.N,Net-(D20-A)*%
%TO.C,SW20*%
X1877802500Y-552020000D03*
%TO.N,/R2*%
X1871452500Y-554560000D03*
%TD*%
%TO.N,Net-(D7-A)*%
%TO.C,SW7*%
X1934952500Y-532970000D03*
%TO.N,/R1*%
X1928602500Y-535510000D03*
%TD*%
%TO.N,Net-(D52-K)*%
%TO.C,SW64*%
X1901615000Y-609170000D03*
%TO.N,/R6*%
X1895265000Y-611710000D03*
%TD*%
%TO.N,Net-(D19-K)*%
%TO.C,SW31*%
X2106402500Y-552020000D03*
%TO.N,/R3*%
X2100052500Y-554560000D03*
%TD*%
%TO.N,Net-(D33-K)*%
%TO.C,SW45*%
X2082590000Y-571070000D03*
%TO.N,/R4*%
X2076240000Y-573610000D03*
%TD*%
%TO.N,Net-(D18-A)*%
%TO.C,SW18*%
X1839702500Y-552020000D03*
%TO.N,/R2*%
X1833352500Y-554560000D03*
%TD*%
%TO.N,Net-(D18-K)*%
%TO.C,SW30*%
X2077827500Y-552020000D03*
%TO.N,/R3*%
X2071477500Y-554560000D03*
%TD*%
%TO.N,Net-(D11-A)*%
%TO.C,SW11*%
X2011152500Y-532970000D03*
%TO.N,/R1*%
X2004802500Y-535510000D03*
%TD*%
%TO.N,Net-(D69-K)*%
%TO.C,SW81*%
X2049252500Y-628220000D03*
%TO.N,/R7*%
X2042902500Y-630760000D03*
%TD*%
%TO.N,Net-(D35-K)*%
%TO.C,SW47*%
X1827796250Y-590120000D03*
%TO.N,/R4*%
X1821446250Y-592660000D03*
%TD*%
%TO.N,Net-(D21-K)*%
%TO.C,SW33*%
X1849227500Y-571070000D03*
%TO.N,/R3*%
X1842877500Y-573610000D03*
%TD*%
%TO.N,Net-(D64-K)*%
%TO.C,SW76*%
X1846846250Y-628220000D03*
%TO.N,/R7*%
X1840496250Y-630760000D03*
%TD*%
%TO.N,Net-(D22-K)*%
%TO.C,SW34*%
X1868277500Y-571070000D03*
%TO.N,/R3*%
X1861927500Y-573610000D03*
%TD*%
%TO.N,Net-(D3-A)*%
%TO.C,SW3*%
X1858752500Y-532970000D03*
%TO.N,/R1*%
X1852402500Y-535510000D03*
%TD*%
%TO.N,Net-(D44-K)*%
%TO.C,SW56*%
X2006390000Y-590120000D03*
%TO.N,/R5*%
X2000040000Y-592660000D03*
%TD*%
%TO.N,Net-(D6-A)*%
%TO.C,SW6*%
X1915902500Y-532970000D03*
%TO.N,/R1*%
X1909552500Y-535510000D03*
%TD*%
%TO.N,Net-(D71-K)*%
%TO.C,SW83*%
X2087352500Y-628220000D03*
%TO.N,/R7*%
X2081002500Y-630760000D03*
%TD*%
%TO.N,Net-(D54-K)*%
%TO.C,SW66*%
X1939715000Y-609170000D03*
%TO.N,/R6*%
X1933365000Y-611710000D03*
%TD*%
%TO.N,Net-(D9-A)*%
%TO.C,SW9*%
X1973052500Y-532970000D03*
%TO.N,/R1*%
X1966702500Y-535510000D03*
%TD*%
%TO.N,Net-(D72-K)*%
%TO.C,SW84*%
X2106402500Y-628220000D03*
%TO.N,/R7*%
X2100052500Y-630760000D03*
%TD*%
%TO.N,Net-(D10-K)*%
%TO.C,SW22*%
X1915902500Y-552020000D03*
%TO.N,/R2*%
X1909552500Y-554560000D03*
%TD*%
%TO.N,Net-(D48-K)*%
%TO.C,SW60*%
X2106402500Y-590120000D03*
%TO.N,/R5*%
X2100052500Y-592660000D03*
%TD*%
%TO.N,Net-(D17-A)*%
%TO.C,SW17*%
X1820652500Y-552020000D03*
%TO.N,/R2*%
X1814302500Y-554560000D03*
%TD*%
%TO.N,Net-(D27-K)*%
%TO.C,SW39*%
X1963527500Y-571070000D03*
%TO.N,/R4*%
X1957177500Y-573610000D03*
%TD*%
%TO.N,Net-(D28-K)*%
%TO.C,SW40*%
X1982577500Y-571070000D03*
%TO.N,/R4*%
X1976227500Y-573610000D03*
%TD*%
%TO.N,Net-(D62-K)*%
%TO.C,SW74*%
X2106402500Y-609170000D03*
%TO.N,/R7*%
X2100052500Y-611710000D03*
%TD*%
%TO.N,Net-(D43-K)*%
%TO.C,SW55*%
X1987340000Y-590120000D03*
%TO.N,/R5*%
X1980990000Y-592660000D03*
%TD*%
%TO.N,Net-(D56-K)*%
%TO.C,SW68*%
X1977815000Y-609170000D03*
%TO.N,/R6*%
X1971465000Y-611710000D03*
%TD*%
%TO.N,Net-(D42-K)*%
%TO.C,SW54*%
X1968290000Y-590120000D03*
%TO.N,/R5*%
X1961940000Y-592660000D03*
%TD*%
%TO.N,Net-(D60-K)*%
%TO.C,SW72*%
X2061158750Y-609170000D03*
%TO.N,/R6*%
X2054808750Y-611710000D03*
%TD*%
%TO.N,Net-(D15-K)*%
%TO.C,SW27*%
X2011152500Y-552020000D03*
%TO.N,/R3*%
X2004802500Y-554560000D03*
%TD*%
%TO.N,Net-(D50-K)*%
%TO.C,SW62*%
X1863515000Y-609170000D03*
%TO.N,/R6*%
X1857165000Y-611710000D03*
%TD*%
%TO.N,Net-(D23-K)*%
%TO.C,SW35*%
X1887327500Y-571070000D03*
%TO.N,/R3*%
X1880977500Y-573610000D03*
%TD*%
%TO.N,Net-(D8-A)*%
%TO.C,SW8*%
X1954002500Y-532970000D03*
%TO.N,/R1*%
X1947652500Y-535510000D03*
%TD*%
%TO.N,Net-(D37-K)*%
%TO.C,SW49*%
X1873040000Y-590120000D03*
%TO.N,/R5*%
X1866690000Y-592660000D03*
%TD*%
%TO.N,Net-(D51-K)*%
%TO.C,SW63*%
X1882565000Y-609170000D03*
%TO.N,/R6*%
X1876215000Y-611710000D03*
%TD*%
%TO.N,Net-(D20-K)*%
%TO.C,SW32*%
X1825415000Y-571070000D03*
%TO.N,/R3*%
X1819065000Y-573610000D03*
%TD*%
%TO.N,Net-(D68-K)*%
%TO.C,SW80*%
X2030202500Y-628220000D03*
%TO.N,/R7*%
X2023852500Y-630760000D03*
%TD*%
%TO.N,Net-(D14-A)*%
%TO.C,SW14*%
X2068302500Y-532970000D03*
%TO.N,/R2*%
X2061952500Y-535510000D03*
%TD*%
%TO.N,Net-(D39-K)*%
%TO.C,SW51*%
X1911140000Y-590120000D03*
%TO.N,/R5*%
X1904790000Y-592660000D03*
%TD*%
%TO.N,Net-(D57-K)*%
%TO.C,SW69*%
X1996865000Y-609170000D03*
%TO.N,/R6*%
X1990515000Y-611710000D03*
%TD*%
%TO.N,Net-(D1-K)*%
%TO.C,SW13*%
X2049252500Y-532970000D03*
%TO.N,/R2*%
X2042902500Y-535510000D03*
%TD*%
%TO.N,Net-(D30-K)*%
%TO.C,SW42*%
X2020677500Y-571070000D03*
%TO.N,/R4*%
X2014327500Y-573610000D03*
%TD*%
%TO.N,Net-(D16-A)*%
%TO.C,SW16*%
X2106402500Y-532970000D03*
%TO.N,/R2*%
X2100052500Y-535510000D03*
%TD*%
%TO.N,Net-(D58-K)*%
%TO.C,SW70*%
X2015915000Y-609170000D03*
%TO.N,/R6*%
X2009565000Y-611710000D03*
%TD*%
%TO.N,Net-(D16-K)*%
%TO.C,SW28*%
X2030202500Y-552020000D03*
%TO.N,/R3*%
X2023852500Y-554560000D03*
%TD*%
%TO.N,Net-(D12-K)*%
%TO.C,SW24*%
X1954002500Y-552020000D03*
%TO.N,/R2*%
X1947652500Y-554560000D03*
%TD*%
%TO.N,Net-(D1-A)*%
%TO.C,SW1*%
X1820652500Y-532970000D03*
%TO.N,/R1*%
X1814302500Y-535510000D03*
%TD*%
%TO.N,Net-(D12-A)*%
%TO.C,SW12*%
X2030202500Y-532970000D03*
%TO.N,/R1*%
X2023852500Y-535510000D03*
%TD*%
%TO.N,Net-(D40-K)*%
%TO.C,SW52*%
X1930190000Y-590120000D03*
%TO.N,/R5*%
X1923840000Y-592660000D03*
%TD*%
%TO.N,Net-(D65-K)*%
%TO.C,SW77*%
X1870658750Y-628220000D03*
%TO.N,/R7*%
X1864308750Y-630760000D03*
%TD*%
%TO.N,Net-(D38-K)*%
%TO.C,SW50*%
X1892090000Y-590120000D03*
%TO.N,/R5*%
X1885740000Y-592660000D03*
%TD*%
%TO.N,Net-(D2-A)*%
%TO.C,SW2*%
X1839702500Y-532970000D03*
%TO.N,/R1*%
X1833352500Y-535510000D03*
%TD*%
%TO.N,Net-(D49-K)*%
%TO.C,SW61*%
X1832558750Y-609170000D03*
%TO.N,/R6*%
X1826208750Y-611710000D03*
%TD*%
%TO.N,Net-(D26-K)*%
%TO.C,SW38*%
X1944477500Y-571070000D03*
%TO.N,/R4*%
X1938127500Y-573610000D03*
%TD*%
%TO.N,Net-(D21-A)*%
%TO.C,SW21*%
X1896852500Y-552020000D03*
%TO.N,/R2*%
X1890502500Y-554560000D03*
%TD*%
%TO.N,Net-(D15-A)*%
%TO.C,SW15*%
X2087352500Y-532970000D03*
%TO.N,/R2*%
X2081002500Y-535510000D03*
%TD*%
%TO.N,Net-(D36-K)*%
%TO.C,SW48*%
X1853990000Y-590120000D03*
%TO.N,/R4*%
X1847640000Y-592660000D03*
%TD*%
%TO.N,Net-(D13-K)*%
%TO.C,SW25*%
X1973052500Y-552020000D03*
%TO.N,/R3*%
X1966702500Y-554560000D03*
%TD*%
%TO.N,Net-(D19-A)*%
%TO.C,SW19*%
X1858752500Y-552020000D03*
%TO.N,/R2*%
X1852402500Y-554560000D03*
%TD*%
%TO.N,Net-(D14-K)*%
%TO.C,SW26*%
X1992102500Y-552020000D03*
%TO.N,/R3*%
X1985752500Y-554560000D03*
%TD*%
%TO.N,Net-(D4-A)*%
%TO.C,SW4*%
X1877802500Y-532970000D03*
%TO.N,/R1*%
X1871452500Y-535510000D03*
%TD*%
%TO.N,Net-(D11-K)*%
%TO.C,SW23*%
X1934952500Y-552020000D03*
%TO.N,/R2*%
X1928602500Y-554560000D03*
%TD*%
%TO.N,Net-(D24-K)*%
%TO.C,SW36*%
X1906377500Y-571070000D03*
%TO.N,/R3*%
X1900027500Y-573610000D03*
%TD*%
%TO.N,Net-(D25-K)*%
%TO.C,SW37*%
X1925427500Y-571070000D03*
%TO.N,/R4*%
X1919077500Y-573610000D03*
%TD*%
%TO.N,Net-(D67-K)*%
%TO.C,SW79*%
X2011152500Y-628220000D03*
%TO.N,/R7*%
X2004802500Y-630760000D03*
%TD*%
%TO.N,Net-(D63-K)*%
%TO.C,SW75*%
X1823033750Y-628220000D03*
%TO.N,/R7*%
X1816683750Y-630760000D03*
%TD*%
%TO.N,Net-(D17-K)*%
%TO.C,SW29*%
X2049252500Y-552020000D03*
%TO.N,/R3*%
X2042902500Y-554560000D03*
%TD*%
%TO.N,Net-(D34-K)*%
%TO.C,SW46*%
X2106402500Y-571070000D03*
%TO.N,/R4*%
X2100052500Y-573610000D03*
%TD*%
D16*
%TO.N,/R6*%
X1912350000Y-616500000D03*
%TO.N,/D+*%
X1967625000Y-641575000D03*
%TO.N,Net-(L80-DOUT)*%
X2055551808Y-632702465D03*
%TO.N,/C2*%
X2101850000Y-625500000D03*
%TO.N,/R7*%
X1912750000Y-628450000D03*
%TO.N,/C1*%
X2094450000Y-620900000D03*
%TO.N,/R7*%
X2098950000Y-622169055D03*
D17*
%TO.N,GND*%
X1915400000Y-629800000D03*
D16*
%TO.N,Net-(L83-DOUT)*%
X2110350000Y-629650000D03*
%TO.N,/R3*%
X1899050000Y-621200000D03*
X1904434620Y-628684620D03*
D17*
%TO.N,GND*%
X1913850000Y-627850000D03*
X1897950000Y-629750000D03*
X1899500000Y-628000000D03*
D16*
%TO.N,/C12*%
X1901700000Y-628100000D03*
%TO.N,Net-(L81-DOUT)*%
X2075400000Y-632950000D03*
%TO.N,Net-(L82-DOUT)*%
X2074350000Y-629630101D03*
%TO.N,/D+*%
X1964884835Y-640915165D03*
%TO.N,/C11*%
X2091600000Y-635300000D03*
%TO.N,/C7*%
X1910612183Y-631409999D03*
%TO.N,/R3*%
X1900200000Y-578650000D03*
X1901350000Y-616520000D03*
%TO.N,/R6*%
X1908700000Y-628500000D03*
%TO.N,/C2*%
X2108300000Y-618000000D03*
X1904001532Y-637712888D03*
%TO.N,/C1*%
X2094150000Y-616200000D03*
%TO.N,/R5*%
X1900700000Y-622169055D03*
%TO.N,/C11*%
X1903184065Y-631491221D03*
%TO.N,Net-(L75-DOUT)*%
X1829050000Y-629750000D03*
%TO.N,/D-*%
X1967625000Y-640825000D03*
%TO.N,/C3*%
X1896950000Y-636500000D03*
%TO.N,/C4*%
X1897056440Y-635808138D03*
%TO.N,/R5*%
X1894650000Y-616520000D03*
%TO.N,/C9*%
X2052950000Y-635300000D03*
%TO.N,Net-(L83-DOUT)*%
X2093950000Y-629500000D03*
%TO.N,Net-(L82-DOUT)*%
X2094750000Y-632500000D03*
%TO.N,Net-(L80-DOUT)*%
X2035487610Y-631410000D03*
%TO.N,/R3*%
X1900750000Y-606450000D03*
X1898350000Y-587900000D03*
%TO.N,/C5*%
X1898600000Y-635300000D03*
%TO.N,/R4*%
X1876950000Y-616520000D03*
%TO.N,Net-(L77-DOUT)*%
X1915100000Y-640350000D03*
%TO.N,Net-(L78-DOUT)*%
X1953100000Y-625350000D03*
%TO.N,Net-(L79-DOUT)*%
X2036850000Y-632800000D03*
X2016223243Y-631409999D03*
%TO.N,/C11*%
X2073700000Y-633700000D03*
%TO.N,Net-(L76-DOUT)*%
X1878500000Y-633100000D03*
%TO.N,Net-(L77-DOUT)*%
X1875881375Y-631418625D03*
%TO.N,/C8*%
X2033700000Y-635050000D03*
%TO.N,Net-(L77-DOUT)*%
X1949400000Y-632950000D03*
%TO.N,/C8*%
X1901600000Y-632700000D03*
%TO.N,/C5*%
X1877450000Y-635100000D03*
%TO.N,Net-(L81-DOUT)*%
X2061850000Y-628810000D03*
%TO.N,Net-(L75-DOUT)*%
X1853722873Y-633227127D03*
%TO.N,Net-(L78-DOUT)*%
X2019050000Y-632750000D03*
%TO.N,/R4*%
X1905300000Y-628450000D03*
X1891750000Y-597600000D03*
X1903300000Y-626400000D03*
%TO.N,/C10*%
X2071550000Y-635570000D03*
%TO.N,/C6*%
X1909800000Y-633000000D03*
%TO.N,/C12*%
X2110550000Y-635000000D03*
%TO.N,Net-(L78-DOUT)*%
X1950150000Y-628100000D03*
%TO.N,/R4*%
X1882600000Y-621850000D03*
%TO.N,/C9*%
X1902125710Y-632237796D03*
%TO.N,Net-(L76-DOUT)*%
X1851905744Y-631409999D03*
%TO.N,/R5*%
X1905994597Y-628536825D03*
%TO.N,/R3*%
X1898650000Y-585100000D03*
D17*
%TO.N,GND*%
X1827650000Y-536600000D03*
X1889470774Y-612799202D03*
X1941947464Y-536506972D03*
%TO.N,Net-(L1-DOUT)*%
X1825700000Y-534450000D03*
X1847350000Y-537350000D03*
%TO.N,GND*%
X1846684381Y-536593195D03*
X1972250000Y-641950000D03*
X1856000000Y-574400000D03*
X1979750112Y-536299741D03*
X1975310600Y-593800000D03*
X1970406776Y-574750000D03*
X1807150000Y-533500000D03*
X1893950000Y-631876482D03*
X2094300000Y-536400000D03*
X2056271805Y-631911758D03*
X1937191358Y-593870221D03*
X2046722673Y-574709362D03*
X2018102038Y-631994068D03*
X1965713794Y-612883864D03*
X2032440051Y-593880887D03*
X1899070712Y-593800000D03*
X2056285496Y-555714441D03*
X1918131737Y-593870221D03*
X1903849052Y-536654437D03*
X1834658996Y-593764889D03*
X2037243665Y-555685182D03*
X2075363482Y-536640828D03*
X1894371174Y-574821796D03*
X2037026851Y-536373149D03*
X1960850000Y-536350000D03*
X1984825007Y-612866932D03*
X1877550000Y-631876482D03*
X1830097837Y-631970551D03*
X2084864629Y-555685182D03*
X2003852236Y-612900797D03*
X1966000000Y-641900000D03*
X1827570512Y-555685182D03*
X1941972478Y-555685182D03*
X1965500000Y-646300000D03*
X1884760410Y-536634023D03*
X2008636247Y-574750000D03*
X1994300000Y-593800000D03*
X2013275097Y-593880887D03*
X1875316988Y-574760840D03*
X1860916359Y-593694667D03*
X2113407977Y-612850000D03*
X1846758639Y-555743700D03*
X1972450000Y-646300000D03*
X2089584024Y-574750000D03*
X1908531190Y-612765338D03*
X2075280258Y-632029344D03*
X1960985051Y-555714441D03*
X1853557507Y-631888241D03*
X2082352355Y-593845776D03*
X2018100000Y-536350000D03*
X2094300000Y-631900000D03*
X2113439240Y-536661242D03*
X1922930647Y-555772959D03*
X2068126112Y-612934661D03*
X1884727607Y-555714441D03*
X1907700000Y-640500000D03*
X1865684605Y-555685182D03*
X2041956814Y-612850000D03*
X1880081313Y-593800000D03*
X1989480467Y-574729681D03*
X2018112886Y-555655923D03*
X1903800000Y-555350000D03*
X2027689619Y-574709362D03*
X2113413332Y-555655923D03*
X2113419926Y-631893623D03*
X1951372910Y-574770318D03*
X1913364403Y-574781159D03*
X1839500000Y-612850000D03*
X1870426612Y-612816135D03*
X1807050000Y-536250000D03*
X2022895721Y-612934661D03*
X1932418588Y-574760840D03*
X1999128402Y-555685182D03*
X2056191722Y-536462715D03*
X1832350000Y-574750000D03*
X2113452147Y-574689043D03*
X1949050000Y-631600000D03*
X1927710810Y-612883864D03*
X2051464561Y-593845776D03*
X1998900000Y-536250000D03*
X2065756540Y-574729681D03*
X1922850000Y-536300000D03*
X2113400000Y-593850000D03*
X1956085601Y-593739953D03*
X1865807319Y-536593195D03*
X2037145296Y-631935275D03*
X2094313696Y-612833067D03*
X1946703497Y-612866932D03*
X1980114659Y-555655923D03*
%TO.N,+5V*%
X2057500000Y-550470000D03*
X1933750000Y-572810000D03*
X1963050000Y-531420000D03*
X1858450000Y-572900000D03*
X2077600000Y-531420000D03*
X1867350000Y-531420000D03*
X1847950000Y-552550000D03*
X1896350000Y-572600000D03*
X1905800000Y-531420000D03*
X1981150000Y-553760000D03*
X1837680945Y-612469046D03*
X2114050000Y-590800000D03*
X1962100000Y-553760000D03*
X2052850000Y-590660000D03*
X1900700000Y-590550000D03*
X1905000000Y-552560000D03*
X2038550000Y-550470000D03*
X2057250000Y-629600000D03*
X1885800000Y-553760000D03*
X1944400000Y-531420000D03*
X2004950000Y-610900000D03*
X1849050000Y-531420000D03*
X2075950000Y-628950000D03*
X1829400000Y-534710000D03*
X1837150000Y-577900000D03*
X2069100000Y-610850000D03*
X1871250000Y-610900000D03*
X1831500000Y-629050000D03*
X1881050000Y-590660000D03*
X2000150000Y-553800000D03*
X2090450000Y-571610000D03*
X1995550000Y-591860000D03*
X1957100000Y-590660000D03*
X2113950000Y-572150000D03*
X1854650000Y-629250000D03*
X1890750000Y-610910000D03*
X1981550000Y-531420000D03*
X2034100000Y-589350000D03*
X2114150000Y-609450000D03*
X1878050000Y-629350000D03*
X2020300000Y-531420000D03*
X1829550000Y-552350000D03*
X1990650000Y-572810000D03*
X1964800000Y-628850000D03*
X2095300000Y-610910000D03*
X1909950000Y-610910000D03*
X1928600000Y-610910000D03*
X1887700000Y-531420000D03*
X2014700000Y-590660000D03*
X1976650000Y-590650000D03*
X2114350000Y-534100000D03*
X1973650000Y-628150000D03*
X2114500000Y-629100000D03*
X2043150000Y-610900000D03*
X1839650000Y-597450000D03*
X1925200000Y-531420000D03*
X1877150000Y-572910000D03*
X2095550000Y-629150000D03*
X1952500000Y-572810000D03*
X2024050000Y-611009999D03*
X1924200000Y-552560000D03*
X2001200000Y-531420000D03*
X2039050000Y-531420000D03*
X1967050000Y-610910000D03*
X2066800000Y-571610000D03*
X1947800000Y-610900000D03*
X1830400000Y-567600000D03*
X2018550000Y-629650000D03*
X2048000000Y-571610000D03*
X2037800000Y-629650000D03*
X2096350000Y-531420000D03*
X1840900000Y-608900000D03*
X1915550000Y-573070000D03*
X2058050000Y-531420000D03*
X1943150000Y-553760000D03*
X1866850000Y-553760000D03*
X1985650000Y-610900000D03*
X1949800000Y-628800000D03*
X1823100000Y-532600000D03*
X2086865735Y-550435735D03*
X1836050000Y-590800000D03*
X2083650000Y-591860000D03*
X1938750000Y-591860000D03*
X2010200000Y-571610000D03*
X1862150000Y-591800000D03*
X2028800000Y-572810000D03*
X1919650000Y-589520000D03*
D18*
X2114600000Y-552900000D03*
D17*
X1971600000Y-571150000D03*
X2019250000Y-553760000D03*
%TO.N,Net-(D21-K)*%
X1900550000Y-559950000D03*
%TO.N,Net-(D70-K)*%
X2022850000Y-616469999D03*
X2026800000Y-619750000D03*
%TO.N,Net-(D67-K)*%
X1968700000Y-619250000D03*
X1965823515Y-616326485D03*
%TO.N,Net-(D42-K)*%
X2002150000Y-585300000D03*
%TO.N,Net-(L73-DOUT)*%
X2114250000Y-613650000D03*
X2094550000Y-610450000D03*
%TO.N,Net-(D25-K)*%
X1976050000Y-559950000D03*
%TO.N,Net-(L11-DOUT)*%
X2017750000Y-534350000D03*
X2037900000Y-537750000D03*
%TO.N,Net-(L10-DOUT)*%
X2019050000Y-537500000D03*
X1998650000Y-534050000D03*
%TO.N,Net-(D40-K)*%
X1965900000Y-585050000D03*
%TO.N,Net-(L35-DOUT)*%
X1914200000Y-575650000D03*
X1897800000Y-572800000D03*
%TO.N,Net-(L34-DOUT)*%
X1895250000Y-575700000D03*
X1875100000Y-572250000D03*
%TO.N,Net-(D47-K)*%
X2051550000Y-598350000D03*
X2082200000Y-597250000D03*
%TO.N,/EOS6*%
X2094850000Y-613700000D03*
X2068400000Y-610250000D03*
%TO.N,Net-(L71-DOUT)*%
X2041650000Y-610300000D03*
X2069000000Y-613800000D03*
%TO.N,Net-(D36-K)*%
X1857250000Y-587800000D03*
X1908150000Y-578350000D03*
X1905900000Y-580700000D03*
%TO.N,Net-(D49-K)*%
X1866900000Y-602531677D03*
X1875700000Y-597750000D03*
%TO.N,Net-(D37-K)*%
X1914700000Y-581300000D03*
%TO.N,Net-(D22-K)*%
X1919400000Y-559950000D03*
%TO.N,Net-(L3-DOUT)*%
X1885900000Y-537300000D03*
X1864600000Y-534150000D03*
%TO.N,Net-(L2-DOUT)*%
X1845400000Y-534400000D03*
X1866300000Y-537600000D03*
%TO.N,Net-(L28-DOUT)*%
X2057000000Y-556600000D03*
X2036600000Y-553250000D03*
%TO.N,Net-(L27-DOUT)*%
X2038000000Y-556400000D03*
X2017750000Y-553500000D03*
%TO.N,Net-(L61-DOUT)*%
X1871450000Y-613900000D03*
X1839700000Y-609500000D03*
%TO.N,Net-(D16-A)*%
X2045550000Y-530500000D03*
X2064800000Y-530400000D03*
%TO.N,Net-(L62-DOUT)*%
X1890250000Y-613700000D03*
X1870100000Y-610100000D03*
%TO.N,Net-(D13-K)*%
X2037800000Y-544050000D03*
%TO.N,Net-(D58-K)*%
X2046100000Y-597750000D03*
X2040950000Y-602750000D03*
%TO.N,/EOS4*%
X1860800000Y-591200000D03*
X1880950000Y-594750000D03*
%TO.N,Net-(L47-DOUT)*%
X1861850000Y-594900000D03*
X1834600000Y-591250000D03*
%TO.N,Net-(L66-DOUT)*%
X1966700000Y-613700000D03*
X1946350000Y-610300000D03*
%TO.N,Net-(L65-DOUT)*%
X1947350000Y-613650000D03*
X1927400000Y-610450000D03*
%TO.N,Net-(D32-K)*%
X1912450000Y-579800000D03*
X2068050000Y-578850000D03*
%TO.N,Net-(D20-K)*%
X1881100000Y-559950000D03*
%TO.N,Net-(D17-A)*%
X1899550000Y-540270000D03*
%TO.N,Net-(D48-K)*%
X1860700000Y-597750000D03*
X2115500000Y-598000000D03*
%TO.N,Net-(L52-DOUT)*%
X1936400000Y-591600000D03*
X1956900000Y-594600000D03*
%TO.N,Net-(L51-DOUT)*%
X1937950000Y-594500000D03*
X1917800000Y-591400000D03*
%TO.N,Net-(D19-A)*%
X1938650000Y-540270000D03*
%TO.N,Net-(L23-DOUT)*%
X1942050000Y-553400000D03*
X1961550000Y-556750000D03*
%TO.N,Net-(L22-DOUT)*%
X1922450000Y-553450000D03*
X1942950000Y-556700000D03*
%TO.N,Net-(D41-K)*%
X1983100000Y-585050000D03*
%TO.N,Net-(D33-K)*%
X1855800000Y-579150000D03*
X2092692036Y-578142036D03*
%TO.N,Net-(D35-K)*%
X1888200000Y-580700000D03*
X1891400000Y-578600000D03*
%TO.N,Net-(D43-K)*%
X2021500000Y-585050000D03*
%TO.N,Net-(L21-DOUT)*%
X1923800000Y-556350000D03*
X1903400000Y-553700000D03*
%TO.N,Net-(L20-DOUT)*%
X1904800000Y-556250000D03*
X1884100000Y-553450000D03*
%TO.N,Net-(D72-K)*%
X2072600000Y-619150000D03*
X2068250000Y-616469999D03*
%TO.N,Net-(L4-DOUT)*%
X1904550000Y-537350000D03*
X1884200000Y-534300000D03*
%TO.N,Net-(D69-K)*%
X2003850000Y-616470000D03*
X2008450000Y-619150000D03*
%TO.N,Net-(D57-K)*%
X2028750000Y-597750000D03*
X2025600000Y-602650000D03*
%TO.N,Net-(L50-DOUT)*%
X1919100000Y-594700000D03*
X1898700000Y-591400000D03*
%TO.N,Net-(L59-DOUT)*%
X2114300000Y-594750000D03*
X2082250000Y-591550000D03*
%TO.N,Net-(L58-DOUT)*%
X2051450000Y-591450000D03*
X2083150000Y-594550000D03*
%TO.N,Net-(D66-K)*%
X1940900000Y-619400000D03*
X1943100000Y-616469999D03*
%TO.N,Net-(L55-DOUT)*%
X2014300000Y-594700000D03*
X1993750000Y-591550000D03*
%TO.N,Net-(L54-DOUT)*%
X1975250000Y-591400000D03*
X1995350000Y-594550000D03*
%TO.N,Net-(L25-DOUT)*%
X1980050000Y-553300000D03*
X1999700000Y-556500000D03*
%TO.N,/EOS2*%
X1960800000Y-553350000D03*
X1980900000Y-556450000D03*
%TO.N,Net-(D45-K)*%
X2060100000Y-585000000D03*
%TO.N,Net-(D56-K)*%
X2005050000Y-602531676D03*
X2009600000Y-597750000D03*
%TO.N,Net-(D44-K)*%
X2041300000Y-585050000D03*
%TO.N,Net-(D53-K)*%
X1947250000Y-602650000D03*
X1952150000Y-597750000D03*
%TO.N,Net-(D50-K)*%
X1895450000Y-597750000D03*
X1888150000Y-602650000D03*
%TO.N,Net-(L56-DOUT)*%
X2033300000Y-594650000D03*
X2012850000Y-591700000D03*
%TO.N,Net-(D19-K)*%
X1958850000Y-560550000D03*
%TO.N,Net-(D17-K)*%
X1886900000Y-542002166D03*
%TO.N,Net-(D65-K)*%
X1924550000Y-616469999D03*
X1921100000Y-619150000D03*
%TO.N,Net-(D62-K)*%
X2113950000Y-617300000D03*
X1870150000Y-616470000D03*
%TO.N,Net-(L10-DIN)*%
X1979750000Y-534250000D03*
X2000250000Y-537550000D03*
%TO.N,Net-(L49-DOUT)*%
X1879550000Y-591350000D03*
X1899850000Y-594500000D03*
%TO.N,Net-(D55-K)*%
X1990000000Y-597749999D03*
X1985350000Y-602750000D03*
%TO.N,Net-(D15-K)*%
X2035800000Y-545800000D03*
%TO.N,Net-(L14-DOUT)*%
X2095150000Y-537400000D03*
X2074950000Y-534250000D03*
%TO.N,Net-(L13-DOUT)*%
X2055750000Y-534150000D03*
X2076250000Y-537450000D03*
%TO.N,Net-(L53-DOUT)*%
X1955600000Y-591600000D03*
X1976100000Y-594800000D03*
%TO.N,Net-(D24-K)*%
X1957200000Y-559950000D03*
%TO.N,Net-(L41-DOUT)*%
X2008950000Y-572650000D03*
X2028200000Y-575500000D03*
%TO.N,Net-(L40-DOUT)*%
X2009250000Y-575550000D03*
X1989000000Y-572450000D03*
%TO.N,Net-(L7-DOUT)*%
X1941350000Y-534250000D03*
X1961750000Y-537250000D03*
%TO.N,Net-(L6-DOUT)*%
X1942700000Y-537600000D03*
X1922300000Y-534450000D03*
%TO.N,Net-(L30-DOUT)*%
X2114250000Y-556950000D03*
X2084600000Y-553550000D03*
%TO.N,Net-(L29-DOUT)*%
X2054450000Y-555300000D03*
X2085650000Y-556300000D03*
X2058600000Y-555260000D03*
%TO.N,Net-(D12-K)*%
X1980000000Y-543500000D03*
%TO.N,Net-(L69-DOUT)*%
X2023500000Y-613900000D03*
X2004050000Y-610150000D03*
%TO.N,Net-(L68-DOUT)*%
X1984400000Y-610300000D03*
X2004750000Y-613850000D03*
%TO.N,Net-(D18-A)*%
X1919250000Y-540270000D03*
%TO.N,Net-(L57-DOUT)*%
X2052250000Y-594750000D03*
X2032300000Y-591800000D03*
%TO.N,Net-(L26-DOUT)*%
X1998600000Y-553350000D03*
X2019050000Y-556300000D03*
%TO.N,Net-(L67-DOUT)*%
X1966050000Y-610500000D03*
X1985730000Y-612720000D03*
%TO.N,Net-(D64-K)*%
X1905600000Y-616470000D03*
X1901485476Y-619324129D03*
%TO.N,Net-(D54-K)*%
X1964250000Y-602531677D03*
X1971350000Y-597750000D03*
%TO.N,Net-(L63-DOUT)*%
X1909665000Y-613850000D03*
X1889400000Y-610350000D03*
%TO.N,Net-(L18-DOUT)*%
X1866650000Y-556600000D03*
X1846100000Y-553150000D03*
%TO.N,Net-(L17-DOUT)*%
X1827450000Y-553250000D03*
X1847550000Y-556450000D03*
%TO.N,Net-(D63-K)*%
X1886100000Y-616470000D03*
X1882800000Y-619150000D03*
%TO.N,Net-(D23-K)*%
X1938250000Y-559950000D03*
%TO.N,Net-(D39-K)*%
X1946750000Y-585299999D03*
%TO.N,/EOS1*%
X2036650000Y-534000000D03*
X2057150000Y-537350000D03*
%TO.N,Net-(L64-DOUT)*%
X1928100000Y-613750000D03*
X1907950000Y-610550000D03*
%TO.N,Net-(D51-K)*%
X1910150000Y-602700000D03*
X1914250000Y-597749999D03*
%TO.N,Net-(L43-DOUT)*%
X2046650000Y-572250000D03*
X2066100000Y-575750000D03*
%TO.N,Net-(L42-DOUT)*%
X2027450000Y-572300000D03*
X2047350000Y-575500000D03*
%TO.N,Net-(D34-K)*%
X2114950000Y-579000000D03*
X1875050000Y-579200000D03*
%TO.N,Net-(L16-DOUT)*%
X1907650000Y-540270000D03*
X1837300000Y-541900000D03*
X2041137223Y-541585110D03*
%TO.N,Net-(L19-DOUT)*%
X1885900000Y-556450000D03*
X1865300000Y-553200000D03*
%TO.N,Net-(D52-K)*%
X1933550000Y-597750000D03*
X1929500000Y-602531676D03*
%TO.N,Net-(L33-DOUT)*%
X1856200000Y-572500000D03*
X1876150000Y-575800000D03*
%TO.N,Net-(L32-DOUT)*%
X1832350000Y-572500000D03*
X1857050000Y-575700000D03*
%TO.N,Net-(D14-A)*%
X2044150000Y-529200000D03*
%TO.N,Net-(D71-K)*%
X2051350000Y-619150000D03*
X2041850000Y-616250000D03*
%TO.N,Net-(L39-DOUT)*%
X1990200000Y-575550000D03*
X1970450000Y-572450000D03*
%TO.N,Net-(L70-DOUT)*%
X2043000000Y-613600000D03*
X2023200000Y-610350000D03*
%TO.N,Net-(L31-DOUT)*%
X1963400000Y-562700000D03*
X1834250000Y-574700000D03*
%TO.N,Net-(D18-K)*%
X1885600000Y-542250000D03*
%TO.N,/EOS3*%
X1933300000Y-575600000D03*
X1917400000Y-572450000D03*
%TO.N,Net-(L44-DOUT)*%
X2065350000Y-572300000D03*
X2090400000Y-575500000D03*
%TO.N,Net-(L45-DOUT)*%
X2089200000Y-572500000D03*
X2114050000Y-575450000D03*
%TO.N,Net-(D14-K)*%
X2037000000Y-544850000D03*
%TO.N,Net-(L38-DOUT)*%
X1951550000Y-572350000D03*
X1971350000Y-575600000D03*
%TO.N,Net-(L37-DOUT)*%
X1932250000Y-572500000D03*
X1952300000Y-575750000D03*
%TO.N,Net-(D15-A)*%
X2042800000Y-529850000D03*
%TO.N,Net-(L46-DOUT)*%
X1836800000Y-593800000D03*
X1914450000Y-585900000D03*
%TO.N,Net-(L15-DOUT)*%
X2093700000Y-534250000D03*
X2113900000Y-537350000D03*
%TO.N,Net-(D68-K)*%
X1987300000Y-617949999D03*
X1984950000Y-616469999D03*
%TO.N,Net-(L8-DOUT)*%
X1960900000Y-533850000D03*
X1981000000Y-537200000D03*
%TO.N,Net-(L5-DOUT)*%
X1923850000Y-537450000D03*
X1903650000Y-534450000D03*
%TO.N,Net-(USB1-CC1)*%
X1970150000Y-644550000D03*
%TO.N,Net-(USB1-CC2)*%
X1967600000Y-647400000D03*
%TO.N,/GPIO42*%
X1897500000Y-642300000D03*
X1807100000Y-535000000D03*
X1916100000Y-636700000D03*
D16*
%TO.N,GND*%
X1915400000Y-643800000D03*
X1897950000Y-643750000D03*
%TO.N,/R3*%
X1902050000Y-597800000D03*
%TO.N,/D-*%
X1965415165Y-640384835D03*
%TO.N,/R6*%
X1911950000Y-622169055D03*
%TO.N,/C1*%
X1904700000Y-639950000D03*
%TO.N,/C10*%
X1902501694Y-631647340D03*
%TD*%
%TO.N,/C5*%
D19*
X1898600000Y-635300000D02*
X1897000000Y-633700000D01*
X1897000000Y-633700000D02*
X1878850000Y-633700000D01*
X1878850000Y-633700000D02*
X1877450000Y-635100000D01*
%TO.N,Net-(L77-DOUT)*%
X1899150000Y-635527818D02*
X1899150000Y-635072182D01*
X1908022182Y-644400000D02*
X1899150000Y-635527818D01*
X1899150000Y-635072182D02*
X1896554300Y-632476482D01*
X1896554300Y-632476482D02*
X1876939232Y-632476482D01*
X1911050000Y-644400000D02*
X1908022182Y-644400000D01*
X1915100000Y-640350000D02*
X1911050000Y-644400000D01*
X1876939232Y-632476482D02*
X1875881375Y-631418625D01*
%TO.N,Net-(L78-DOUT)*%
X1950350000Y-628100000D02*
X1950150000Y-628100000D01*
X1953100000Y-625350000D02*
X1950350000Y-628100000D01*
%TO.N,/R7*%
D20*
X2101152499Y-619966556D02*
X2098950000Y-622169055D01*
X2101152499Y-612809999D02*
X2101152499Y-619966556D01*
X2100052500Y-611710000D02*
X2101152499Y-612809999D01*
%TO.N,/C12*%
D19*
X2041422601Y-630260000D02*
X2042322601Y-629360000D01*
X1901700000Y-628100000D02*
X1902550000Y-627250000D01*
X2042322601Y-629360000D02*
X2043482399Y-629360000D01*
X1950331572Y-630180101D02*
X2003402500Y-630180101D01*
X1902550000Y-627250000D02*
X1941086351Y-627250000D01*
X1941086351Y-627250000D02*
X1941516351Y-626820000D01*
X2108945444Y-635000000D02*
X2110550000Y-635000000D01*
X2081582399Y-629360000D02*
X2082402500Y-630180101D01*
X2103305444Y-629360000D02*
X2108945444Y-635000000D01*
X2098652500Y-630180101D02*
X2099472601Y-629360000D01*
X1941516351Y-626820000D02*
X1946971471Y-626820000D01*
X1946971471Y-626820000D02*
X1950331572Y-630180101D01*
X2023272601Y-629360000D02*
X2024432399Y-629360000D01*
X2082402500Y-630180101D02*
X2098652500Y-630180101D01*
X2025332399Y-630260000D02*
X2041422601Y-630260000D01*
X2003402500Y-630180101D02*
X2004222601Y-629360000D01*
X2022372601Y-630260000D02*
X2023272601Y-629360000D01*
X2010170088Y-630260000D02*
X2022372601Y-630260000D01*
X2044382399Y-630260000D02*
X2060472601Y-630260000D01*
X2009270088Y-629360000D02*
X2010170088Y-630260000D01*
X2099472601Y-629360000D02*
X2103305444Y-629360000D01*
X2004222601Y-629360000D02*
X2009270088Y-629360000D01*
X2024432399Y-629360000D02*
X2025332399Y-630260000D01*
X2043482399Y-629360000D02*
X2044382399Y-630260000D01*
X2060472601Y-630260000D02*
X2061372601Y-629360000D01*
X2062532399Y-629360000D02*
X2063352500Y-630180101D01*
X2061372601Y-629360000D02*
X2062532399Y-629360000D01*
X2063352500Y-630180101D02*
X2079602500Y-630180101D01*
X2079602500Y-630180101D02*
X2080422601Y-629360000D01*
X2080422601Y-629360000D02*
X2081582399Y-629360000D01*
%TO.N,/C10*%
X1901309157Y-631647340D02*
X1900650000Y-632306497D01*
X1904856496Y-637300000D02*
X2069820000Y-637300000D01*
X1900650000Y-633093504D02*
X1904856496Y-637300000D01*
X1902501694Y-631647340D02*
X1901309157Y-631647340D01*
X1900650000Y-632306497D02*
X1900650000Y-633093504D01*
X2069820000Y-637300000D02*
X2071550000Y-635570000D01*
%TO.N,/C9*%
X1902037914Y-632150000D02*
X1901372182Y-632150000D01*
X1901050000Y-632472182D02*
X1901050000Y-632927818D01*
X1901372182Y-632150000D02*
X1901050000Y-632472182D01*
X1902125710Y-632237796D02*
X1902037914Y-632150000D01*
X1901050000Y-632927818D02*
X1904172182Y-636050000D01*
X1904172182Y-636050000D02*
X2052200000Y-636050000D01*
X2052200000Y-636050000D02*
X2052950000Y-635300000D01*
%TO.N,/C8*%
X2033100000Y-635650000D02*
X2033700000Y-635050000D01*
X1901600000Y-632700000D02*
X1904550000Y-635650000D01*
X1904550000Y-635650000D02*
X2033100000Y-635650000D01*
%TO.N,/C1*%
X2094450000Y-620900000D02*
X2094150000Y-620600000D01*
X2094150000Y-620600000D02*
X2094150000Y-616200000D01*
%TO.N,/R7*%
D20*
X1912350000Y-628850000D02*
X1912750000Y-628450000D01*
X1912350000Y-630760000D02*
X1912350000Y-628850000D01*
X2100052500Y-630760000D02*
X1912350000Y-630760000D01*
%TO.N,/R6*%
X1912350000Y-616500000D02*
X1911950000Y-616900000D01*
X1911950000Y-616900000D02*
X1911950000Y-622169055D01*
%TO.N,/R5*%
X1894650000Y-616520000D02*
X1894650000Y-617719239D01*
X1894650000Y-617719239D02*
X1899099816Y-622169055D01*
X1899099816Y-622169055D02*
X1900700000Y-622169055D01*
%TO.N,/R3*%
X1899050000Y-621200000D02*
X1899050000Y-618820000D01*
X1899050000Y-618820000D02*
X1901350000Y-616520000D01*
%TO.N,/R4*%
X1882280000Y-621850000D02*
X1882600000Y-621850000D01*
X1876950000Y-616520000D02*
X1882280000Y-621850000D01*
%TO.N,/R3*%
X1900200000Y-583550000D02*
X1898650000Y-585100000D01*
X1902050000Y-605150000D02*
X1900750000Y-606450000D01*
X1900200000Y-578650000D02*
X1900200000Y-583550000D01*
X1902050000Y-597800000D02*
X1902050000Y-605150000D01*
%TO.N,+5V*%
D21*
X2095550000Y-610660000D02*
X2095300000Y-610910000D01*
X1867350000Y-550470000D02*
X1885950000Y-550470000D01*
X1928650000Y-607250000D02*
X1948800000Y-607250000D01*
X2005650000Y-607250000D02*
X2005650000Y-610200000D01*
X2095980000Y-531420000D02*
X2111670000Y-531420000D01*
X1890900000Y-610760000D02*
X1890750000Y-610910000D01*
X1853200000Y-622869055D02*
X1876750000Y-622869055D01*
X2011200000Y-570610000D02*
X2010200000Y-571610000D01*
X2077600000Y-531420000D02*
X2095980000Y-531420000D01*
X1963050000Y-531420000D02*
X1981550000Y-531420000D01*
X2018500000Y-629600000D02*
X2018550000Y-629650000D01*
X1928650000Y-610860000D02*
X1928600000Y-610910000D01*
X1963850000Y-622869055D02*
X1963850000Y-627900000D01*
X1849050000Y-531420000D02*
X1867350000Y-531420000D01*
X2019450000Y-553560000D02*
X2019250000Y-553760000D01*
X1862250000Y-587050000D02*
X1862250000Y-591700000D01*
X2097800000Y-622869055D02*
X2095500000Y-625169055D01*
X1832690000Y-531420000D02*
X1849050000Y-531420000D01*
X1957750000Y-590010000D02*
X1957100000Y-590660000D01*
X1857150000Y-567600000D02*
X1857150000Y-571600000D01*
X1876750000Y-622869055D02*
X1876750000Y-628050000D01*
X2109400000Y-567600000D02*
X2113950000Y-572150000D01*
X1837680945Y-622869055D02*
X1831500000Y-629050000D01*
X1836050000Y-587850000D02*
X1836850000Y-587050000D01*
X1823100000Y-532600000D02*
X1827290000Y-532600000D01*
X1876550000Y-567600000D02*
X1877150000Y-568200000D01*
X2043850000Y-607250000D02*
X2069200000Y-607250000D01*
X1905100000Y-550470000D02*
X1924600000Y-550470000D01*
X1963850000Y-627900000D02*
X1964800000Y-628850000D01*
X1962200000Y-553660000D02*
X1962100000Y-553760000D01*
X2076400000Y-628500000D02*
X2075950000Y-628950000D01*
X2095500000Y-625169055D02*
X2095500000Y-629100000D01*
X1972700000Y-627200000D02*
X1973650000Y-628150000D01*
X2015300000Y-587050000D02*
X2015300000Y-590060000D01*
X1943400000Y-550470000D02*
X1962200000Y-550470000D01*
X1905100000Y-550470000D02*
X1905100000Y-552460000D01*
X1986300000Y-610250000D02*
X1985650000Y-610900000D01*
X1839650000Y-597450000D02*
X1839650000Y-607250000D01*
X2047750000Y-567600000D02*
X2047750000Y-571360000D01*
X2001200000Y-531420000D02*
X2020300000Y-531420000D01*
X2111950000Y-607250000D02*
X2114150000Y-609450000D01*
X1905800000Y-531420000D02*
X1925200000Y-531420000D01*
X1944400000Y-531420000D02*
X1963050000Y-531420000D01*
X1837680945Y-622869055D02*
X1853200000Y-622869055D01*
X2057500000Y-550470000D02*
X2112170000Y-550470000D01*
X1967600000Y-607250000D02*
X1967600000Y-610360000D01*
X1996450000Y-587050000D02*
X2015300000Y-587050000D01*
X2085000000Y-587050000D02*
X2085000000Y-590510000D01*
X2076400000Y-622869055D02*
X2097800000Y-622869055D01*
X2085000000Y-587050000D02*
X2110300000Y-587050000D01*
X2057250000Y-623069055D02*
X2057250000Y-629600000D01*
X2015300000Y-590060000D02*
X2014700000Y-590660000D01*
X1857150000Y-567600000D02*
X1876550000Y-567600000D01*
X2043850000Y-607250000D02*
X2043850000Y-610200000D01*
X1901150000Y-590100000D02*
X1900700000Y-590550000D01*
X1848200000Y-550470000D02*
X1867350000Y-550470000D01*
X1940100000Y-590510000D02*
X1938750000Y-591860000D01*
X1896000000Y-567600000D02*
X1896000000Y-572250000D01*
X1871650000Y-607250000D02*
X1890900000Y-607250000D01*
X1916950000Y-567600000D02*
X1915550000Y-569000000D01*
X1924600000Y-552160000D02*
X1924200000Y-552560000D01*
X2069200000Y-607250000D02*
X2069200000Y-610750000D01*
X1896000000Y-572250000D02*
X1896350000Y-572600000D01*
X1916950000Y-567600000D02*
X1933700000Y-567600000D01*
X2037800000Y-623469055D02*
X2037800000Y-629650000D01*
X1981200000Y-550470000D02*
X1981300000Y-550570000D01*
X2090600000Y-567600000D02*
X2090600000Y-571460000D01*
X2053550000Y-587050000D02*
X2085000000Y-587050000D01*
X1924600000Y-550470000D02*
X1943400000Y-550470000D01*
X1925200000Y-531420000D02*
X1944400000Y-531420000D01*
X1890900000Y-607250000D02*
X1890900000Y-610760000D01*
X1933700000Y-567600000D02*
X1952750000Y-567600000D01*
X1919850000Y-589320000D02*
X1919650000Y-589520000D01*
X2000500000Y-550470000D02*
X2000500000Y-553450000D01*
X2019450000Y-550470000D02*
X2019450000Y-553560000D01*
X1919850000Y-587050000D02*
X1919850000Y-589320000D01*
X1993550000Y-567600000D02*
X2011200000Y-567600000D01*
X1915550000Y-569000000D02*
X1915550000Y-573070000D01*
X2053550000Y-587050000D02*
X2053550000Y-589960000D01*
X1836850000Y-587050000D02*
X1862250000Y-587050000D01*
X1962200000Y-550470000D02*
X1981200000Y-550470000D01*
X1981550000Y-531420000D02*
X2001200000Y-531420000D01*
X1837680945Y-612469046D02*
X1837680945Y-622869055D01*
X1862250000Y-587050000D02*
X1881450000Y-587050000D01*
X2011200000Y-567600000D02*
X2029800000Y-567600000D01*
X2018500000Y-622869055D02*
X2037200000Y-622869055D01*
X1962200000Y-550470000D02*
X1962200000Y-553660000D01*
X2029800000Y-567600000D02*
X2029800000Y-571810000D01*
X1952750000Y-567600000D02*
X1952750000Y-572560000D01*
X1972700000Y-622869055D02*
X2018500000Y-622869055D01*
X1910150000Y-607250000D02*
X1910150000Y-610710000D01*
X2111670000Y-531420000D02*
X2114350000Y-534100000D01*
X1836050000Y-579000000D02*
X1836050000Y-587850000D01*
X2067000000Y-571410000D02*
X2066800000Y-571610000D01*
X1948350000Y-622869055D02*
X1948350000Y-627350000D01*
X1890900000Y-607250000D02*
X1910150000Y-607250000D01*
X2110300000Y-587050000D02*
X2114050000Y-590800000D01*
X2034600000Y-588850000D02*
X2034100000Y-589350000D01*
X1905100000Y-552460000D02*
X1905000000Y-552560000D01*
X1885950000Y-550470000D02*
X1905100000Y-550470000D01*
X1977450000Y-589850000D02*
X1976650000Y-590650000D01*
X1977450000Y-587050000D02*
X1977450000Y-589850000D01*
X1857150000Y-571600000D02*
X1858450000Y-572900000D01*
X1881450000Y-590260000D02*
X1881050000Y-590660000D01*
X1853200000Y-627800000D02*
X1854650000Y-629250000D01*
X2024250000Y-607250000D02*
X2024250000Y-610809999D01*
X1919850000Y-587050000D02*
X1940100000Y-587050000D01*
X1896000000Y-567600000D02*
X1916950000Y-567600000D01*
X2034600000Y-587050000D02*
X2034600000Y-588850000D01*
X2058050000Y-531420000D02*
X2077600000Y-531420000D01*
X1986300000Y-607250000D02*
X1986300000Y-610250000D01*
X1996450000Y-587050000D02*
X1996450000Y-590960000D01*
X1971700000Y-567600000D02*
X1993550000Y-567600000D01*
X1952750000Y-567600000D02*
X1971700000Y-567600000D01*
X2085000000Y-590510000D02*
X2083650000Y-591860000D01*
X1943400000Y-550470000D02*
X1943400000Y-553510000D01*
X2067000000Y-567600000D02*
X2090600000Y-567600000D01*
X1993550000Y-567600000D02*
X1990650000Y-570500000D01*
X1977450000Y-587050000D02*
X1996450000Y-587050000D01*
X1877150000Y-568200000D02*
X1877150000Y-572910000D01*
X1963850000Y-622869055D02*
X1972700000Y-622869055D01*
X1986300000Y-607250000D02*
X2005650000Y-607250000D01*
X2057050000Y-622869055D02*
X2076400000Y-622869055D01*
X1867350000Y-550470000D02*
X1867350000Y-553260000D01*
X1996450000Y-590960000D02*
X1995550000Y-591860000D01*
X2011200000Y-567600000D02*
X2011200000Y-570610000D01*
X2097800000Y-622869055D02*
X2108269055Y-622869055D01*
X1867350000Y-531420000D02*
X1887700000Y-531420000D01*
X1876750000Y-622869055D02*
X1948350000Y-622869055D01*
X1862250000Y-591700000D02*
X1862150000Y-591800000D01*
X2000500000Y-550470000D02*
X2019450000Y-550470000D01*
X2090600000Y-571460000D02*
X2090450000Y-571610000D01*
X1871650000Y-610500000D02*
X1871250000Y-610900000D01*
X1848200000Y-550470000D02*
X1848200000Y-552300000D01*
X2039050000Y-531420000D02*
X2058050000Y-531420000D01*
X1967600000Y-610360000D02*
X1967050000Y-610910000D01*
X2043850000Y-610200000D02*
X2043150000Y-610900000D01*
X1948800000Y-607250000D02*
X1948800000Y-609900000D01*
X1990650000Y-570500000D02*
X1990650000Y-572810000D01*
X1867350000Y-553260000D02*
X1866850000Y-553760000D01*
X2037200000Y-622869055D02*
X2057050000Y-622869055D01*
X1876750000Y-628050000D02*
X1878050000Y-629350000D01*
X2095550000Y-607250000D02*
X2111950000Y-607250000D01*
X1972700000Y-622869055D02*
X1972700000Y-627200000D01*
X1885950000Y-553610000D02*
X1885800000Y-553760000D01*
X1981300000Y-553610000D02*
X1981150000Y-553760000D01*
X1881450000Y-587050000D02*
X1901150000Y-587050000D01*
X2108269055Y-622869055D02*
X2114500000Y-629100000D01*
X1952750000Y-572560000D02*
X1952500000Y-572810000D01*
X2069200000Y-610750000D02*
X2069100000Y-610850000D01*
X1981300000Y-550570000D02*
X1981300000Y-553610000D01*
X2005650000Y-607250000D02*
X2024250000Y-607250000D01*
X1940100000Y-587050000D02*
X1957750000Y-587050000D01*
X1933700000Y-567600000D02*
X1933700000Y-572760000D01*
X2000500000Y-553450000D02*
X2000150000Y-553800000D01*
X2090600000Y-567600000D02*
X2109400000Y-567600000D01*
X2076400000Y-622869055D02*
X2076400000Y-628500000D01*
X1830400000Y-567600000D02*
X1857150000Y-567600000D01*
X1871650000Y-607250000D02*
X1871650000Y-610500000D01*
X2029800000Y-567600000D02*
X2047750000Y-567600000D01*
X1910150000Y-607250000D02*
X1928650000Y-607250000D01*
X1848200000Y-552300000D02*
X1847950000Y-552550000D01*
X1971700000Y-567600000D02*
X1971700000Y-571050000D01*
X1933700000Y-572760000D02*
X1933750000Y-572810000D01*
X2020300000Y-531420000D02*
X2039050000Y-531420000D01*
X1948350000Y-622869055D02*
X1963850000Y-622869055D01*
X1827290000Y-532600000D02*
X1829400000Y-534710000D01*
X1887700000Y-531420000D02*
X1905800000Y-531420000D01*
X2037200000Y-622869055D02*
X2037800000Y-623469055D01*
X1910150000Y-610710000D02*
X1909950000Y-610910000D01*
X2067000000Y-567600000D02*
X2067000000Y-571410000D01*
X2057050000Y-622869055D02*
X2057250000Y-623069055D01*
X1885950000Y-550470000D02*
X1885950000Y-553610000D01*
X2038550000Y-550470000D02*
X2057500000Y-550470000D01*
X1829550000Y-552350000D02*
X1831430000Y-550470000D01*
X1853200000Y-622869055D02*
X1853200000Y-627800000D01*
X1829400000Y-534710000D02*
X1832690000Y-531420000D01*
X1881450000Y-587050000D02*
X1881450000Y-590260000D01*
X1928650000Y-607250000D02*
X1928650000Y-610860000D01*
X2034600000Y-587050000D02*
X2053550000Y-587050000D01*
X1924600000Y-550470000D02*
X1924600000Y-552160000D01*
X2024250000Y-610809999D02*
X2024050000Y-611009999D01*
X2095550000Y-607250000D02*
X2095550000Y-610660000D01*
X2018500000Y-622869055D02*
X2018500000Y-629600000D01*
X1839650000Y-607650000D02*
X1840900000Y-608900000D01*
X2095500000Y-629100000D02*
X2095550000Y-629150000D01*
X2024250000Y-607250000D02*
X2043850000Y-607250000D01*
X1971700000Y-571050000D02*
X1971600000Y-571150000D01*
X2053550000Y-589960000D02*
X2052850000Y-590660000D01*
X2005650000Y-610200000D02*
X2004950000Y-610900000D01*
X1943400000Y-553510000D02*
X1943150000Y-553760000D01*
X1839650000Y-607250000D02*
X1839650000Y-607650000D01*
X2069200000Y-607250000D02*
X2095550000Y-607250000D01*
X1831430000Y-550470000D02*
X1848200000Y-550470000D01*
X2029800000Y-571810000D02*
X2028800000Y-572810000D01*
X1948800000Y-609900000D02*
X1947800000Y-610900000D01*
X2015300000Y-587050000D02*
X2034600000Y-587050000D01*
X2019450000Y-550470000D02*
X2038550000Y-550470000D01*
X1876550000Y-567600000D02*
X1896000000Y-567600000D01*
X1940100000Y-587050000D02*
X1940100000Y-590510000D01*
X1837150000Y-577900000D02*
X1836050000Y-579000000D01*
X1839650000Y-607250000D02*
X1871650000Y-607250000D01*
X1901150000Y-587050000D02*
X1919850000Y-587050000D01*
X1901150000Y-587050000D02*
X1901150000Y-590100000D01*
X1967600000Y-607250000D02*
X1986300000Y-607250000D01*
X2112170000Y-550470000D02*
X2114600000Y-552900000D01*
X2047750000Y-567600000D02*
X2067000000Y-567600000D01*
X1957750000Y-587050000D02*
X1977450000Y-587050000D01*
X1981200000Y-550470000D02*
X2000500000Y-550470000D01*
X1948350000Y-627350000D02*
X1949800000Y-628800000D01*
X1948800000Y-607250000D02*
X1967600000Y-607250000D01*
X1836050000Y-587850000D02*
X1836050000Y-590800000D01*
X1957750000Y-587050000D02*
X1957750000Y-590010000D01*
X2047750000Y-571360000D02*
X2048000000Y-571610000D01*
%TO.N,/R2*%
D20*
X1814302500Y-554560000D02*
X1947652500Y-554560000D01*
X2042902500Y-535510000D02*
X2100052500Y-535510000D01*
%TO.N,/R5*%
X1866690000Y-592660000D02*
X2100052500Y-592660000D01*
%TO.N,/R4*%
X1919077500Y-573610000D02*
X2100052500Y-573610000D01*
X1821446250Y-592660000D02*
X1847640000Y-592660000D01*
%TO.N,Net-(D36-K)*%
D19*
X1908150000Y-578350000D02*
X1905900000Y-580600000D01*
X1905900000Y-580600000D02*
X1905900000Y-580700000D01*
%TO.N,Net-(D49-K)*%
X1875700000Y-597750000D02*
X1871681677Y-597750000D01*
X1871681677Y-597750000D02*
X1866900000Y-602531677D01*
%TO.N,Net-(D58-K)*%
X2045950000Y-597750000D02*
X2040950000Y-602750000D01*
X2046100000Y-597750000D02*
X2045950000Y-597750000D01*
%TO.N,/R3*%
D20*
X1819065000Y-573610000D02*
X1900027500Y-573610000D01*
X1966702500Y-554560000D02*
X2100052500Y-554560000D01*
%TO.N,/R1*%
X1814302500Y-535510000D02*
X2023852500Y-535510000D01*
%TO.N,Net-(D35-K)*%
D19*
X1890300000Y-578600000D02*
X1888200000Y-580700000D01*
X1891400000Y-578600000D02*
X1890300000Y-578600000D01*
%TO.N,Net-(D72-K)*%
X2068250000Y-616469999D02*
X2070930001Y-619150000D01*
X2070930001Y-619150000D02*
X2072600000Y-619150000D01*
%TO.N,Net-(D69-K)*%
X2003850000Y-616470000D02*
X2006530000Y-619150000D01*
X2006530000Y-619150000D02*
X2008450000Y-619150000D01*
%TO.N,Net-(D57-K)*%
X2028750000Y-597750000D02*
X2028750000Y-599500000D01*
X2028750000Y-599500000D02*
X2025600000Y-602650000D01*
%TO.N,/R6*%
D20*
X1826208750Y-611710000D02*
X2054808750Y-611710000D01*
%TO.N,Net-(D66-K)*%
D19*
X1943100000Y-616469999D02*
X1943100000Y-617200000D01*
X1943100000Y-617200000D02*
X1940900000Y-619400000D01*
%TO.N,/R7*%
D20*
X2081002500Y-611710000D02*
X2100052500Y-611710000D01*
X1912350000Y-630760000D02*
X1816683750Y-630760000D01*
%TO.N,Net-(D56-K)*%
D19*
X2005050000Y-602300000D02*
X2005050000Y-602531676D01*
X2009600000Y-597750000D02*
X2005050000Y-602300000D01*
%TO.N,Net-(D53-K)*%
X1952150000Y-597750000D02*
X1947250000Y-602650000D01*
%TO.N,Net-(D50-K)*%
X1893050000Y-597750000D02*
X1888150000Y-602650000D01*
X1895450000Y-597750000D02*
X1893050000Y-597750000D01*
%TO.N,Net-(D65-K)*%
X1923780001Y-616469999D02*
X1921100000Y-619150000D01*
X1924550000Y-616469999D02*
X1923780001Y-616469999D01*
%TO.N,Net-(D70-K)*%
X2022850000Y-616469999D02*
X2023519999Y-616469999D01*
X2023519999Y-616469999D02*
X2026800000Y-619750000D01*
%TO.N,Net-(D67-K)*%
X1965823515Y-616373515D02*
X1968700000Y-619250000D01*
X1965823515Y-616326485D02*
X1965823515Y-616373515D01*
%TO.N,Net-(D55-K)*%
X1985350000Y-602399999D02*
X1985350000Y-602750000D01*
X1990000000Y-597749999D02*
X1985350000Y-602399999D01*
%TO.N,Net-(L29-DOUT)*%
X2054450000Y-555300000D02*
X2054635559Y-555114441D01*
X2054635559Y-555114441D02*
X2058454441Y-555114441D01*
X2058454441Y-555114441D02*
X2058600000Y-555260000D01*
%TO.N,Net-(D64-K)*%
X1905600000Y-616470000D02*
X1904339605Y-616470000D01*
X1904339605Y-616470000D02*
X1901485476Y-619324129D01*
%TO.N,Net-(D54-K)*%
X1971350000Y-597750000D02*
X1969031677Y-597750000D01*
X1969031677Y-597750000D02*
X1964250000Y-602531677D01*
%TO.N,Net-(D63-K)*%
X1885480000Y-616470000D02*
X1882800000Y-619150000D01*
X1886100000Y-616470000D02*
X1885480000Y-616470000D01*
%TO.N,Net-(D51-K)*%
X1914250000Y-597749999D02*
X1914250000Y-598600000D01*
X1914250000Y-598600000D02*
X1910150000Y-602700000D01*
%TO.N,Net-(L16-DOUT)*%
X1907650000Y-540270000D02*
X1907050000Y-540870000D01*
X1907050000Y-540870000D02*
X1838330000Y-540870000D01*
X1838330000Y-540870000D02*
X1837300000Y-541900000D01*
%TO.N,Net-(D52-K)*%
X1929500000Y-601800000D02*
X1929500000Y-602531676D01*
X1933550000Y-597750000D02*
X1929500000Y-601800000D01*
%TO.N,Net-(D71-K)*%
X2043600000Y-618100000D02*
X2041850000Y-616350000D01*
X2050300000Y-618100000D02*
X2043600000Y-618100000D01*
X2041850000Y-616350000D02*
X2041850000Y-616250000D01*
X2051350000Y-619150000D02*
X2050300000Y-618100000D01*
%TO.N,Net-(D68-K)*%
X1987300000Y-617949999D02*
X1985820000Y-616469999D01*
X1985820000Y-616469999D02*
X1984950000Y-616469999D01*
%TD*%
M02*
