%TF.GenerationSoftware,KiCad,Pcbnew,10.0.6*%
%TF.CreationDate,2026-10-10T12:28:00+05:30*%
%TF.ProjectId,tex,7465782e-6b69-4636-9164-5f7063625858,rev?*%
%TF.SameCoordinates,Original*%
%TF.FileFunction,Copper,L4,Bot*%
%TF.FilePolarity,Positive*%
%FSLAX46Y46*%
G04 Gerber Fmt 4.6, Leading zero omitted, Abs format (unit mm)*
G04 Created by KiCad (PCBNEW 10.0.6) date 2026-10-10 12:28:00*
%MOMM*%
%LPD*%
G01*
G04 APERTURE LIST*
G04 Aperture macros list*
%AMOutline5P*
0 Free polygon, 5 corners , with rotation*
0 The origin of the aperture is its center*
0 number of corners: always 5*
0 $1 to $10 corner X, Y*
0 $11 Rotation angle, in degrees counterclockwise*
0 create outline with 5 corners*
4,1,5,$1,$2,$3,$4,$5,$6,$7,$8,$9,$10,$1,$2,$11*%
%AMOutline6P*
0 Free polygon, 6 corners , with rotation*
0 The origin of the aperture is its center*
0 number of corners: always 6*
0 $1 to $12 corner X, Y*
0 $13 Rotation angle, in degrees counterclockwise*
0 create outline with 6 corners*
4,1,6,$1,$2,$3,$4,$5,$6,$7,$8,$9,$10,$11,$12,$1,$2,$13*%
%AMOutline7P*
0 Free polygon, 7 corners , with rotation*
0 The origin of the aperture is its center*
0 number of corners: always 7*
0 $1 to $14 corner X, Y*
0 $15 Rotation angle, in degrees counterclockwise*
0 create outline with 7 corners*
4,1,7,$1,$2,$3,$4,$5,$6,$7,$8,$9,$10,$11,$12,$13,$14,$1,$2,$15*%
%AMOutline8P*
0 Free polygon, 8 corners , with rotation*
0 The origin of the aperture is its center*
0 number of corners: always 8*
0 $1 to $16 corner X, Y*
0 $17 Rotation angle, in degrees counterclockwise*
0 create outline with 8 corners*
4,1,8,$1,$2,$3,$4,$5,$6,$7,$8,$9,$10,$11,$12,$13,$14,$15,$16,$1,$2,$17*%
G04 Aperture macros list end*
%TA.AperFunction,ComponentPad*%
%ADD10R,1.350000X1.350000*%
%TD*%
%TA.AperFunction,ComponentPad*%
%ADD11C,1.350000*%
%TD*%
%TA.AperFunction,SMDPad,CuDef*%
%ADD12R,0.300000X1.140000*%
%TD*%
%TA.AperFunction,SMDPad,CuDef*%
%ADD13R,0.500000X1.140000*%
%TD*%
%TA.AperFunction,ComponentPad*%
%ADD14O,1.000000X2.000000*%
%TD*%
%TA.AperFunction,ComponentPad*%
%ADD15O,1.000000X1.800000*%
%TD*%
%TA.AperFunction,ComponentPad*%
%ADD16C,0.600000*%
%TD*%
%TA.AperFunction,ComponentPad*%
%ADD17C,2.200000*%
%TD*%
%TA.AperFunction,SMDPad,CuDef*%
%ADD18R,0.800000X0.400000*%
%TD*%
%TA.AperFunction,SMDPad,CuDef*%
%ADD19R,0.400000X0.800000*%
%TD*%
%TA.AperFunction,HeatsinkPad*%
%ADD20R,1.200000X1.200000*%
%TD*%
%TA.AperFunction,HeatsinkPad*%
%ADD21Outline5P,-0.600000X0.600000X0.600000X0.600000X0.600000X-0.600000X-0.204000X-0.600000X-0.600000X-0.204000X0.000000*%
%TD*%
%TA.AperFunction,SMDPad,CuDef*%
%ADD22R,0.800000X0.800000*%
%TD*%
%TA.AperFunction,ViaPad*%
%ADD23C,0.500000*%
%TD*%
%TA.AperFunction,ViaPad*%
%ADD24C,0.600000*%
%TD*%
%TA.AperFunction,Conductor*%
%ADD25C,0.400000*%
%TD*%
%TA.AperFunction,Conductor*%
%ADD26C,0.200000*%
%TD*%
%TA.AperFunction,Conductor*%
%ADD27C,0.500000*%
%TD*%
%TA.AperFunction,Conductor*%
%ADD28C,0.250000*%
%TD*%
G04 APERTURE END LIST*
D10*
%TO.P,J1,1,Pin_1_1*%
%TO.N,Net-(J1-Pin_1)*%
X1893500000Y-637000000D03*
D11*
%TO.P,J1,2,Pin_2_2*%
%TO.N,Net-(J1-Pin_2)*%
X1893500000Y-635000000D03*
%TD*%
D12*
%TO.P,USB1,B8,SBU2_B8*%
%TO.N,unconnected-(USB1-SBU2-PadB8)*%
X1970840000Y-643090000D03*
%TO.P,USB1,B7,DN2_B7*%
%TO.N,/D-*%
X1969840000Y-643090000D03*
%TO.P,USB1,B6,DP2_B6*%
%TO.N,/D+*%
X1968340000Y-643090000D03*
%TO.P,USB1,B5,CC2_B5*%
%TO.N,Net-(USB1-CC2)*%
X1967340000Y-643090000D03*
D13*
%TO.P,USB1,A12,GND_A12*%
%TO.N,GND*%
X1965890000Y-643090000D03*
%TO.P,USB1,A9,VBUS_A9*%
%TO.N,+5V*%
X1966690000Y-643090000D03*
D12*
%TO.P,USB1,A8,SBU1_A8*%
%TO.N,unconnected-(USB1-SBU1-PadA8)*%
X1967840000Y-643090000D03*
%TO.P,USB1,A7,DN1_A7*%
%TO.N,/D-*%
X1968840000Y-643090000D03*
%TO.P,USB1,A6,DP1_A6*%
%TO.N,/D+*%
X1969340000Y-643090000D03*
%TO.P,USB1,A5,CC1_A5*%
%TO.N,Net-(USB1-CC1)*%
X1970340000Y-643090000D03*
D13*
%TO.P,USB1,A4,VBUS_A4*%
%TO.N,+5V*%
X1971490000Y-643090000D03*
%TO.P,USB1,A1,GND_A1*%
%TO.N,GND*%
X1972290000Y-643090000D03*
D14*
%TO.P,USB1,1,1_1*%
%TO.N,unconnected-(USB1-Pad1)*%
X1964770000Y-643650000D03*
D15*
X1964770000Y-647830000D03*
D14*
X1973410000Y-643650000D03*
D15*
X1973410000Y-647830000D03*
D16*
%TO.P,USB1,*%
%TO.N,*%
X1966200000Y-644150000D03*
X1971980000Y-644150000D03*
%TD*%
D17*
%TO.P,SW73,1,1_1*%
%TO.N,Net-(D61-K)*%
X2087352500Y-609170000D03*
%TO.P,SW73,2,2_2*%
%TO.N,/R7*%
X2081002500Y-611710000D03*
%TD*%
%TO.P,SW53,1,1_1*%
%TO.N,Net-(D41-K)*%
X1949240000Y-590120000D03*
%TO.P,SW53,2,2_2*%
%TO.N,/R5*%
X1942890000Y-592660000D03*
%TD*%
%TO.P,SW44,1,1_1*%
%TO.N,Net-(D32-K)*%
X2058777500Y-571070000D03*
%TO.P,SW44,2,2_2*%
%TO.N,/R4*%
X2052427500Y-573610000D03*
%TD*%
%TO.P,SW59,1,1_1*%
%TO.N,Net-(D47-K)*%
X2075446250Y-590120000D03*
%TO.P,SW59,2,2_2*%
%TO.N,/R5*%
X2069096250Y-592660000D03*
%TD*%
%TO.P,SW58,1,1_1*%
%TO.N,Net-(D46-K)*%
X2044490000Y-590120000D03*
%TO.P,SW58,2,2_2*%
%TO.N,/R5*%
X2038140000Y-592660000D03*
%TD*%
%TO.P,SW67,1,1_1*%
%TO.N,Net-(D55-K)*%
X1958765000Y-609170000D03*
%TO.P,SW67,2,2_2*%
%TO.N,/R6*%
X1952415000Y-611710000D03*
%TD*%
%TO.P,SW43,1,1_1*%
%TO.N,Net-(D31-K)*%
X2039727500Y-571070000D03*
%TO.P,SW43,2,2_2*%
%TO.N,/R4*%
X2033377500Y-573610000D03*
%TD*%
%TO.P,SW82,1,1_1*%
%TO.N,Net-(D70-K)*%
X2068302500Y-628220000D03*
%TO.P,SW82,2,2_2*%
%TO.N,/R7*%
X2061952500Y-630760000D03*
%TD*%
%TO.P,SW78,1,1_1*%
%TO.N,Net-(D66-K)*%
X1942096250Y-628220000D03*
%TO.P,SW78,2,2_2*%
%TO.N,/R7*%
X1935746250Y-630760000D03*
%TD*%
%TO.P,SW57,1,1_1*%
%TO.N,Net-(D45-K)*%
X2025440000Y-590120000D03*
%TO.P,SW57,2,2_2*%
%TO.N,/R5*%
X2019090000Y-592660000D03*
%TD*%
%TO.P,SW41,1,1_1*%
%TO.N,Net-(D29-K)*%
X2001627500Y-571070000D03*
%TO.P,SW41,2,2_2*%
%TO.N,/R4*%
X1995277500Y-573610000D03*
%TD*%
%TO.P,SW10,1,1_1*%
%TO.N,Net-(D10-A)*%
X1992102500Y-532970000D03*
%TO.P,SW10,2,2_2*%
%TO.N,/R1*%
X1985752500Y-535510000D03*
%TD*%
%TO.P,SW5,1,1_1*%
%TO.N,Net-(D5-A)*%
X1896852500Y-532970000D03*
%TO.P,SW5,2,2_2*%
%TO.N,/R1*%
X1890502500Y-535510000D03*
%TD*%
%TO.P,SW71,1,1_1*%
%TO.N,Net-(D59-K)*%
X2034965000Y-609170000D03*
%TO.P,SW71,2,2_2*%
%TO.N,/R6*%
X2028615000Y-611710000D03*
%TD*%
%TO.P,SW65,1,1_1*%
%TO.N,Net-(D53-K)*%
X1920665000Y-609170000D03*
%TO.P,SW65,2,2_2*%
%TO.N,/R6*%
X1914315000Y-611710000D03*
%TD*%
%TO.P,SW20,1,1_1*%
%TO.N,Net-(D20-A)*%
X1877802500Y-552020000D03*
%TO.P,SW20,2,2_2*%
%TO.N,/R2*%
X1871452500Y-554560000D03*
%TD*%
%TO.P,SW7,1,1_1*%
%TO.N,Net-(D7-A)*%
X1934952500Y-532970000D03*
%TO.P,SW7,2,2_2*%
%TO.N,/R1*%
X1928602500Y-535510000D03*
%TD*%
%TO.P,SW64,1,1_1*%
%TO.N,Net-(D52-K)*%
X1901615000Y-609170000D03*
%TO.P,SW64,2,2_2*%
%TO.N,/R6*%
X1895265000Y-611710000D03*
%TD*%
%TO.P,SW31,1,1_1*%
%TO.N,Net-(D19-K)*%
X2106402500Y-552020000D03*
%TO.P,SW31,2,2_2*%
%TO.N,/R3*%
X2100052500Y-554560000D03*
%TD*%
%TO.P,SW45,1,1_1*%
%TO.N,Net-(D33-K)*%
X2082590000Y-571070000D03*
%TO.P,SW45,2,2_2*%
%TO.N,/R4*%
X2076240000Y-573610000D03*
%TD*%
%TO.P,SW18,1,1_1*%
%TO.N,Net-(D18-A)*%
X1839702500Y-552020000D03*
%TO.P,SW18,2,2_2*%
%TO.N,/R2*%
X1833352500Y-554560000D03*
%TD*%
%TO.P,SW30,1,1_1*%
%TO.N,Net-(D18-K)*%
X2077827500Y-552020000D03*
%TO.P,SW30,2,2_2*%
%TO.N,/R3*%
X2071477500Y-554560000D03*
%TD*%
%TO.P,SW11,1,1_1*%
%TO.N,Net-(D11-A)*%
X2011152500Y-532970000D03*
%TO.P,SW11,2,2_2*%
%TO.N,/R1*%
X2004802500Y-535510000D03*
%TD*%
%TO.P,SW81,1,1_1*%
%TO.N,Net-(D69-K)*%
X2049252500Y-628220000D03*
%TO.P,SW81,2,2_2*%
%TO.N,/R7*%
X2042902500Y-630760000D03*
%TD*%
%TO.P,SW47,1,1_1*%
%TO.N,Net-(D35-K)*%
X1827796250Y-590120000D03*
%TO.P,SW47,2,2_2*%
%TO.N,/R4*%
X1821446250Y-592660000D03*
%TD*%
%TO.P,SW33,1,1_1*%
%TO.N,Net-(D21-K)*%
X1849227500Y-571070000D03*
%TO.P,SW33,2,2_2*%
%TO.N,/R3*%
X1842877500Y-573610000D03*
%TD*%
%TO.P,SW76,1,1_1*%
%TO.N,Net-(D64-K)*%
X1846846250Y-628220000D03*
%TO.P,SW76,2,2_2*%
%TO.N,/R7*%
X1840496250Y-630760000D03*
%TD*%
%TO.P,SW34,1,1_1*%
%TO.N,Net-(D22-K)*%
X1868277500Y-571070000D03*
%TO.P,SW34,2,2_2*%
%TO.N,/R3*%
X1861927500Y-573610000D03*
%TD*%
%TO.P,SW3,1,1_1*%
%TO.N,Net-(D3-A)*%
X1858752500Y-532970000D03*
%TO.P,SW3,2,2_2*%
%TO.N,/R1*%
X1852402500Y-535510000D03*
%TD*%
%TO.P,SW56,1,1_1*%
%TO.N,Net-(D44-K)*%
X2006390000Y-590120000D03*
%TO.P,SW56,2,2_2*%
%TO.N,/R5*%
X2000040000Y-592660000D03*
%TD*%
%TO.P,SW6,1,1_1*%
%TO.N,Net-(D6-A)*%
X1915902500Y-532970000D03*
%TO.P,SW6,2,2_2*%
%TO.N,/R1*%
X1909552500Y-535510000D03*
%TD*%
%TO.P,SW83,1,1_1*%
%TO.N,Net-(D71-K)*%
X2087352500Y-628220000D03*
%TO.P,SW83,2,2_2*%
%TO.N,/R7*%
X2081002500Y-630760000D03*
%TD*%
%TO.P,SW66,1,1_1*%
%TO.N,Net-(D54-K)*%
X1939715000Y-609170000D03*
%TO.P,SW66,2,2_2*%
%TO.N,/R6*%
X1933365000Y-611710000D03*
%TD*%
%TO.P,SW9,1,1_1*%
%TO.N,Net-(D9-A)*%
X1973052500Y-532970000D03*
%TO.P,SW9,2,2_2*%
%TO.N,/R1*%
X1966702500Y-535510000D03*
%TD*%
%TO.P,SW84,1,1_1*%
%TO.N,Net-(D72-K)*%
X2106402500Y-628220000D03*
%TO.P,SW84,2,2_2*%
%TO.N,/R7*%
X2100052500Y-630760000D03*
%TD*%
%TO.P,SW22,1,1_1*%
%TO.N,Net-(D10-K)*%
X1915902500Y-552020000D03*
%TO.P,SW22,2,2_2*%
%TO.N,/R2*%
X1909552500Y-554560000D03*
%TD*%
%TO.P,SW60,1,1_1*%
%TO.N,Net-(D48-K)*%
X2106402500Y-590120000D03*
%TO.P,SW60,2,2_2*%
%TO.N,/R5*%
X2100052500Y-592660000D03*
%TD*%
%TO.P,SW17,1,1_1*%
%TO.N,Net-(D17-A)*%
X1820652500Y-552020000D03*
%TO.P,SW17,2,2_2*%
%TO.N,/R2*%
X1814302500Y-554560000D03*
%TD*%
%TO.P,SW39,1,1_1*%
%TO.N,Net-(D27-K)*%
X1963527500Y-571070000D03*
%TO.P,SW39,2,2_2*%
%TO.N,/R4*%
X1957177500Y-573610000D03*
%TD*%
%TO.P,SW40,1,1_1*%
%TO.N,Net-(D28-K)*%
X1982577500Y-571070000D03*
%TO.P,SW40,2,2_2*%
%TO.N,/R4*%
X1976227500Y-573610000D03*
%TD*%
%TO.P,SW74,1,1_1*%
%TO.N,Net-(D62-K)*%
X2106402500Y-609170000D03*
%TO.P,SW74,2,2_2*%
%TO.N,/R7*%
X2100052500Y-611710000D03*
%TD*%
%TO.P,SW55,1,1_1*%
%TO.N,Net-(D43-K)*%
X1987340000Y-590120000D03*
%TO.P,SW55,2,2_2*%
%TO.N,/R5*%
X1980990000Y-592660000D03*
%TD*%
%TO.P,SW68,1,1_1*%
%TO.N,Net-(D56-K)*%
X1977815000Y-609170000D03*
%TO.P,SW68,2,2_2*%
%TO.N,/R6*%
X1971465000Y-611710000D03*
%TD*%
%TO.P,SW54,1,1_1*%
%TO.N,Net-(D42-K)*%
X1968290000Y-590120000D03*
%TO.P,SW54,2,2_2*%
%TO.N,/R5*%
X1961940000Y-592660000D03*
%TD*%
%TO.P,SW72,1,1_1*%
%TO.N,Net-(D60-K)*%
X2061158750Y-609170000D03*
%TO.P,SW72,2,2_2*%
%TO.N,/R6*%
X2054808750Y-611710000D03*
%TD*%
%TO.P,SW27,1,1_1*%
%TO.N,Net-(D15-K)*%
X2011152500Y-552020000D03*
%TO.P,SW27,2,2_2*%
%TO.N,/R3*%
X2004802500Y-554560000D03*
%TD*%
%TO.P,SW62,1,1_1*%
%TO.N,Net-(D50-K)*%
X1863515000Y-609170000D03*
%TO.P,SW62,2,2_2*%
%TO.N,/R6*%
X1857165000Y-611710000D03*
%TD*%
%TO.P,SW35,1,1_1*%
%TO.N,Net-(D23-K)*%
X1887327500Y-571070000D03*
%TO.P,SW35,2,2_2*%
%TO.N,/R3*%
X1880977500Y-573610000D03*
%TD*%
%TO.P,SW8,1,1_1*%
%TO.N,Net-(D8-A)*%
X1954002500Y-532970000D03*
%TO.P,SW8,2,2_2*%
%TO.N,/R1*%
X1947652500Y-535510000D03*
%TD*%
%TO.P,SW49,1,1_1*%
%TO.N,Net-(D37-K)*%
X1873040000Y-590120000D03*
%TO.P,SW49,2,2_2*%
%TO.N,/R5*%
X1866690000Y-592660000D03*
%TD*%
%TO.P,SW63,1,1_1*%
%TO.N,Net-(D51-K)*%
X1882565000Y-609170000D03*
%TO.P,SW63,2,2_2*%
%TO.N,/R6*%
X1876215000Y-611710000D03*
%TD*%
%TO.P,SW32,1,1_1*%
%TO.N,Net-(D20-K)*%
X1825415000Y-571070000D03*
%TO.P,SW32,2,2_2*%
%TO.N,/R3*%
X1819065000Y-573610000D03*
%TD*%
%TO.P,SW80,1,1_1*%
%TO.N,Net-(D68-K)*%
X2030202500Y-628220000D03*
%TO.P,SW80,2,2_2*%
%TO.N,/R7*%
X2023852500Y-630760000D03*
%TD*%
%TO.P,SW14,1,1_1*%
%TO.N,Net-(D14-A)*%
X2068302500Y-532970000D03*
%TO.P,SW14,2,2_2*%
%TO.N,/R2*%
X2061952500Y-535510000D03*
%TD*%
%TO.P,SW51,1,1_1*%
%TO.N,Net-(D39-K)*%
X1911140000Y-590120000D03*
%TO.P,SW51,2,2_2*%
%TO.N,/R5*%
X1904790000Y-592660000D03*
%TD*%
%TO.P,SW69,1,1_1*%
%TO.N,Net-(D57-K)*%
X1996865000Y-609170000D03*
%TO.P,SW69,2,2_2*%
%TO.N,/R6*%
X1990515000Y-611710000D03*
%TD*%
%TO.P,SW13,1,1_1*%
%TO.N,Net-(D1-K)*%
X2049252500Y-532970000D03*
%TO.P,SW13,2,2_2*%
%TO.N,/R2*%
X2042902500Y-535510000D03*
%TD*%
%TO.P,SW42,1,1_1*%
%TO.N,Net-(D30-K)*%
X2020677500Y-571070000D03*
%TO.P,SW42,2,2_2*%
%TO.N,/R4*%
X2014327500Y-573610000D03*
%TD*%
%TO.P,SW16,1,1_1*%
%TO.N,Net-(D16-A)*%
X2106402500Y-532970000D03*
%TO.P,SW16,2,2_2*%
%TO.N,/R2*%
X2100052500Y-535510000D03*
%TD*%
%TO.P,SW70,1,1_1*%
%TO.N,Net-(D58-K)*%
X2015915000Y-609170000D03*
%TO.P,SW70,2,2_2*%
%TO.N,/R6*%
X2009565000Y-611710000D03*
%TD*%
%TO.P,SW28,1,1_1*%
%TO.N,Net-(D16-K)*%
X2030202500Y-552020000D03*
%TO.P,SW28,2,2_2*%
%TO.N,/R3*%
X2023852500Y-554560000D03*
%TD*%
%TO.P,SW24,1,1_1*%
%TO.N,Net-(D12-K)*%
X1954002500Y-552020000D03*
%TO.P,SW24,2,2_2*%
%TO.N,/R2*%
X1947652500Y-554560000D03*
%TD*%
%TO.P,SW1,1,1_1*%
%TO.N,Net-(D1-A)*%
X1820652500Y-532970000D03*
%TO.P,SW1,2,2_2*%
%TO.N,/R1*%
X1814302500Y-535510000D03*
%TD*%
%TO.P,SW12,1,1_1*%
%TO.N,Net-(D12-A)*%
X2030202500Y-532970000D03*
%TO.P,SW12,2,2_2*%
%TO.N,/R1*%
X2023852500Y-535510000D03*
%TD*%
%TO.P,SW52,1,1_1*%
%TO.N,Net-(D40-K)*%
X1930190000Y-590120000D03*
%TO.P,SW52,2,2_2*%
%TO.N,/R5*%
X1923840000Y-592660000D03*
%TD*%
%TO.P,SW77,1,1_1*%
%TO.N,Net-(D65-K)*%
X1870658750Y-628220000D03*
%TO.P,SW77,2,2_2*%
%TO.N,/R7*%
X1864308750Y-630760000D03*
%TD*%
%TO.P,SW50,1,1_1*%
%TO.N,Net-(D38-K)*%
X1892090000Y-590120000D03*
%TO.P,SW50,2,2_2*%
%TO.N,/R5*%
X1885740000Y-592660000D03*
%TD*%
%TO.P,SW2,1,1_1*%
%TO.N,Net-(D2-A)*%
X1839702500Y-532970000D03*
%TO.P,SW2,2,2_2*%
%TO.N,/R1*%
X1833352500Y-535510000D03*
%TD*%
%TO.P,SW61,1,1_1*%
%TO.N,Net-(D49-K)*%
X1832558750Y-609170000D03*
%TO.P,SW61,2,2_2*%
%TO.N,/R6*%
X1826208750Y-611710000D03*
%TD*%
%TO.P,SW38,1,1_1*%
%TO.N,Net-(D26-K)*%
X1944477500Y-571070000D03*
%TO.P,SW38,2,2_2*%
%TO.N,/R4*%
X1938127500Y-573610000D03*
%TD*%
%TO.P,SW21,1,1_1*%
%TO.N,Net-(D21-A)*%
X1896852500Y-552020000D03*
%TO.P,SW21,2,2_2*%
%TO.N,/R2*%
X1890502500Y-554560000D03*
%TD*%
%TO.P,SW15,1,1_1*%
%TO.N,Net-(D15-A)*%
X2087352500Y-532970000D03*
%TO.P,SW15,2,2_2*%
%TO.N,/R2*%
X2081002500Y-535510000D03*
%TD*%
%TO.P,SW48,1,1_1*%
%TO.N,Net-(D36-K)*%
X1853990000Y-590120000D03*
%TO.P,SW48,2,2_2*%
%TO.N,/R4*%
X1847640000Y-592660000D03*
%TD*%
%TO.P,SW25,1,1_1*%
%TO.N,Net-(D13-K)*%
X1973052500Y-552020000D03*
%TO.P,SW25,2,2_2*%
%TO.N,/R3*%
X1966702500Y-554560000D03*
%TD*%
%TO.P,SW19,1,1_1*%
%TO.N,Net-(D19-A)*%
X1858752500Y-552020000D03*
%TO.P,SW19,2,2_2*%
%TO.N,/R2*%
X1852402500Y-554560000D03*
%TD*%
%TO.P,SW26,1,1_1*%
%TO.N,Net-(D14-K)*%
X1992102500Y-552020000D03*
%TO.P,SW26,2,2_2*%
%TO.N,/R3*%
X1985752500Y-554560000D03*
%TD*%
%TO.P,SW4,1,1_1*%
%TO.N,Net-(D4-A)*%
X1877802500Y-532970000D03*
%TO.P,SW4,2,2_2*%
%TO.N,/R1*%
X1871452500Y-535510000D03*
%TD*%
%TO.P,SW23,1,1_1*%
%TO.N,Net-(D11-K)*%
X1934952500Y-552020000D03*
%TO.P,SW23,2,2_2*%
%TO.N,/R2*%
X1928602500Y-554560000D03*
%TD*%
%TO.P,SW36,1,1_1*%
%TO.N,Net-(D24-K)*%
X1906377500Y-571070000D03*
%TO.P,SW36,2,2_2*%
%TO.N,/R3*%
X1900027500Y-573610000D03*
%TD*%
%TO.P,SW37,1,1_1*%
%TO.N,Net-(D25-K)*%
X1925427500Y-571070000D03*
%TO.P,SW37,2,2_2*%
%TO.N,/R4*%
X1919077500Y-573610000D03*
%TD*%
%TO.P,SW79,1,1_1*%
%TO.N,Net-(D67-K)*%
X2011152500Y-628220000D03*
%TO.P,SW79,2,2_2*%
%TO.N,/R7*%
X2004802500Y-630760000D03*
%TD*%
%TO.P,SW75,1,1_1*%
%TO.N,Net-(D63-K)*%
X1823033750Y-628220000D03*
%TO.P,SW75,2,2_2*%
%TO.N,/R7*%
X1816683750Y-630760000D03*
%TD*%
%TO.P,SW29,1,1_1*%
%TO.N,Net-(D17-K)*%
X2049252500Y-552020000D03*
%TO.P,SW29,2,2_2*%
%TO.N,/R3*%
X2042902500Y-554560000D03*
%TD*%
%TO.P,SW46,1,1_1*%
%TO.N,Net-(D34-K)*%
X2106402500Y-571070000D03*
%TO.P,SW46,2,2_2*%
%TO.N,/R4*%
X2100052500Y-573610000D03*
%TD*%
D18*
%TO.P,U1,1,GND_1*%
%TO.N,GND*%
X1899700000Y-642650000D03*
%TO.P,U1,2,GND_2*%
X1899700000Y-641800000D03*
%TO.P,U1,3,3V3_3*%
%TO.N,unconnected-(U1-3V3-Pad3)*%
X1899700000Y-640950000D03*
%TO.P,U1,4,IO0_4*%
%TO.N,Net-(J1-Pin_1)*%
X1899700000Y-640100000D03*
%TO.P,U1,5,IO1_5*%
%TO.N,/C1*%
X1899700000Y-639250000D03*
%TO.P,U1,6,IO2_6*%
%TO.N,/C2*%
X1899700000Y-638400000D03*
%TO.P,U1,7,IO3_7*%
%TO.N,unconnected-(U1-IO3-Pad7)*%
X1899700000Y-637550000D03*
%TO.P,U1,8,IO4_8*%
%TO.N,/C3*%
X1899700000Y-636700000D03*
%TO.P,U1,9,IO5_9*%
%TO.N,/C4*%
X1899700000Y-635850000D03*
%TO.P,U1,10,IO6_10*%
%TO.N,/C5*%
X1899700000Y-635000000D03*
%TO.P,U1,11,IO7_11*%
%TO.N,/C6*%
X1899700000Y-634150000D03*
%TO.P,U1,12,IO8_12*%
%TO.N,/C7*%
X1899700000Y-633300000D03*
%TO.P,U1,13,IO9_13*%
%TO.N,/C8*%
X1899700000Y-632450000D03*
%TO.P,U1,14,IO10_14*%
%TO.N,/C9*%
X1899700000Y-631600000D03*
%TO.P,U1,15,IO11_15*%
%TO.N,/C10*%
X1899700000Y-630750000D03*
D19*
%TO.P,U1,16,IO12_16*%
%TO.N,/C11*%
X1900750000Y-629700000D03*
%TO.P,U1,17,IO13_17*%
%TO.N,/C12*%
X1901600000Y-629700000D03*
%TO.P,U1,18,IO14_18*%
%TO.N,/R1*%
X1902450000Y-629700000D03*
%TO.P,U1,19,IO15_19*%
%TO.N,/R2*%
X1903300000Y-629700000D03*
%TO.P,U1,20,IO16_20*%
%TO.N,/R3*%
X1904150000Y-629700000D03*
%TO.P,U1,21,IO17_21*%
%TO.N,/R4*%
X1905000000Y-629700000D03*
%TO.P,U1,22,IO18_22*%
%TO.N,/R5*%
X1905850000Y-629700000D03*
%TO.P,U1,23,USB_D-_23*%
%TO.N,/D-*%
X1906700000Y-629700000D03*
%TO.P,U1,24,USB_D+_24*%
%TO.N,/D+*%
X1907550000Y-629700000D03*
%TO.P,U1,25,IO21_25*%
%TO.N,/R6*%
X1908400000Y-629700000D03*
%TO.P,U1,26,IO26_26*%
%TO.N,unconnected-(U1-IO26-Pad26)*%
X1909250000Y-629700000D03*
%TO.P,U1,27,IO47_27*%
%TO.N,unconnected-(U1-IO47-Pad27)*%
X1910100000Y-629700000D03*
%TO.P,U1,28,IO33_28*%
%TO.N,unconnected-(U1-IO33-Pad28)*%
X1910950000Y-629700000D03*
%TO.P,U1,29,IO34_29*%
%TO.N,unconnected-(U1-IO34-Pad29)*%
X1911800000Y-629700000D03*
%TO.P,U1,30,IO48_30*%
%TO.N,/R7*%
X1912650000Y-629700000D03*
D18*
%TO.P,U1,31,IO35_31*%
%TO.N,unconnected-(U1-IO35-Pad31)*%
X1913700000Y-630750000D03*
%TO.P,U1,32,IO36_32*%
%TO.N,unconnected-(U1-IO36-Pad32)*%
X1913700000Y-631600000D03*
%TO.P,U1,33,IO37_33*%
%TO.N,unconnected-(U1-IO37-Pad33)*%
X1913700000Y-632450000D03*
%TO.P,U1,34,IO38_34*%
%TO.N,unconnected-(U1-IO38-Pad34)*%
X1913700000Y-633300000D03*
%TO.P,U1,35,IO39_35*%
%TO.N,unconnected-(U1-IO39-Pad35)*%
X1913700000Y-634150000D03*
%TO.P,U1,36,IO40_36*%
%TO.N,unconnected-(U1-IO40-Pad36)*%
X1913700000Y-635000000D03*
%TO.P,U1,37,IO41_37*%
%TO.N,unconnected-(U1-IO41-Pad37)*%
X1913700000Y-635850000D03*
%TO.P,U1,38,IO42_38*%
%TO.N,/GPIO42*%
X1913700000Y-636700000D03*
%TO.P,U1,39,TXD0_39*%
%TO.N,unconnected-(U1-TXD0-Pad39)*%
X1913700000Y-637550000D03*
%TO.P,U1,40,RXD0_40*%
%TO.N,unconnected-(U1-RXD0-Pad40)*%
X1913700000Y-638400000D03*
%TO.P,U1,41,IO45_41*%
%TO.N,unconnected-(U1-IO45-Pad41)*%
X1913700000Y-639250000D03*
%TO.P,U1,42,GND_42*%
%TO.N,GND*%
X1913700000Y-640100000D03*
%TO.P,U1,43,GND_43*%
X1913700000Y-640950000D03*
%TO.P,U1,44,IO46_44*%
%TO.N,unconnected-(U1-IO46-Pad44)*%
X1913700000Y-641800000D03*
%TO.P,U1,45,EN_45*%
%TO.N,unconnected-(U1-EN-Pad45)*%
X1913700000Y-642650000D03*
D19*
%TO.P,U1,46,GND_46*%
%TO.N,GND*%
X1912650000Y-643700000D03*
%TO.P,U1,47,GND_47*%
X1911800000Y-643700000D03*
%TO.P,U1,48,GND_48*%
X1910950000Y-643700000D03*
%TO.P,U1,49,GND_49*%
X1910100000Y-643700000D03*
%TO.P,U1,50,GND_50*%
X1909250000Y-643700000D03*
%TO.P,U1,51,GND_51*%
X1908400000Y-643700000D03*
%TO.P,U1,52,GND_52*%
X1907550000Y-643700000D03*
%TO.P,U1,53,GND_53*%
X1906700000Y-643700000D03*
%TO.P,U1,54,GND_54*%
X1905850000Y-643700000D03*
%TO.P,U1,55,GND_55*%
X1905000000Y-643700000D03*
%TO.P,U1,56,GND_56*%
X1904150000Y-643700000D03*
%TO.P,U1,57,GND_57*%
X1903300000Y-643700000D03*
%TO.P,U1,58,GND_58*%
X1902450000Y-643700000D03*
%TO.P,U1,59,GND_59*%
X1901600000Y-643700000D03*
%TO.P,U1,60,GND_60*%
X1900750000Y-643700000D03*
D20*
%TO.P,U1,61,GND_61*%
X1905050000Y-635050000D03*
X1905050000Y-636700000D03*
D21*
X1905050000Y-638350000D03*
D20*
X1906700000Y-635050000D03*
X1906700000Y-636700000D03*
X1906700000Y-638350000D03*
X1908350000Y-635050000D03*
X1908350000Y-636700000D03*
X1908350000Y-638350000D03*
D22*
%TO.P,U1,62,GND_62*%
X1899700000Y-643700000D03*
%TO.P,U1,63,GND_63*%
X1899700000Y-629700000D03*
%TO.P,U1,64,GND_64*%
X1913700000Y-629700000D03*
%TO.P,U1,65,GND_65*%
X1913700000Y-643700000D03*
%TD*%
D23*
%TO.N,/R6*%
X1912350000Y-616500000D03*
%TO.N,/D+*%
X1967625000Y-641575000D03*
%TO.N,Net-(L80-DOUT)*%
X2055551808Y-632702465D03*
%TO.N,/C2*%
X2101850000Y-625500000D03*
%TO.N,/R7*%
X1912750000Y-628450000D03*
%TO.N,/C1*%
X2094450000Y-620900000D03*
%TO.N,/R7*%
X2098950000Y-622169055D03*
D24*
%TO.N,GND*%
X1915400000Y-629800000D03*
D23*
%TO.N,Net-(L83-DOUT)*%
X2110350000Y-629650000D03*
%TO.N,/R3*%
X1899050000Y-621200000D03*
X1904434620Y-628684620D03*
D24*
%TO.N,GND*%
X1913850000Y-627850000D03*
X1897950000Y-629750000D03*
X1899500000Y-628000000D03*
D23*
%TO.N,/C12*%
X1901700000Y-628100000D03*
%TO.N,Net-(L81-DOUT)*%
X2075400000Y-632950000D03*
%TO.N,Net-(L82-DOUT)*%
X2074350000Y-629630101D03*
%TO.N,/D+*%
X1964884835Y-640915165D03*
%TO.N,/C11*%
X2091600000Y-635300000D03*
%TO.N,/C7*%
X1910612183Y-631409999D03*
%TO.N,/R3*%
X1900200000Y-578650000D03*
X1901350000Y-616520000D03*
%TO.N,/R6*%
X1908700000Y-628500000D03*
%TO.N,/C2*%
X2108300000Y-618000000D03*
X1904001532Y-637712888D03*
%TO.N,/C1*%
X2094150000Y-616200000D03*
%TO.N,/R5*%
X1900700000Y-622169055D03*
%TO.N,/C11*%
X1903184065Y-631491221D03*
%TO.N,Net-(L75-DOUT)*%
X1829050000Y-629750000D03*
%TO.N,/D-*%
X1967625000Y-640825000D03*
%TO.N,/C3*%
X1896950000Y-636500000D03*
%TO.N,/C4*%
X1897056440Y-635808138D03*
%TO.N,/R5*%
X1894650000Y-616520000D03*
%TO.N,/C9*%
X2052950000Y-635300000D03*
%TO.N,Net-(L83-DOUT)*%
X2093950000Y-629500000D03*
%TO.N,Net-(L82-DOUT)*%
X2094750000Y-632500000D03*
%TO.N,Net-(L80-DOUT)*%
X2035487610Y-631410000D03*
%TO.N,/R3*%
X1900750000Y-606450000D03*
X1898350000Y-587900000D03*
%TO.N,/C5*%
X1898600000Y-635300000D03*
%TO.N,/R4*%
X1876950000Y-616520000D03*
%TO.N,Net-(L77-DOUT)*%
X1915100000Y-640350000D03*
%TO.N,Net-(L78-DOUT)*%
X1953100000Y-625350000D03*
%TO.N,Net-(L79-DOUT)*%
X2036850000Y-632800000D03*
X2016223243Y-631409999D03*
%TO.N,/C11*%
X2073700000Y-633700000D03*
%TO.N,Net-(L76-DOUT)*%
X1878500000Y-633100000D03*
%TO.N,Net-(L77-DOUT)*%
X1875881375Y-631418625D03*
%TO.N,/C8*%
X2033700000Y-635050000D03*
%TO.N,Net-(L77-DOUT)*%
X1949400000Y-632950000D03*
%TO.N,/C8*%
X1901600000Y-632700000D03*
%TO.N,/C5*%
X1877450000Y-635100000D03*
%TO.N,Net-(L81-DOUT)*%
X2061850000Y-628810000D03*
%TO.N,Net-(L75-DOUT)*%
X1853722873Y-633227127D03*
%TO.N,Net-(L78-DOUT)*%
X2019050000Y-632750000D03*
%TO.N,/R4*%
X1905300000Y-628450000D03*
X1891750000Y-597600000D03*
X1903300000Y-626400000D03*
%TO.N,/C10*%
X2071550000Y-635570000D03*
%TO.N,/C6*%
X1909800000Y-633000000D03*
%TO.N,/C12*%
X2110550000Y-635000000D03*
%TO.N,Net-(L78-DOUT)*%
X1950150000Y-628100000D03*
%TO.N,/R4*%
X1882600000Y-621850000D03*
%TO.N,/C9*%
X1902125710Y-632237796D03*
%TO.N,Net-(L76-DOUT)*%
X1851905744Y-631409999D03*
%TO.N,/R5*%
X1905994597Y-628536825D03*
%TO.N,/R3*%
X1898650000Y-585100000D03*
D24*
%TO.N,GND*%
X1827650000Y-536600000D03*
X1889470774Y-612799202D03*
X1941947464Y-536506972D03*
%TO.N,Net-(L1-DOUT)*%
X1825700000Y-534450000D03*
X1847350000Y-537350000D03*
%TO.N,GND*%
X1846684381Y-536593195D03*
X1972250000Y-641950000D03*
X1856000000Y-574400000D03*
X1979750112Y-536299741D03*
X1975310600Y-593800000D03*
X1970406776Y-574750000D03*
X1807150000Y-533500000D03*
X1893950000Y-631876482D03*
X2094300000Y-536400000D03*
X2056271805Y-631911758D03*
X1937191358Y-593870221D03*
X2046722673Y-574709362D03*
X2018102038Y-631994068D03*
X1965713794Y-612883864D03*
X2032440051Y-593880887D03*
X1899070712Y-593800000D03*
X2056285496Y-555714441D03*
X1918131737Y-593870221D03*
X1903849052Y-536654437D03*
X1834658996Y-593764889D03*
X2037243665Y-555685182D03*
X2075363482Y-536640828D03*
X1894371174Y-574821796D03*
X2037026851Y-536373149D03*
X1960850000Y-536350000D03*
X1984825007Y-612866932D03*
X1877550000Y-631876482D03*
X1830097837Y-631970551D03*
X2084864629Y-555685182D03*
X2003852236Y-612900797D03*
X1966000000Y-641900000D03*
X1827570512Y-555685182D03*
X1941972478Y-555685182D03*
X1965500000Y-646300000D03*
X1884760410Y-536634023D03*
X2008636247Y-574750000D03*
X1994300000Y-593800000D03*
X2013275097Y-593880887D03*
X1875316988Y-574760840D03*
X1860916359Y-593694667D03*
X2113407977Y-612850000D03*
X1846758639Y-555743700D03*
X1972450000Y-646300000D03*
X2089584024Y-574750000D03*
X1908531190Y-612765338D03*
X2075280258Y-632029344D03*
X1960985051Y-555714441D03*
X1853557507Y-631888241D03*
X2082352355Y-593845776D03*
X2018100000Y-536350000D03*
X2094300000Y-631900000D03*
X2113439240Y-536661242D03*
X1922930647Y-555772959D03*
X2068126112Y-612934661D03*
X1884727607Y-555714441D03*
X1907700000Y-640500000D03*
X1865684605Y-555685182D03*
X2041956814Y-612850000D03*
X1880081313Y-593800000D03*
X1989480467Y-574729681D03*
X2018112886Y-555655923D03*
X1903800000Y-555350000D03*
X2027689619Y-574709362D03*
X2113413332Y-555655923D03*
X2113419926Y-631893623D03*
X1951372910Y-574770318D03*
X1913364403Y-574781159D03*
X1839500000Y-612850000D03*
X1870426612Y-612816135D03*
X1807050000Y-536250000D03*
X2022895721Y-612934661D03*
X1932418588Y-574760840D03*
X1999128402Y-555685182D03*
X2056191722Y-536462715D03*
X1832350000Y-574750000D03*
X2113452147Y-574689043D03*
X1949050000Y-631600000D03*
X1927710810Y-612883864D03*
X2051464561Y-593845776D03*
X1998900000Y-536250000D03*
X2065756540Y-574729681D03*
X1922850000Y-536300000D03*
X2113400000Y-593850000D03*
X1956085601Y-593739953D03*
X1865807319Y-536593195D03*
X2037145296Y-631935275D03*
X2094313696Y-612833067D03*
X1946703497Y-612866932D03*
X1980114659Y-555655923D03*
%TO.N,+5V*%
X2057500000Y-550470000D03*
X1933750000Y-572810000D03*
X1963050000Y-531420000D03*
X1858450000Y-572900000D03*
X2077600000Y-531420000D03*
X1867350000Y-531420000D03*
X1847950000Y-552550000D03*
X1896350000Y-572600000D03*
X1905800000Y-531420000D03*
X1981150000Y-553760000D03*
X1837680945Y-612469046D03*
X2114050000Y-590800000D03*
X1962100000Y-553760000D03*
X2052850000Y-590660000D03*
X1900700000Y-590550000D03*
X1905000000Y-552560000D03*
X2038550000Y-550470000D03*
X2057250000Y-629600000D03*
X1885800000Y-553760000D03*
X1944400000Y-531420000D03*
X2004950000Y-610900000D03*
X1849050000Y-531420000D03*
X2075950000Y-628950000D03*
X1829400000Y-534710000D03*
X1837150000Y-577900000D03*
X2069100000Y-610850000D03*
X1871250000Y-610900000D03*
X1831500000Y-629050000D03*
X1881050000Y-590660000D03*
X2000150000Y-553800000D03*
X2090450000Y-571610000D03*
X1995550000Y-591860000D03*
X1957100000Y-590660000D03*
X2113950000Y-572150000D03*
X1854650000Y-629250000D03*
X1890750000Y-610910000D03*
X1981550000Y-531420000D03*
X2034100000Y-589350000D03*
X2114150000Y-609450000D03*
X1878050000Y-629350000D03*
X2020300000Y-531420000D03*
X1829550000Y-552350000D03*
X1990650000Y-572810000D03*
X1964800000Y-628850000D03*
X2095300000Y-610910000D03*
X1909950000Y-610910000D03*
X1928600000Y-610910000D03*
X1887700000Y-531420000D03*
X2014700000Y-590660000D03*
X1976650000Y-590650000D03*
X2114350000Y-534100000D03*
X1973650000Y-628150000D03*
X2114500000Y-629100000D03*
X2043150000Y-610900000D03*
X1839650000Y-597450000D03*
X1925200000Y-531420000D03*
X1877150000Y-572910000D03*
X2095550000Y-629150000D03*
X1952500000Y-572810000D03*
X2024050000Y-611009999D03*
X1924200000Y-552560000D03*
X2001200000Y-531420000D03*
X2039050000Y-531420000D03*
X1967050000Y-610910000D03*
X2066800000Y-571610000D03*
X1947800000Y-610900000D03*
X1830400000Y-567600000D03*
X2018550000Y-629650000D03*
X2048000000Y-571610000D03*
X2037800000Y-629650000D03*
X2096350000Y-531420000D03*
X1840900000Y-608900000D03*
X1915550000Y-573070000D03*
X2058050000Y-531420000D03*
X1943150000Y-553760000D03*
X1866850000Y-553760000D03*
X1985650000Y-610900000D03*
X1949800000Y-628800000D03*
X1823100000Y-532600000D03*
X2086865735Y-550435735D03*
X1836050000Y-590800000D03*
X2083650000Y-591860000D03*
X1938750000Y-591860000D03*
X2010200000Y-571610000D03*
X1862150000Y-591800000D03*
X2028800000Y-572810000D03*
X1919650000Y-589520000D03*
X1971600000Y-571150000D03*
X2019250000Y-553760000D03*
%TO.N,Net-(D21-K)*%
X1900550000Y-559950000D03*
%TO.N,Net-(D70-K)*%
X2022850000Y-616469999D03*
X2026800000Y-619750000D03*
%TO.N,Net-(D67-K)*%
X1968700000Y-619250000D03*
X1965823515Y-616326485D03*
%TO.N,Net-(D42-K)*%
X2002150000Y-585300000D03*
%TO.N,Net-(L73-DOUT)*%
X2114250000Y-613650000D03*
X2094550000Y-610450000D03*
%TO.N,Net-(D25-K)*%
X1976050000Y-559950000D03*
%TO.N,Net-(L11-DOUT)*%
X2017750000Y-534350000D03*
X2037900000Y-537750000D03*
%TO.N,Net-(L10-DOUT)*%
X2019050000Y-537500000D03*
X1998650000Y-534050000D03*
%TO.N,Net-(D40-K)*%
X1965900000Y-585050000D03*
%TO.N,Net-(L35-DOUT)*%
X1914200000Y-575650000D03*
X1897800000Y-572800000D03*
%TO.N,Net-(L34-DOUT)*%
X1895250000Y-575700000D03*
X1875100000Y-572250000D03*
%TO.N,Net-(D47-K)*%
X2051550000Y-598350000D03*
X2082200000Y-597250000D03*
%TO.N,/EOS6*%
X2094850000Y-613700000D03*
X2068400000Y-610250000D03*
%TO.N,Net-(L71-DOUT)*%
X2041650000Y-610300000D03*
X2069000000Y-613800000D03*
%TO.N,Net-(D36-K)*%
X1857250000Y-587800000D03*
X1908150000Y-578350000D03*
X1905900000Y-580700000D03*
%TO.N,Net-(D49-K)*%
X1866900000Y-602531677D03*
X1875700000Y-597750000D03*
%TO.N,Net-(D37-K)*%
X1914700000Y-581300000D03*
%TO.N,Net-(D22-K)*%
X1919400000Y-559950000D03*
%TO.N,Net-(L3-DOUT)*%
X1885900000Y-537300000D03*
X1864600000Y-534150000D03*
%TO.N,Net-(L2-DOUT)*%
X1845400000Y-534400000D03*
X1866300000Y-537600000D03*
%TO.N,Net-(L28-DOUT)*%
X2057000000Y-556600000D03*
X2036600000Y-553250000D03*
%TO.N,Net-(L27-DOUT)*%
X2038000000Y-556400000D03*
X2017750000Y-553500000D03*
%TO.N,Net-(L61-DOUT)*%
X1871450000Y-613900000D03*
X1839700000Y-609500000D03*
%TO.N,Net-(D16-A)*%
X2045550000Y-530500000D03*
X2064800000Y-530400000D03*
%TO.N,Net-(L62-DOUT)*%
X1890250000Y-613700000D03*
X1870100000Y-610100000D03*
%TO.N,Net-(D13-K)*%
X2037800000Y-544050000D03*
%TO.N,Net-(D58-K)*%
X2046100000Y-597750000D03*
X2040950000Y-602750000D03*
%TO.N,/EOS4*%
X1860800000Y-591200000D03*
X1880950000Y-594750000D03*
%TO.N,Net-(L47-DOUT)*%
X1861850000Y-594900000D03*
X1834600000Y-591250000D03*
%TO.N,Net-(L66-DOUT)*%
X1966700000Y-613700000D03*
X1946350000Y-610300000D03*
%TO.N,Net-(L65-DOUT)*%
X1947350000Y-613650000D03*
X1927400000Y-610450000D03*
%TO.N,Net-(D32-K)*%
X1912450000Y-579800000D03*
X2068050000Y-578850000D03*
%TO.N,Net-(D20-K)*%
X1881100000Y-559950000D03*
%TO.N,Net-(D17-A)*%
X1899550000Y-540270000D03*
%TO.N,Net-(D48-K)*%
X1860700000Y-597750000D03*
X2115500000Y-598000000D03*
%TO.N,Net-(L52-DOUT)*%
X1936400000Y-591600000D03*
X1956900000Y-594600000D03*
%TO.N,Net-(L51-DOUT)*%
X1937950000Y-594500000D03*
X1917800000Y-591400000D03*
%TO.N,Net-(D19-A)*%
X1938650000Y-540270000D03*
%TO.N,Net-(L23-DOUT)*%
X1942050000Y-553400000D03*
X1961550000Y-556750000D03*
%TO.N,Net-(L22-DOUT)*%
X1922450000Y-553450000D03*
X1942950000Y-556700000D03*
%TO.N,Net-(D41-K)*%
X1983100000Y-585050000D03*
%TO.N,Net-(D33-K)*%
X1855800000Y-579150000D03*
X2092692036Y-578142036D03*
%TO.N,Net-(D35-K)*%
X1888200000Y-580700000D03*
X1891400000Y-578600000D03*
%TO.N,Net-(D43-K)*%
X2021500000Y-585050000D03*
%TO.N,Net-(L21-DOUT)*%
X1923800000Y-556350000D03*
X1903400000Y-553700000D03*
%TO.N,Net-(L20-DOUT)*%
X1904800000Y-556250000D03*
X1884100000Y-553450000D03*
%TO.N,Net-(D72-K)*%
X2072600000Y-619150000D03*
X2068250000Y-616469999D03*
%TO.N,Net-(L4-DOUT)*%
X1904550000Y-537350000D03*
X1884200000Y-534300000D03*
%TO.N,Net-(D69-K)*%
X2003850000Y-616470000D03*
X2008450000Y-619150000D03*
%TO.N,Net-(D57-K)*%
X2028750000Y-597750000D03*
X2025600000Y-602650000D03*
%TO.N,Net-(L50-DOUT)*%
X1919100000Y-594700000D03*
X1898700000Y-591400000D03*
%TO.N,Net-(L59-DOUT)*%
X2114300000Y-594750000D03*
X2082250000Y-591550000D03*
%TO.N,Net-(L58-DOUT)*%
X2051450000Y-591450000D03*
X2083150000Y-594550000D03*
%TO.N,Net-(D66-K)*%
X1940900000Y-619400000D03*
X1943100000Y-616469999D03*
%TO.N,Net-(L55-DOUT)*%
X2014300000Y-594700000D03*
X1993750000Y-591550000D03*
%TO.N,Net-(L54-DOUT)*%
X1975250000Y-591400000D03*
X1995350000Y-594550000D03*
%TO.N,Net-(L25-DOUT)*%
X1980050000Y-553300000D03*
X1999700000Y-556500000D03*
%TO.N,/EOS2*%
X1960800000Y-553350000D03*
X1980900000Y-556450000D03*
%TO.N,Net-(D45-K)*%
X2060100000Y-585000000D03*
%TO.N,Net-(D56-K)*%
X2005050000Y-602531676D03*
X2009600000Y-597750000D03*
%TO.N,Net-(D44-K)*%
X2041300000Y-585050000D03*
%TO.N,Net-(D53-K)*%
X1947250000Y-602650000D03*
X1952150000Y-597750000D03*
%TO.N,Net-(D50-K)*%
X1895450000Y-597750000D03*
X1888150000Y-602650000D03*
%TO.N,Net-(L56-DOUT)*%
X2033300000Y-594650000D03*
X2012850000Y-591700000D03*
%TO.N,Net-(D19-K)*%
X1958850000Y-560550000D03*
%TO.N,Net-(D17-K)*%
X1886900000Y-542002166D03*
%TO.N,Net-(D65-K)*%
X1924550000Y-616469999D03*
X1921100000Y-619150000D03*
%TO.N,Net-(D62-K)*%
X2113950000Y-617300000D03*
X1870150000Y-616470000D03*
%TO.N,Net-(L10-DIN)*%
X1979750000Y-534250000D03*
X2000250000Y-537550000D03*
%TO.N,Net-(L49-DOUT)*%
X1879550000Y-591350000D03*
X1899850000Y-594500000D03*
%TO.N,Net-(D55-K)*%
X1990000000Y-597749999D03*
X1985350000Y-602750000D03*
%TO.N,Net-(D15-K)*%
X2035800000Y-545800000D03*
%TO.N,Net-(L14-DOUT)*%
X2095150000Y-537400000D03*
X2074950000Y-534250000D03*
%TO.N,Net-(L13-DOUT)*%
X2055750000Y-534150000D03*
X2076250000Y-537450000D03*
%TO.N,Net-(L53-DOUT)*%
X1955600000Y-591600000D03*
X1976100000Y-594800000D03*
%TO.N,Net-(D24-K)*%
X1957200000Y-559950000D03*
%TO.N,Net-(L41-DOUT)*%
X2008950000Y-572650000D03*
X2028200000Y-575500000D03*
%TO.N,Net-(L40-DOUT)*%
X2009250000Y-575550000D03*
X1989000000Y-572450000D03*
%TO.N,Net-(L7-DOUT)*%
X1941350000Y-534250000D03*
X1961750000Y-537250000D03*
%TO.N,Net-(L6-DOUT)*%
X1942700000Y-537600000D03*
X1922300000Y-534450000D03*
%TO.N,Net-(L30-DOUT)*%
X2114250000Y-556950000D03*
X2084600000Y-553550000D03*
%TO.N,Net-(L29-DOUT)*%
X2054450000Y-555300000D03*
X2085650000Y-556300000D03*
X2058600000Y-555260000D03*
%TO.N,Net-(D12-K)*%
X1980000000Y-543500000D03*
%TO.N,Net-(L69-DOUT)*%
X2023500000Y-613900000D03*
X2004050000Y-610150000D03*
%TO.N,Net-(L68-DOUT)*%
X1984400000Y-610300000D03*
X2004750000Y-613850000D03*
%TO.N,Net-(D18-A)*%
X1919250000Y-540270000D03*
%TO.N,Net-(L57-DOUT)*%
X2052250000Y-594750000D03*
X2032300000Y-591800000D03*
%TO.N,Net-(L26-DOUT)*%
X1998600000Y-553350000D03*
X2019050000Y-556300000D03*
%TO.N,Net-(L67-DOUT)*%
X1966050000Y-610500000D03*
X1985730000Y-612720000D03*
%TO.N,Net-(D64-K)*%
X1905600000Y-616470000D03*
X1901485476Y-619324129D03*
%TO.N,Net-(D54-K)*%
X1964250000Y-602531677D03*
X1971350000Y-597750000D03*
%TO.N,Net-(L63-DOUT)*%
X1909665000Y-613850000D03*
X1889400000Y-610350000D03*
%TO.N,Net-(L18-DOUT)*%
X1866650000Y-556600000D03*
X1846100000Y-553150000D03*
%TO.N,Net-(L17-DOUT)*%
X1827450000Y-553250000D03*
X1847550000Y-556450000D03*
%TO.N,Net-(D63-K)*%
X1886100000Y-616470000D03*
X1882800000Y-619150000D03*
%TO.N,Net-(D23-K)*%
X1938250000Y-559950000D03*
%TO.N,Net-(D39-K)*%
X1946750000Y-585299999D03*
%TO.N,/EOS1*%
X2036650000Y-534000000D03*
X2057150000Y-537350000D03*
%TO.N,Net-(L64-DOUT)*%
X1928100000Y-613750000D03*
X1907950000Y-610550000D03*
%TO.N,Net-(D51-K)*%
X1910150000Y-602700000D03*
X1914250000Y-597749999D03*
%TO.N,Net-(L43-DOUT)*%
X2046650000Y-572250000D03*
X2066100000Y-575750000D03*
%TO.N,Net-(L42-DOUT)*%
X2027450000Y-572300000D03*
X2047350000Y-575500000D03*
%TO.N,Net-(D34-K)*%
X2114950000Y-579000000D03*
X1875050000Y-579200000D03*
%TO.N,Net-(L16-DOUT)*%
X1907650000Y-540270000D03*
X1837300000Y-541900000D03*
X2041137223Y-541585110D03*
%TO.N,Net-(L19-DOUT)*%
X1885900000Y-556450000D03*
X1865300000Y-553200000D03*
%TO.N,Net-(D52-K)*%
X1933550000Y-597750000D03*
X1929500000Y-602531676D03*
%TO.N,Net-(L33-DOUT)*%
X1856200000Y-572500000D03*
X1876150000Y-575800000D03*
%TO.N,Net-(L32-DOUT)*%
X1832350000Y-572500000D03*
X1857050000Y-575700000D03*
%TO.N,Net-(D14-A)*%
X2044150000Y-529200000D03*
%TO.N,Net-(D71-K)*%
X2051350000Y-619150000D03*
X2041850000Y-616250000D03*
%TO.N,Net-(L39-DOUT)*%
X1990200000Y-575550000D03*
X1970450000Y-572450000D03*
%TO.N,Net-(L70-DOUT)*%
X2043000000Y-613600000D03*
X2023200000Y-610350000D03*
%TO.N,Net-(L31-DOUT)*%
X1963400000Y-562700000D03*
X1834250000Y-574700000D03*
%TO.N,Net-(D18-K)*%
X1885600000Y-542250000D03*
%TO.N,/EOS3*%
X1933300000Y-575600000D03*
X1917400000Y-572450000D03*
%TO.N,Net-(L44-DOUT)*%
X2065350000Y-572300000D03*
X2090400000Y-575500000D03*
%TO.N,Net-(L45-DOUT)*%
X2089200000Y-572500000D03*
X2114050000Y-575450000D03*
%TO.N,Net-(D14-K)*%
X2037000000Y-544850000D03*
%TO.N,Net-(L38-DOUT)*%
X1951550000Y-572350000D03*
X1971350000Y-575600000D03*
%TO.N,Net-(L37-DOUT)*%
X1932250000Y-572500000D03*
X1952300000Y-575750000D03*
%TO.N,Net-(D15-A)*%
X2042800000Y-529850000D03*
%TO.N,Net-(L46-DOUT)*%
X1836800000Y-593800000D03*
X1914450000Y-585900000D03*
%TO.N,Net-(L15-DOUT)*%
X2093700000Y-534250000D03*
X2113900000Y-537350000D03*
%TO.N,Net-(D68-K)*%
X1987300000Y-617949999D03*
X1984950000Y-616469999D03*
%TO.N,Net-(L8-DOUT)*%
X1960900000Y-533850000D03*
X1981000000Y-537200000D03*
%TO.N,Net-(L5-DOUT)*%
X1923850000Y-537450000D03*
X1903650000Y-534450000D03*
%TO.N,Net-(USB1-CC1)*%
X1970150000Y-644550000D03*
%TO.N,Net-(USB1-CC2)*%
X1967600000Y-647400000D03*
%TO.N,/GPIO42*%
X1897500000Y-642300000D03*
X1807100000Y-535000000D03*
X1916100000Y-636700000D03*
D23*
%TO.N,GND*%
X1915400000Y-643800000D03*
X1897950000Y-643750000D03*
%TO.N,/R3*%
X1902050000Y-597800000D03*
%TO.N,/D-*%
X1965415165Y-640384835D03*
%TO.N,/R6*%
X1911950000Y-622169055D03*
%TO.N,/C1*%
X1904700000Y-639950000D03*
%TO.N,/C10*%
X1902501694Y-631647340D03*
%TD*%
%TO.N,Net-(J1-Pin_1)*%
D25*
X1898600000Y-640100000D02*
X1895500000Y-637000000D01*
X1895500000Y-637000000D02*
X1893500000Y-637000000D01*
%TO.N,/EOS1*%
D26*
X2057150000Y-537350000D02*
X2056230477Y-537350000D01*
X2056230477Y-537350000D02*
X2055286385Y-536405908D01*
X2055286385Y-536405908D02*
X2050708509Y-536405908D01*
X2050708509Y-536405908D02*
X2048302601Y-534000000D01*
X2048302601Y-534000000D02*
X2036650000Y-534000000D01*
%TO.N,Net-(L75-DOUT)*%
X1834613485Y-629750000D02*
X1829050000Y-629750000D01*
X1853722873Y-633227127D02*
X1851010433Y-633227127D01*
X1851010433Y-633227127D02*
X1848733306Y-630950000D01*
X1848733306Y-630950000D02*
X1843654467Y-630950000D01*
X1843654467Y-630950000D02*
X1842064467Y-629360000D01*
X1842064467Y-629360000D02*
X1835003485Y-629360000D01*
X1835003485Y-629360000D02*
X1834613485Y-629750000D01*
%TO.N,Net-(L76-DOUT)*%
X1863979757Y-632543951D02*
X1862724047Y-631288241D01*
X1875700000Y-633100000D02*
X1873550000Y-630950000D01*
X1867145348Y-630950000D02*
X1865551397Y-632543951D01*
X1862724047Y-631288241D02*
X1852027502Y-631288241D01*
X1865551397Y-632543951D02*
X1863979757Y-632543951D01*
X1873550000Y-630950000D02*
X1867145348Y-630950000D01*
X1878500000Y-633100000D02*
X1875700000Y-633100000D01*
X1852027502Y-631288241D02*
X1851905744Y-631409999D01*
%TO.N,Net-(L77-DOUT)*%
X1949400000Y-632950000D02*
X1958758148Y-632950000D01*
X1958758148Y-632950000D02*
X1965965165Y-640157017D01*
X1965965165Y-640157017D02*
X1965965165Y-640612653D01*
X1916215165Y-641465165D02*
X1915100000Y-640350000D01*
X1965965165Y-640612653D02*
X1965112653Y-641465165D01*
X1965112653Y-641465165D02*
X1916215165Y-641465165D01*
%TO.N,Net-(L78-DOUT)*%
X2019050000Y-632750000D02*
X2019050000Y-632093501D01*
X2001372399Y-625350000D02*
X1953100000Y-625350000D01*
X2019050000Y-632093501D02*
X2017136600Y-630180101D01*
X2017136600Y-630180101D02*
X2006202500Y-630180101D01*
X2006202500Y-630180101D02*
X2001372399Y-625350000D01*
%TO.N,Net-(L79-DOUT)*%
X2020463244Y-635650000D02*
X2016223243Y-631409999D01*
X2036850000Y-632800000D02*
X2034000000Y-635650000D01*
X2034000000Y-635650000D02*
X2020463244Y-635650000D01*
%TO.N,Net-(L80-DOUT)*%
X2035562335Y-631335275D02*
X2035487610Y-631410000D01*
X2041364831Y-631335275D02*
X2035562335Y-631335275D01*
X2042458311Y-632428755D02*
X2041364831Y-631335275D01*
X2044260343Y-632428755D02*
X2042458311Y-632428755D01*
X2045739098Y-630950000D02*
X2044260343Y-632428755D01*
X2053799343Y-630950000D02*
X2045739098Y-630950000D01*
X2055551808Y-632702465D02*
X2053799343Y-630950000D01*
%TO.N,Net-(L81-DOUT)*%
X2064122399Y-630950000D02*
X2061982399Y-628810000D01*
X2072889556Y-632950000D02*
X2070889556Y-630950000D01*
X2075400000Y-632950000D02*
X2072889556Y-632950000D01*
X2070889556Y-630950000D02*
X2064122399Y-630950000D01*
X2061982399Y-628810000D02*
X2061850000Y-628810000D01*
%TO.N,Net-(L82-DOUT)*%
X2089239556Y-630950000D02*
X2083839098Y-630950000D01*
X2094750000Y-632500000D02*
X2090789556Y-632500000D01*
X2077892702Y-629630101D02*
X2074350000Y-629630101D01*
X2090789556Y-632500000D02*
X2089239556Y-630950000D01*
X2083839098Y-630950000D02*
X2082629098Y-632160000D01*
X2082629098Y-632160000D02*
X2080422601Y-632160000D01*
X2080422601Y-632160000D02*
X2077892702Y-629630101D01*
%TO.N,Net-(L83-DOUT)*%
X2110350000Y-629650000D02*
X2100922399Y-629650000D01*
X2099822399Y-628550000D02*
X2094900000Y-628550000D01*
X2094900000Y-628550000D02*
X2093950000Y-629500000D01*
X2100922399Y-629650000D02*
X2099822399Y-628550000D01*
%TO.N,/C12*%
X1901600000Y-629700000D02*
X1901600000Y-628200000D01*
X1901600000Y-628200000D02*
X1901700000Y-628100000D01*
%TO.N,/C11*%
X1900750000Y-629700000D02*
X1900750000Y-630500000D01*
X1901050000Y-630800000D02*
X1902492844Y-630800000D01*
X2091250000Y-635650000D02*
X2091600000Y-635300000D01*
X1900750000Y-630500000D02*
X1901050000Y-630800000D01*
X2073700000Y-633700000D02*
X2075650000Y-635650000D01*
X1902492844Y-630800000D02*
X1903184065Y-631491221D01*
X2075650000Y-635650000D02*
X2091250000Y-635650000D01*
%TO.N,/C10*%
X1899700000Y-630750000D02*
X1899950000Y-630750000D01*
X1899950000Y-630750000D02*
X1900400000Y-631200000D01*
X1900400000Y-631200000D02*
X1902054354Y-631200000D01*
X1902054354Y-631200000D02*
X1902501694Y-631647340D01*
%TO.N,/C9*%
X1901487914Y-631600000D02*
X1902125710Y-632237796D01*
X1899700000Y-631600000D02*
X1901487914Y-631600000D01*
%TO.N,/C8*%
X1899700000Y-632450000D02*
X1901350000Y-632450000D01*
X1901350000Y-632450000D02*
X1901600000Y-632700000D01*
%TO.N,/C7*%
X1899700000Y-633300000D02*
X1908722182Y-633300000D01*
X1908722182Y-633300000D02*
X1910612183Y-631409999D01*
%TO.N,/C6*%
X1908650000Y-634150000D02*
X1909800000Y-633000000D01*
X1899700000Y-634150000D02*
X1908650000Y-634150000D01*
%TO.N,/C5*%
X1899700000Y-635000000D02*
X1898900000Y-635000000D01*
X1898900000Y-635000000D02*
X1898600000Y-635300000D01*
%TO.N,/C4*%
X1899700000Y-635850000D02*
X1897098302Y-635850000D01*
X1897098302Y-635850000D02*
X1897056440Y-635808138D01*
%TO.N,/C3*%
X1897150000Y-636700000D02*
X1896950000Y-636500000D01*
X1899700000Y-636700000D02*
X1897150000Y-636700000D01*
%TO.N,/C2*%
X1899700000Y-638400000D02*
X1903314420Y-638400000D01*
X1903314420Y-638400000D02*
X1904001532Y-637712888D01*
X2108300000Y-619050000D02*
X2108300000Y-618000000D01*
X2101850000Y-625500000D02*
X2108300000Y-619050000D01*
%TO.N,/C1*%
X1904000000Y-639250000D02*
X1904700000Y-639950000D01*
X1899700000Y-639250000D02*
X1904000000Y-639250000D01*
%TO.N,/R7*%
D25*
X1912750000Y-628450000D02*
X1912750000Y-629600000D01*
X1912750000Y-629600000D02*
X1912650000Y-629700000D01*
%TO.N,/R6*%
X1911745000Y-613711522D02*
X1911745000Y-615895000D01*
X1913746522Y-611710000D02*
X1911745000Y-613711522D01*
X1911745000Y-615895000D02*
X1912350000Y-616500000D01*
X1914315000Y-611710000D02*
X1913746522Y-611710000D01*
X1908700000Y-628500000D02*
X1908400000Y-628800000D01*
X1908400000Y-628800000D02*
X1908400000Y-629700000D01*
%TO.N,/R5*%
X1905994597Y-628536825D02*
X1905994597Y-629555403D01*
X1905994597Y-629555403D02*
X1905850000Y-629700000D01*
X1885576522Y-607670000D02*
X1894426522Y-616520000D01*
X1869630050Y-607670000D02*
X1885576522Y-607670000D01*
X1860000000Y-598039950D02*
X1869630050Y-607670000D01*
X1860000000Y-597460050D02*
X1860000000Y-598039950D01*
X1860410050Y-597050000D02*
X1860000000Y-597460050D01*
X1860989950Y-597050000D02*
X1860410050Y-597050000D01*
X1865379950Y-592660000D02*
X1860989950Y-597050000D01*
X1894426522Y-616520000D02*
X1894650000Y-616520000D01*
X1866690000Y-592660000D02*
X1865379950Y-592660000D01*
%TO.N,/R4*%
X1847640000Y-594854823D02*
X1860455177Y-607670000D01*
X1860455177Y-607670000D02*
X1866526522Y-607670000D01*
X1847640000Y-592660000D02*
X1847640000Y-594854823D01*
X1905000000Y-629038479D02*
X1905000000Y-629700000D01*
X1887150000Y-626400000D02*
X1903300000Y-626400000D01*
X1866526522Y-607670000D02*
X1875376522Y-616520000D01*
X1875376522Y-616520000D02*
X1876950000Y-616520000D01*
X1882600000Y-621850000D02*
X1887150000Y-626400000D01*
X1905300000Y-628450000D02*
X1905300000Y-628738479D01*
X1905300000Y-628738479D02*
X1905000000Y-629038479D01*
%TO.N,/R3*%
X1897200000Y-589050000D02*
X1897200000Y-592070711D01*
X1898410661Y-592070711D02*
X1902050000Y-595710050D01*
X1904434620Y-628684620D02*
X1904150000Y-628969240D01*
X1898350000Y-587900000D02*
X1897200000Y-589050000D01*
X1897200000Y-592070711D02*
X1898410661Y-592070711D01*
X1904150000Y-628969240D02*
X1904150000Y-629700000D01*
X1902050000Y-595710050D02*
X1902050000Y-597800000D01*
%TO.N,Net-(J1-Pin_1)*%
X1898600000Y-640100000D02*
X1899700000Y-640100000D01*
%TO.N,/D+*%
D26*
X1968340000Y-643090000D02*
X1968340000Y-643910000D01*
X1969290000Y-643960000D02*
X1969340000Y-643910000D01*
X1968340000Y-643910000D02*
X1968390000Y-643960000D01*
X1969340000Y-643910000D02*
X1969340000Y-643090000D01*
X1968390000Y-643960000D02*
X1969290000Y-643960000D01*
%TO.N,/D-*%
X1968550000Y-641750000D02*
X1968815000Y-642015000D01*
X1968550000Y-641750000D02*
X1969320000Y-641750000D01*
X1969320000Y-641750000D02*
X1969840000Y-642270000D01*
X1969840000Y-642270000D02*
X1969840000Y-643090000D01*
%TO.N,/D+*%
X1967625000Y-641575000D02*
X1967738603Y-641575000D01*
%TO.N,/D-*%
X1968815000Y-642209999D02*
X1968840000Y-642234999D01*
%TO.N,/D+*%
X1967738603Y-641575000D02*
X1968365000Y-642201397D01*
X1968365000Y-642201397D02*
X1968365000Y-642209999D01*
%TO.N,/D-*%
X1967852818Y-641025000D02*
X1968175000Y-641347182D01*
%TO.N,/D+*%
X1968365000Y-642209999D02*
X1968340000Y-642234999D01*
%TO.N,/D-*%
X1967625000Y-640825000D02*
X1967825000Y-641025000D01*
%TO.N,/D+*%
X1968340000Y-642234999D02*
X1968340000Y-643090000D01*
%TO.N,/D-*%
X1967825000Y-641025000D02*
X1967852818Y-641025000D01*
X1968175000Y-641347182D02*
X1968175000Y-641375000D01*
X1968840000Y-642234999D02*
X1968840000Y-643090000D01*
X1968175000Y-641375000D02*
X1968550000Y-641750000D01*
X1968815000Y-642015000D02*
X1968815000Y-642209999D01*
X1933822206Y-639925000D02*
X1933872206Y-639975000D01*
X1925825000Y-631006802D02*
X1925825000Y-634206802D01*
X1931543198Y-639925000D02*
X1933822206Y-639925000D01*
%TO.N,/D+*%
X1907350000Y-628899999D02*
X1907350000Y-627718198D01*
%TO.N,/D-*%
X1925825000Y-634206802D02*
X1931543198Y-639925000D01*
X1920843198Y-626025000D02*
X1925825000Y-631006802D01*
X1908406802Y-626025000D02*
X1920843198Y-626025000D01*
X1906900000Y-628899999D02*
X1906900000Y-627531802D01*
X1906700000Y-629099999D02*
X1906900000Y-628899999D01*
%TO.N,/D+*%
X1964606801Y-640425000D02*
X1964884835Y-640703034D01*
%TO.N,/D-*%
X1933872206Y-639975000D02*
X1964793199Y-639975000D01*
%TO.N,/D+*%
X1925375000Y-631193198D02*
X1925375000Y-634393198D01*
X1907550000Y-629700000D02*
X1907550000Y-629099999D01*
X1933700000Y-640425000D02*
X1964606801Y-640425000D01*
%TO.N,/D-*%
X1906700000Y-629700000D02*
X1906700000Y-629099999D01*
X1964793199Y-639975000D02*
X1965203034Y-640384835D01*
X1965203034Y-640384835D02*
X1965415165Y-640384835D01*
%TO.N,/D+*%
X1933650000Y-640375000D02*
X1933700000Y-640425000D01*
X1964884835Y-640703034D02*
X1964884835Y-640915165D01*
X1925375000Y-634393198D02*
X1931356802Y-640375000D01*
X1920656802Y-626475000D02*
X1925375000Y-631193198D01*
X1907550000Y-629099999D02*
X1907350000Y-628899999D01*
X1908593198Y-626475000D02*
X1920656802Y-626475000D01*
X1931356802Y-640375000D02*
X1933650000Y-640375000D01*
%TO.N,/D-*%
X1906900000Y-627531802D02*
X1908406802Y-626025000D01*
%TO.N,/D+*%
X1907350000Y-627718198D02*
X1908593198Y-626475000D01*
%TO.N,GND*%
D27*
X1913700000Y-640950000D02*
X1913700000Y-640100000D01*
X1899700000Y-643700000D02*
X1899700000Y-641800000D01*
X1915400000Y-643800000D02*
X1898000000Y-643800000D01*
X1898000000Y-643800000D02*
X1897950000Y-643750000D01*
X1897950000Y-643750000D02*
X1899650000Y-643750000D01*
X1899650000Y-643750000D02*
X1899700000Y-643700000D01*
X1899500000Y-628000000D02*
X1899500000Y-629500000D01*
X1899500000Y-629500000D02*
X1899700000Y-629700000D01*
X1897950000Y-629750000D02*
X1899650000Y-629750000D01*
X1899650000Y-629750000D02*
X1899700000Y-629700000D01*
X1915400000Y-629800000D02*
X1913800000Y-629800000D01*
X1913800000Y-629800000D02*
X1913700000Y-629700000D01*
X1913850000Y-627850000D02*
X1913850000Y-629550000D01*
X1913850000Y-629550000D02*
X1913700000Y-629700000D01*
%TO.N,Net-(L1-DOUT)*%
D26*
X1825700000Y-534450000D02*
X1826040000Y-534110000D01*
X1836545902Y-534110000D02*
X1839085902Y-536650000D01*
X1839085902Y-536650000D02*
X1845892657Y-536650000D01*
X1846592657Y-537350000D02*
X1847350000Y-537350000D01*
X1845892657Y-536650000D02*
X1846592657Y-537350000D01*
X1826040000Y-534110000D02*
X1836545902Y-534110000D01*
%TO.N,GND*%
D28*
X1913700000Y-640600000D02*
X1913700000Y-640100000D01*
D27*
X1908350000Y-638350000D02*
X1908350000Y-635050000D01*
X1908350000Y-638350000D02*
X1905050000Y-635050000D01*
X1907700000Y-640500000D02*
X1907700000Y-639000000D01*
X1905050000Y-638350000D02*
X1908350000Y-635050000D01*
X1907700000Y-639000000D02*
X1908350000Y-638350000D01*
D26*
X1972250000Y-643050000D02*
X1972290000Y-643090000D01*
X1966000000Y-641900000D02*
X1966000000Y-642980000D01*
D27*
X1907550000Y-643700000D02*
X1907550000Y-640650000D01*
X1908350000Y-635050000D02*
X1905050000Y-635050000D01*
X1905050000Y-638350000D02*
X1908350000Y-638350000D01*
X1913600000Y-640500000D02*
X1913700000Y-640600000D01*
X1907550000Y-640650000D02*
X1907700000Y-640500000D01*
X1907700000Y-640500000D02*
X1913600000Y-640500000D01*
D28*
X1913700000Y-640950000D02*
X1913700000Y-640600000D01*
D26*
X1966000000Y-642980000D02*
X1965890000Y-643090000D01*
D27*
X1905050000Y-635050000D02*
X1905050000Y-638350000D01*
D26*
X1972250000Y-641950000D02*
X1972250000Y-643050000D01*
D28*
X1899700000Y-643700000D02*
X1913700000Y-643700000D01*
%TO.N,+5V*%
D26*
X1967848529Y-648000000D02*
X1971330000Y-644518529D01*
D27*
X1966690000Y-642270661D02*
X1966690000Y-643090000D01*
X1973650000Y-628150000D02*
X1971490000Y-630310000D01*
X1964800000Y-628850000D02*
X1966750000Y-630800000D01*
D26*
X1966850000Y-647498529D02*
X1967351471Y-648000000D01*
D27*
X1966750000Y-642210661D02*
X1966690000Y-642270661D01*
D26*
X1966690000Y-643090000D02*
X1966850000Y-643250000D01*
D27*
X1966750000Y-630800000D02*
X1966750000Y-642210661D01*
X1971490000Y-630310000D02*
X1971490000Y-643090000D01*
D26*
X1971330000Y-643250000D02*
X1971490000Y-643090000D01*
X1967351471Y-648000000D02*
X1967848529Y-648000000D01*
X1971330000Y-644518529D02*
X1971330000Y-643250000D01*
X1966850000Y-643250000D02*
X1966850000Y-647498529D01*
%TO.N,/R2*%
D25*
X2108483094Y-549735735D02*
X2116200000Y-557452641D01*
X1941474929Y-629720000D02*
X1938050000Y-626295071D01*
X1907150000Y-625050000D02*
X1903300000Y-628900000D01*
X1903300000Y-628900000D02*
X1903300000Y-629700000D01*
X2049162500Y-537704823D02*
X2061193412Y-549735735D01*
X2061193412Y-549735735D02*
X2108483094Y-549735735D01*
X2051323513Y-637850000D02*
X1984339950Y-637850000D01*
X2049162500Y-537035177D02*
X2049162500Y-537704823D01*
X1942717571Y-629720000D02*
X1941474929Y-629720000D01*
X2116200000Y-616039950D02*
X2105519950Y-626720000D01*
X2062453513Y-626720000D02*
X2051323513Y-637850000D01*
X1984339950Y-637850000D02*
X1973939950Y-627450000D01*
X2042902500Y-535510000D02*
X2047637323Y-535510000D01*
X2105519950Y-626720000D02*
X2062453513Y-626720000D01*
X1938050000Y-625050000D02*
X1907150000Y-625050000D01*
X1944987571Y-627450000D02*
X1942717571Y-629720000D01*
X2116200000Y-557452641D02*
X2116200000Y-616039950D01*
X2047637323Y-535510000D02*
X2049162500Y-537035177D01*
X1973939950Y-627450000D02*
X1944987571Y-627450000D01*
X1938050000Y-626295071D02*
X1938050000Y-625050000D01*
%TO.N,Net-(D42-K)*%
D26*
X2002150000Y-585300000D02*
X1999764177Y-587685823D01*
X1970724177Y-587685823D02*
X1968290000Y-590120000D01*
X1999764177Y-587685823D02*
X1970724177Y-587685823D01*
%TO.N,Net-(L73-DOUT)*%
X2113359448Y-613650000D02*
X2114250000Y-613650000D01*
X2094550000Y-610450000D02*
X2094690000Y-610310000D01*
X2105822601Y-610570000D02*
X2110279448Y-610570000D01*
X2105562601Y-610310000D02*
X2105822601Y-610570000D01*
X2094690000Y-610310000D02*
X2105562601Y-610310000D01*
X2110279448Y-610570000D02*
X2113359448Y-613650000D01*
%TO.N,Net-(D25-K)*%
X1958601471Y-559950000D02*
X1955451471Y-563100000D01*
X1955451471Y-563100000D02*
X1933397500Y-563100000D01*
X1976050000Y-559950000D02*
X1958601471Y-559950000D01*
X1933397500Y-563100000D02*
X1925427500Y-571070000D01*
%TO.N,Net-(L11-DOUT)*%
X2017990000Y-534110000D02*
X2029362601Y-534110000D01*
X2037555172Y-537750000D02*
X2037900000Y-537750000D01*
X2031313843Y-536061242D02*
X2035866414Y-536061242D01*
X2017750000Y-534350000D02*
X2017990000Y-534110000D01*
X2029362601Y-534110000D02*
X2031313843Y-536061242D01*
X2035866414Y-536061242D02*
X2037555172Y-537750000D01*
%TO.N,Net-(L10-DOUT)*%
X1998650000Y-534050000D02*
X2010252601Y-534050000D01*
X2012229819Y-536027218D02*
X2016784305Y-536027218D01*
X2016784305Y-536027218D02*
X2018257087Y-537500000D01*
X2010252601Y-534050000D02*
X2012229819Y-536027218D01*
X2018257087Y-537500000D02*
X2019050000Y-537500000D01*
%TO.N,Net-(D40-K)*%
X1965050001Y-585899999D02*
X1934410001Y-585899999D01*
X1934410001Y-585899999D02*
X1930190000Y-590120000D01*
X1965900000Y-585050000D02*
X1965050001Y-585899999D01*
%TO.N,Net-(L35-DOUT)*%
X1897800000Y-572800000D02*
X1897800000Y-573362399D01*
X1901027494Y-575010000D02*
X1902237494Y-573800000D01*
X1902237494Y-573800000D02*
X1911534715Y-573800000D01*
X1897800000Y-573362399D02*
X1899447601Y-575010000D01*
X1899447601Y-575010000D02*
X1901027494Y-575010000D01*
X1913384715Y-575650000D02*
X1914200000Y-575650000D01*
X1911534715Y-573800000D02*
X1913384715Y-575650000D01*
%TO.N,Net-(L34-DOUT)*%
X1892478349Y-573777500D02*
X1894400849Y-575700000D01*
X1894400849Y-575700000D02*
X1895250000Y-575700000D01*
X1875100000Y-572250000D02*
X1877637601Y-572250000D01*
X1881557399Y-575010000D02*
X1882789899Y-573777500D01*
X1877637601Y-572250000D02*
X1880397601Y-575010000D01*
X1880397601Y-575010000D02*
X1881557399Y-575010000D01*
X1882789899Y-573777500D02*
X1892478349Y-573777500D01*
%TO.N,Net-(D47-K)*%
X2081100000Y-598350000D02*
X2082200000Y-597250000D01*
X2051550000Y-598350000D02*
X2081100000Y-598350000D01*
%TO.N,/EOS6*%
X2094332100Y-613700000D02*
X2094850000Y-613700000D01*
X2085567238Y-610250000D02*
X2088367238Y-613050000D01*
X2093682100Y-613050000D02*
X2094332100Y-613700000D01*
X2088367238Y-613050000D02*
X2093682100Y-613050000D01*
X2068400000Y-610250000D02*
X2085567238Y-610250000D01*
%TO.N,Net-(L71-DOUT)*%
X2041650000Y-610300000D02*
X2060308851Y-610300000D01*
X2068142922Y-613800000D02*
X2069000000Y-613800000D01*
X2060308851Y-610300000D02*
X2062343512Y-612334661D01*
X2062343512Y-612334661D02*
X2066677583Y-612334661D01*
X2066677583Y-612334661D02*
X2068142922Y-613800000D01*
%TO.N,Net-(D36-K)*%
X1857250000Y-587800000D02*
X1856310000Y-587800000D01*
X1856310000Y-587800000D02*
X1853990000Y-590120000D01*
%TO.N,Net-(D37-K)*%
X1915050000Y-581650000D02*
X1915050000Y-586148529D01*
X1914548529Y-586650000D02*
X1876510000Y-586650000D01*
X1915050000Y-586148529D02*
X1914548529Y-586650000D01*
X1914700000Y-581300000D02*
X1915050000Y-581650000D01*
X1876510000Y-586650000D02*
X1873040000Y-590120000D01*
%TO.N,Net-(D22-K)*%
X1919400000Y-559950000D02*
X1917450000Y-561900000D01*
X1917450000Y-561900000D02*
X1877447500Y-561900000D01*
X1877447500Y-561900000D02*
X1868277500Y-571070000D01*
%TO.N,Net-(L3-DOUT)*%
X1885800000Y-537400000D02*
X1885900000Y-537300000D01*
X1883311881Y-536034023D02*
X1884677858Y-537400000D01*
X1864600000Y-534150000D02*
X1864850000Y-533900000D01*
X1878886624Y-536034023D02*
X1883311881Y-536034023D01*
X1864850000Y-533900000D02*
X1876752601Y-533900000D01*
X1884677858Y-537400000D02*
X1885800000Y-537400000D01*
X1876752601Y-533900000D02*
X1878886624Y-536034023D01*
%TO.N,Net-(L2-DOUT)*%
X1860644325Y-536841724D02*
X1865207319Y-536841724D01*
X1857852601Y-534050000D02*
X1860644325Y-536841724D01*
X1845750000Y-534050000D02*
X1857852601Y-534050000D01*
X1845400000Y-534400000D02*
X1845750000Y-534050000D01*
X1865207319Y-536841724D02*
X1865965595Y-537600000D01*
X1865965595Y-537600000D02*
X1866300000Y-537600000D01*
%TO.N,Net-(L28-DOUT)*%
X2046529877Y-553160000D02*
X2049269877Y-555900000D01*
X2056322526Y-556600000D02*
X2057000000Y-556600000D01*
X2036600000Y-553250000D02*
X2036690000Y-553160000D01*
X2036690000Y-553160000D02*
X2046529877Y-553160000D01*
X2055622526Y-555900000D02*
X2056322526Y-556600000D01*
X2049269877Y-555900000D02*
X2055622526Y-555900000D01*
%TO.N,Net-(L27-DOUT)*%
X2017750000Y-553500000D02*
X2018090000Y-553160000D01*
X2036459954Y-555750000D02*
X2037109954Y-556400000D01*
X2030041173Y-555750000D02*
X2036459954Y-555750000D01*
X2027451173Y-553160000D02*
X2030041173Y-555750000D01*
X2037109954Y-556400000D02*
X2038000000Y-556400000D01*
X2018090000Y-553160000D02*
X2027451173Y-553160000D01*
%TO.N,Net-(L61-DOUT)*%
X1864581236Y-612216135D02*
X1868978083Y-612216135D01*
X1861865101Y-609500000D02*
X1864581236Y-612216135D01*
X1870661948Y-613900000D02*
X1871450000Y-613900000D01*
X1839700000Y-609500000D02*
X1861865101Y-609500000D01*
X1868978083Y-612216135D02*
X1870661948Y-613900000D01*
%TO.N,Net-(D16-A)*%
X2064700000Y-530500000D02*
X2064800000Y-530400000D01*
X2045550000Y-530500000D02*
X2064700000Y-530500000D01*
%TO.N,Net-(L62-DOUT)*%
X1888870774Y-613047731D02*
X1889523043Y-613700000D01*
X1884462832Y-613047731D02*
X1888870774Y-613047731D01*
X1870100000Y-610100000D02*
X1881515101Y-610100000D01*
X1881515101Y-610100000D02*
X1884462832Y-613047731D01*
X1889523043Y-613700000D02*
X1890250000Y-613700000D01*
%TO.N,Net-(D13-K)*%
X2037800000Y-544050000D02*
X1984450000Y-544050000D01*
X1984450000Y-544050000D02*
X1976480000Y-552020000D01*
X1976480000Y-552020000D02*
X1973052500Y-552020000D01*
%TO.N,/EOS4*%
X1872140101Y-591200000D02*
X1874140101Y-593200000D01*
X1874140101Y-593200000D02*
X1878632784Y-593200000D01*
X1878632784Y-593200000D02*
X1880182784Y-594750000D01*
X1880182784Y-594750000D02*
X1880950000Y-594750000D01*
X1860800000Y-591200000D02*
X1872140101Y-591200000D01*
%TO.N,Net-(L47-DOUT)*%
X1834600000Y-591250000D02*
X1834600000Y-592448529D01*
X1840748630Y-590699899D02*
X1852590000Y-590699899D01*
X1860373163Y-594000000D02*
X1861273163Y-594900000D01*
X1852590000Y-590699899D02*
X1855890101Y-594000000D01*
X1861273163Y-594900000D02*
X1861850000Y-594900000D01*
X1834600000Y-592448529D02*
X1836551471Y-594400000D01*
X1837048529Y-594400000D02*
X1840748630Y-590699899D01*
X1836551471Y-594400000D02*
X1837048529Y-594400000D01*
X1855890101Y-594000000D02*
X1860373163Y-594000000D01*
%TO.N,Net-(L66-DOUT)*%
X1957915101Y-610300000D02*
X1959898965Y-612283864D01*
X1946350000Y-610300000D02*
X1957915101Y-610300000D01*
X1964265265Y-612283864D02*
X1965681401Y-613700000D01*
X1965681401Y-613700000D02*
X1966700000Y-613700000D01*
X1959898965Y-612283864D02*
X1964265265Y-612283864D01*
%TO.N,Net-(L65-DOUT)*%
X1946038036Y-613050000D02*
X1946638036Y-613650000D01*
X1936558402Y-610310000D02*
X1939298402Y-613050000D01*
X1927540000Y-610310000D02*
X1936558402Y-610310000D01*
X1939298402Y-613050000D02*
X1946038036Y-613050000D01*
X1946638036Y-613650000D02*
X1947350000Y-613650000D01*
X1927400000Y-610450000D02*
X1927540000Y-610310000D01*
%TO.N,Net-(D32-K)*%
X2067100000Y-579800000D02*
X2068050000Y-578850000D01*
X1912450000Y-579800000D02*
X2067100000Y-579800000D01*
%TO.N,Net-(D20-K)*%
X1880400000Y-560650000D02*
X1834600000Y-560650000D01*
X1881100000Y-559950000D02*
X1880400000Y-560650000D01*
X1834600000Y-561885000D02*
X1825415000Y-571070000D01*
X1834600000Y-560650000D02*
X1834600000Y-561885000D01*
%TO.N,Net-(D17-A)*%
X1832301753Y-540370747D02*
X1820652500Y-552020000D01*
X1833738310Y-540370747D02*
X1832301753Y-540370747D01*
X1833888907Y-540400000D02*
X1833798982Y-540310075D01*
X1833798982Y-540310075D02*
X1833738310Y-540370747D01*
X1899420000Y-540400000D02*
X1833888907Y-540400000D01*
X1899550000Y-540270000D02*
X1899420000Y-540400000D01*
%TO.N,Net-(D48-K)*%
X2114550000Y-598950000D02*
X2115500000Y-598000000D01*
X1860700000Y-597750000D02*
X1861900000Y-598950000D01*
X1861900000Y-598950000D02*
X2114550000Y-598950000D01*
%TO.N,Net-(L52-DOUT)*%
X1946078774Y-591260000D02*
X1947668774Y-592850000D01*
X1956097118Y-594600000D02*
X1956900000Y-594600000D01*
X1947668774Y-592850000D02*
X1954347118Y-592850000D01*
X1954347118Y-592850000D02*
X1956097118Y-594600000D01*
X1936400000Y-591600000D02*
X1936740000Y-591260000D01*
X1936740000Y-591260000D02*
X1946078774Y-591260000D01*
%TO.N,Net-(L51-DOUT)*%
X1917940000Y-591260000D02*
X1927711229Y-591260000D01*
X1930451229Y-594000000D02*
X1936472608Y-594000000D01*
X1936972608Y-594500000D02*
X1937950000Y-594500000D01*
X1936472608Y-594000000D02*
X1936972608Y-594500000D01*
X1917800000Y-591400000D02*
X1917940000Y-591260000D01*
X1927711229Y-591260000D02*
X1930451229Y-594000000D01*
%TO.N,Net-(D19-A)*%
X1869370334Y-541402166D02*
X1858752500Y-552020000D01*
X1938650000Y-540270000D02*
X1937517834Y-541402166D01*
X1937517834Y-541402166D02*
X1869370334Y-541402166D01*
%TO.N,Net-(L23-DOUT)*%
X1960322081Y-555900000D02*
X1961172081Y-556750000D01*
X1953162601Y-553160000D02*
X1955902601Y-555900000D01*
X1942290000Y-553160000D02*
X1953162601Y-553160000D01*
X1942050000Y-553400000D02*
X1942290000Y-553160000D01*
X1961172081Y-556750000D02*
X1961550000Y-556750000D01*
X1955902601Y-555900000D02*
X1960322081Y-555900000D01*
%TO.N,Net-(L22-DOUT)*%
X1922740000Y-553160000D02*
X1931795902Y-553160000D01*
X1922450000Y-553450000D02*
X1922740000Y-553160000D01*
X1941338767Y-555900000D02*
X1942138767Y-556700000D01*
X1934535902Y-555900000D02*
X1941338767Y-555900000D01*
X1931795902Y-553160000D02*
X1934535902Y-555900000D01*
X1942138767Y-556700000D02*
X1942950000Y-556700000D01*
%TO.N,/R1*%
D25*
X1823962980Y-631270551D02*
X1835358323Y-631270551D01*
X1814332500Y-550917500D02*
X1811732500Y-553517500D01*
X1902450000Y-627050000D02*
X1902450000Y-629700000D01*
X1835358323Y-631270551D02*
X1839837772Y-635750000D01*
X1811732500Y-553517500D02*
X1811732500Y-619040071D01*
X1814302500Y-535510000D02*
X1814332500Y-535540000D01*
X1888725067Y-635750000D02*
X1897425067Y-627050000D01*
X1839837772Y-635750000D02*
X1888725067Y-635750000D01*
X1814332500Y-535540000D02*
X1814332500Y-550917500D01*
X1811732500Y-619040071D02*
X1823962980Y-631270551D01*
X1897425067Y-627050000D02*
X1902450000Y-627050000D01*
%TO.N,Net-(D41-K)*%
D26*
X1983100000Y-585050000D02*
X1981850001Y-586299999D01*
X1953060001Y-586299999D02*
X1949240000Y-590120000D01*
X1981850001Y-586299999D02*
X1953060001Y-586299999D01*
%TO.N,Net-(D33-K)*%
X1912201471Y-580400000D02*
X2090434072Y-580400000D01*
X2090434072Y-580400000D02*
X2092692036Y-578142036D01*
X1856750000Y-580100000D02*
X1911901471Y-580100000D01*
X1911901471Y-580100000D02*
X1912201471Y-580400000D01*
X1855800000Y-579150000D02*
X1856750000Y-580100000D01*
%TO.N,Net-(D43-K)*%
X1989374177Y-588085823D02*
X1987340000Y-590120000D01*
X2021500000Y-585050000D02*
X2018464177Y-588085823D01*
X2018464177Y-588085823D02*
X1989374177Y-588085823D01*
%TO.N,Net-(L21-DOUT)*%
X1922682118Y-556372959D02*
X1923777041Y-556372959D01*
X1903400000Y-553700000D02*
X1903940000Y-553160000D01*
X1915485902Y-555900000D02*
X1922209159Y-555900000D01*
X1922209159Y-555900000D02*
X1922682118Y-556372959D01*
X1912745902Y-553160000D02*
X1915485902Y-555900000D01*
X1923777041Y-556372959D02*
X1923800000Y-556350000D01*
X1903940000Y-553160000D02*
X1912745902Y-553160000D01*
%TO.N,Net-(L20-DOUT)*%
X1884390000Y-553160000D02*
X1893695902Y-553160000D01*
X1903300901Y-555889619D02*
X1903696464Y-556285182D01*
X1903696464Y-556285182D02*
X1904764818Y-556285182D01*
X1884100000Y-553450000D02*
X1884390000Y-553160000D01*
X1904764818Y-556285182D02*
X1904800000Y-556250000D01*
X1893695902Y-553160000D02*
X1896425521Y-555889619D01*
X1896425521Y-555889619D02*
X1903300901Y-555889619D01*
%TO.N,Net-(L4-DOUT)*%
X1884390000Y-534110000D02*
X1893695902Y-534110000D01*
X1893695902Y-534110000D02*
X1895640339Y-536054437D01*
X1903696086Y-537350000D02*
X1904550000Y-537350000D01*
X1884200000Y-534300000D02*
X1884390000Y-534110000D01*
X1895640339Y-536054437D02*
X1902400523Y-536054437D01*
X1902400523Y-536054437D02*
X1903696086Y-537350000D01*
%TO.N,Net-(D69-K)*%
X2040182500Y-619150000D02*
X2049252500Y-628220000D01*
X2008450000Y-619150000D02*
X2040182500Y-619150000D01*
%TO.N,Net-(L50-DOUT)*%
X1911339338Y-594000000D02*
X1917412987Y-594000000D01*
X1917412987Y-594000000D02*
X1918112987Y-594700000D01*
X1898840000Y-591260000D02*
X1908599338Y-591260000D01*
X1908599338Y-591260000D02*
X1911339338Y-594000000D01*
X1918112987Y-594700000D02*
X1919100000Y-594700000D01*
X1898700000Y-591400000D02*
X1898840000Y-591260000D01*
%TO.N,Net-(L59-DOUT)*%
X2082250000Y-591550000D02*
X2082540000Y-591260000D01*
X2111951471Y-593250000D02*
X2113451471Y-594750000D01*
X2113451471Y-594750000D02*
X2114300000Y-594750000D01*
X2104539227Y-591260000D02*
X2106529227Y-593250000D01*
X2082540000Y-591260000D02*
X2104539227Y-591260000D01*
X2106529227Y-593250000D02*
X2111951471Y-593250000D01*
%TO.N,Net-(L58-DOUT)*%
X2081558050Y-593900000D02*
X2082208050Y-594550000D01*
X2051640000Y-591260000D02*
X2074606351Y-591260000D01*
X2051450000Y-591450000D02*
X2051640000Y-591260000D01*
X2074606351Y-591260000D02*
X2077246351Y-593900000D01*
X2077246351Y-593900000D02*
X2081558050Y-593900000D01*
X2082208050Y-594550000D02*
X2083150000Y-594550000D01*
%TO.N,Net-(D66-K)*%
X1940900000Y-619400000D02*
X1940900000Y-627023750D01*
X1940900000Y-627023750D02*
X1942096250Y-628220000D01*
%TO.N,Net-(L55-DOUT)*%
X2003446278Y-591260000D02*
X2006186278Y-594000000D01*
X2006186278Y-594000000D02*
X2012545681Y-594000000D01*
X1993750000Y-591550000D02*
X1994040000Y-591260000D01*
X1994040000Y-591260000D02*
X2003446278Y-591260000D01*
X2013245681Y-594700000D02*
X2014300000Y-594700000D01*
X2012545681Y-594000000D02*
X2013245681Y-594700000D01*
%TO.N,Net-(L54-DOUT)*%
X1986500101Y-591260000D02*
X1986760101Y-591520000D01*
X1975250000Y-591400000D02*
X1975390000Y-591260000D01*
X1991171471Y-591520000D02*
X1994201471Y-594550000D01*
X1975390000Y-591260000D02*
X1986500101Y-591260000D01*
X1994201471Y-594550000D02*
X1995350000Y-594550000D01*
X1986760101Y-591520000D02*
X1991171471Y-591520000D01*
%TO.N,Net-(L25-DOUT)*%
X1980190000Y-553160000D02*
X1991262601Y-553160000D01*
X1980050000Y-553300000D02*
X1980190000Y-553160000D01*
X1991262601Y-553160000D02*
X1994002601Y-555900000D01*
X1994002601Y-555900000D02*
X1998494691Y-555900000D01*
X1999094691Y-556500000D02*
X1999700000Y-556500000D01*
X1998494691Y-555900000D02*
X1999094691Y-556500000D01*
%TO.N,/EOS2*%
X1972212601Y-553160000D02*
X1974952601Y-555900000D01*
X1974952601Y-555900000D02*
X1979510207Y-555900000D01*
X1960990000Y-553160000D02*
X1972212601Y-553160000D01*
X1980060207Y-556450000D02*
X1980900000Y-556450000D01*
X1960800000Y-553350000D02*
X1960990000Y-553160000D01*
X1979510207Y-555900000D02*
X1980060207Y-556450000D01*
%TO.N,Net-(D45-K)*%
X2036795686Y-590120000D02*
X2025440000Y-590120000D01*
X2059450000Y-585650000D02*
X2041265686Y-585650000D01*
X2060100000Y-585000000D02*
X2059450000Y-585650000D01*
X2041265686Y-585650000D02*
X2036795686Y-590120000D01*
%TO.N,Net-(D44-K)*%
X2041300000Y-585050000D02*
X2037864177Y-588485823D01*
X2008024177Y-588485823D02*
X2006390000Y-590120000D01*
X2037864177Y-588485823D02*
X2008024177Y-588485823D01*
%TO.N,Net-(L56-DOUT)*%
X2024443598Y-593280887D02*
X2030991522Y-593280887D01*
X2032360635Y-594650000D02*
X2033300000Y-594650000D01*
X2030991522Y-593280887D02*
X2032360635Y-594650000D01*
X2013290000Y-591260000D02*
X2022422711Y-591260000D01*
X2012850000Y-591700000D02*
X2013290000Y-591260000D01*
X2022422711Y-591260000D02*
X2024443598Y-593280887D01*
%TO.N,Net-(D19-K)*%
X2106402500Y-557883402D02*
X2106402500Y-552020000D01*
X1958850000Y-560550000D02*
X2103735902Y-560550000D01*
X2103735902Y-560550000D02*
X2106402500Y-557883402D01*
%TO.N,Net-(D17-K)*%
X2039234666Y-542002166D02*
X2049252500Y-552020000D01*
X1886900000Y-542002166D02*
X2039234666Y-542002166D01*
%TO.N,Net-(D65-K)*%
X1919600000Y-620650000D02*
X1878228750Y-620650000D01*
X1878228750Y-620650000D02*
X1870658750Y-628220000D01*
X1921100000Y-619150000D02*
X1919600000Y-620650000D01*
%TO.N,Net-(D62-K)*%
X1870150000Y-616470000D02*
X1870980000Y-617300000D01*
X1870980000Y-617300000D02*
X2113950000Y-617300000D01*
%TO.N,Net-(L10-DIN)*%
X1991631444Y-536795542D02*
X1998524957Y-536795542D01*
X1998524957Y-536795542D02*
X1999279415Y-537550000D01*
X1999279415Y-537550000D02*
X2000250000Y-537550000D01*
X1988945902Y-534110000D02*
X1991631444Y-536795542D01*
X1979750000Y-534250000D02*
X1979890000Y-534110000D01*
X1979890000Y-534110000D02*
X1988945902Y-534110000D01*
%TO.N,Net-(L49-DOUT)*%
X1895942183Y-591520000D02*
X1898922183Y-594500000D01*
X1879550000Y-591350000D02*
X1879640000Y-591260000D01*
X1891510101Y-591520000D02*
X1895942183Y-591520000D01*
X1879640000Y-591260000D02*
X1891250101Y-591260000D01*
X1891250101Y-591260000D02*
X1891510101Y-591520000D01*
X1898922183Y-594500000D02*
X1899850000Y-594500000D01*
%TO.N,Net-(D21-K)*%
X1900550000Y-559950000D02*
X1899300000Y-561200000D01*
X1859097500Y-561200000D02*
X1849227500Y-571070000D01*
X1899300000Y-561200000D02*
X1859097500Y-561200000D01*
%TO.N,Net-(D67-K)*%
X2002182500Y-619250000D02*
X2011152500Y-628220000D01*
X1968700000Y-619250000D02*
X2002182500Y-619250000D01*
%TO.N,Net-(D15-K)*%
X2017372500Y-545800000D02*
X2011152500Y-552020000D01*
X2035800000Y-545800000D02*
X2017372500Y-545800000D01*
%TO.N,Net-(L14-DOUT)*%
X2085919158Y-534110000D02*
X2087849986Y-536040828D01*
X2094356235Y-537400000D02*
X2095150000Y-537400000D01*
X2074950000Y-534250000D02*
X2075090000Y-534110000D01*
X2092997063Y-536040828D02*
X2094356235Y-537400000D01*
X2075090000Y-534110000D02*
X2085919158Y-534110000D01*
X2087849986Y-536040828D02*
X2092997063Y-536040828D01*
%TO.N,Net-(L13-DOUT)*%
X2069393429Y-536040828D02*
X2073914953Y-536040828D01*
X2055790000Y-534110000D02*
X2067462601Y-534110000D01*
X2067462601Y-534110000D02*
X2069393429Y-536040828D01*
X2073914953Y-536040828D02*
X2075324125Y-537450000D01*
X2055750000Y-534150000D02*
X2055790000Y-534110000D01*
X2075324125Y-537450000D02*
X2076250000Y-537450000D01*
%TO.N,Net-(L53-DOUT)*%
X1965308514Y-591260000D02*
X1967248514Y-593200000D01*
X1955940000Y-591260000D02*
X1965308514Y-591260000D01*
X1955600000Y-591600000D02*
X1955940000Y-591260000D01*
X1975462071Y-594800000D02*
X1976100000Y-594800000D01*
X1967248514Y-593200000D02*
X1973862071Y-593200000D01*
X1973862071Y-593200000D02*
X1975462071Y-594800000D01*
%TO.N,Net-(D24-K)*%
X1957200000Y-559950000D02*
X1954450000Y-562700000D01*
X1914747500Y-562700000D02*
X1906377500Y-571070000D01*
X1954450000Y-562700000D02*
X1914747500Y-562700000D01*
%TO.N,Net-(L41-DOUT)*%
X2019837601Y-572210000D02*
X2022477601Y-574850000D01*
X2022477601Y-574850000D02*
X2026981728Y-574850000D01*
X2008950000Y-572650000D02*
X2009390000Y-572210000D01*
X2026981728Y-574850000D02*
X2027631728Y-575500000D01*
X2027631728Y-575500000D02*
X2028200000Y-575500000D01*
X2009390000Y-572210000D02*
X2019837601Y-572210000D01*
%TO.N,Net-(L40-DOUT)*%
X1989000000Y-572450000D02*
X1989240000Y-572210000D01*
X2003277601Y-574700000D02*
X2007737718Y-574700000D01*
X2008587718Y-575550000D02*
X2009250000Y-575550000D01*
X2007737718Y-574700000D02*
X2008587718Y-575550000D01*
X1989240000Y-572210000D02*
X2000787601Y-572210000D01*
X2000787601Y-572210000D02*
X2003277601Y-574700000D01*
%TO.N,Net-(L7-DOUT)*%
X1953162601Y-534110000D02*
X1955107038Y-536054437D01*
X1941350000Y-534250000D02*
X1941490000Y-534110000D01*
X1961745563Y-537254437D02*
X1961750000Y-537250000D01*
X1960894485Y-537254437D02*
X1961745563Y-537254437D01*
X1941490000Y-534110000D02*
X1953162601Y-534110000D01*
X1959694485Y-536054437D02*
X1960894485Y-537254437D01*
X1955107038Y-536054437D02*
X1959694485Y-536054437D01*
%TO.N,Net-(L6-DOUT)*%
X1922300000Y-534450000D02*
X1922640000Y-534110000D01*
X1932341836Y-534110000D02*
X1935031836Y-536800000D01*
X1922640000Y-534110000D02*
X1932341836Y-534110000D01*
X1941391962Y-536800000D02*
X1942191962Y-537600000D01*
X1935031836Y-536800000D02*
X1941391962Y-536800000D01*
X1942191962Y-537600000D02*
X1942700000Y-537600000D01*
%TO.N,Net-(L30-DOUT)*%
X2087530000Y-550620000D02*
X2107528880Y-550620000D01*
X2107528880Y-550620000D02*
X2113858880Y-556950000D01*
X2113858880Y-556950000D02*
X2114250000Y-556950000D01*
X2084600000Y-553550000D02*
X2087530000Y-550620000D01*
%TO.N,Net-(L29-DOUT)*%
X2072849561Y-555960000D02*
X2074059561Y-554750000D01*
X2058600000Y-555260000D02*
X2058640000Y-555300000D01*
X2070897601Y-555960000D02*
X2072849561Y-555960000D01*
X2084630918Y-556300000D02*
X2085650000Y-556300000D01*
X2083080918Y-554750000D02*
X2084630918Y-556300000D01*
X2058640000Y-555300000D02*
X2070237601Y-555300000D01*
X2074059561Y-554750000D02*
X2083080918Y-554750000D01*
X2070237601Y-555300000D02*
X2070897601Y-555960000D01*
%TO.N,Net-(D12-K)*%
X1962522500Y-543500000D02*
X1954002500Y-552020000D01*
X1980000000Y-543500000D02*
X1962522500Y-543500000D01*
%TO.N,Net-(L69-DOUT)*%
X2014915101Y-610150000D02*
X2017815101Y-613050000D01*
X2022162531Y-613050000D02*
X2023012531Y-613900000D01*
X2017815101Y-613050000D02*
X2022162531Y-613050000D01*
X2023012531Y-613900000D02*
X2023500000Y-613900000D01*
X2004050000Y-610150000D02*
X2014915101Y-610150000D01*
%TO.N,Net-(L68-DOUT)*%
X2000702056Y-613850000D02*
X2004750000Y-613850000D01*
X1984400000Y-610300000D02*
X1994752056Y-610300000D01*
X1997502056Y-613050000D02*
X1999902056Y-613050000D01*
X1994752056Y-610300000D02*
X1997502056Y-613050000D01*
X1999902056Y-613050000D02*
X2000702056Y-613850000D01*
%TO.N,Net-(D18-A)*%
X1856856276Y-540870000D02*
X1856786276Y-540800000D01*
X1918650000Y-540870000D02*
X1856856276Y-540870000D01*
X1856786276Y-540800000D02*
X1850922500Y-540800000D01*
X1919250000Y-540270000D02*
X1918650000Y-540870000D01*
X1850922500Y-540800000D02*
X1839702500Y-552020000D01*
%TO.N,Net-(L57-DOUT)*%
X2050016032Y-593245776D02*
X2051520256Y-594750000D01*
X2045635877Y-593245776D02*
X2050016032Y-593245776D01*
X2032300000Y-591800000D02*
X2032840000Y-591260000D01*
X2051520256Y-594750000D02*
X2052250000Y-594750000D01*
X2043650101Y-591260000D02*
X2045635877Y-593245776D01*
X2032840000Y-591260000D02*
X2043650101Y-591260000D01*
%TO.N,Net-(L26-DOUT)*%
X2010312601Y-553160000D02*
X2011132702Y-553980101D01*
X1998790000Y-553160000D02*
X2010312601Y-553160000D01*
X1998600000Y-553350000D02*
X1998790000Y-553160000D01*
X2017908434Y-556300000D02*
X2019050000Y-556300000D01*
X2011132702Y-553980101D02*
X2015588535Y-553980101D01*
X2015588535Y-553980101D02*
X2017908434Y-556300000D01*
%TO.N,Net-(L67-DOUT)*%
X1976975101Y-610310000D02*
X1977235101Y-610570000D01*
X1985650000Y-613850000D02*
X1985730000Y-613770000D01*
X1977235101Y-610570000D02*
X1981679546Y-610570000D01*
X1966240000Y-610310000D02*
X1976975101Y-610310000D01*
X1985730000Y-613770000D02*
X1985730000Y-612720000D01*
X1966050000Y-610500000D02*
X1966240000Y-610310000D01*
X1984959546Y-613850000D02*
X1985650000Y-613850000D01*
X1981679546Y-610570000D02*
X1984959546Y-613850000D01*
%TO.N,Net-(D64-K)*%
X1901059605Y-619750000D02*
X1862700000Y-619750000D01*
X1901485476Y-619324129D02*
X1901059605Y-619750000D01*
X1855366250Y-619700000D02*
X1846846250Y-628220000D01*
X1862700000Y-619750000D02*
X1862650000Y-619700000D01*
X1862650000Y-619700000D02*
X1855366250Y-619700000D01*
%TO.N,Net-(L63-DOUT)*%
X1908767323Y-613850000D02*
X1909665000Y-613850000D01*
X1889440000Y-610310000D02*
X1898458402Y-610310000D01*
X1898458402Y-610310000D02*
X1901162269Y-613013867D01*
X1907931190Y-613013867D02*
X1908767323Y-613850000D01*
X1889400000Y-610350000D02*
X1889440000Y-610310000D01*
X1901162269Y-613013867D02*
X1907931190Y-613013867D01*
%TO.N,Net-(L18-DOUT)*%
X1846100000Y-553150000D02*
X1857902601Y-553150000D01*
X1864236076Y-555085182D02*
X1865750894Y-556600000D01*
X1857902601Y-553150000D02*
X1859837783Y-555085182D01*
X1859837783Y-555085182D02*
X1864236076Y-555085182D01*
X1865750894Y-556600000D02*
X1866650000Y-556600000D01*
%TO.N,Net-(L17-DOUT)*%
X1845310110Y-555143700D02*
X1846616410Y-556450000D01*
X1840846301Y-555143700D02*
X1845310110Y-555143700D01*
X1827450000Y-553250000D02*
X1827540000Y-553160000D01*
X1846616410Y-556450000D02*
X1847550000Y-556450000D01*
X1827540000Y-553160000D02*
X1838862601Y-553160000D01*
X1838862601Y-553160000D02*
X1840846301Y-555143700D01*
%TO.N,Net-(D63-K)*%
X1842950000Y-619150000D02*
X1842900000Y-619100000D01*
X1842900000Y-619100000D02*
X1832153750Y-619100000D01*
X1832153750Y-619100000D02*
X1823033750Y-628220000D01*
X1882800000Y-619150000D02*
X1842950000Y-619150000D01*
%TO.N,Net-(D23-K)*%
X1896097500Y-562300000D02*
X1887327500Y-571070000D01*
X1935900000Y-562300000D02*
X1896097500Y-562300000D01*
X1938250000Y-559950000D02*
X1935900000Y-562300000D01*
%TO.N,Net-(D39-K)*%
X1933030102Y-585299999D02*
X1928210101Y-590120000D01*
X1946750000Y-585299999D02*
X1933030102Y-585299999D01*
X1928210101Y-590120000D02*
X1911140000Y-590120000D01*
%TO.N,Net-(L64-DOUT)*%
X1927728417Y-613750000D02*
X1928100000Y-613750000D01*
X1907950000Y-610550000D02*
X1908190000Y-610310000D01*
X1908190000Y-610310000D02*
X1919825101Y-610310000D01*
X1927028417Y-613050000D02*
X1927728417Y-613750000D01*
X1919825101Y-610310000D02*
X1922565101Y-613050000D01*
X1922565101Y-613050000D02*
X1927028417Y-613050000D01*
%TO.N,Net-(L43-DOUT)*%
X2046690000Y-572210000D02*
X2055642298Y-572210000D01*
X2057561979Y-574129681D02*
X2064308011Y-574129681D01*
X2064308011Y-574129681D02*
X2065928330Y-575750000D01*
X2046650000Y-572250000D02*
X2046690000Y-572210000D01*
X2055642298Y-572210000D02*
X2057561979Y-574129681D01*
X2065928330Y-575750000D02*
X2066100000Y-575750000D01*
%TO.N,Net-(L42-DOUT)*%
X2027540000Y-572210000D02*
X2038887601Y-572210000D01*
X2038887601Y-572210000D02*
X2041500274Y-574822673D01*
X2046664782Y-575500000D02*
X2047350000Y-575500000D01*
X2041500274Y-574822673D02*
X2045987455Y-574822673D01*
X2045987455Y-574822673D02*
X2046664782Y-575500000D01*
X2027450000Y-572300000D02*
X2027540000Y-572210000D01*
%TO.N,Net-(D34-K)*%
X1875050000Y-579200000D02*
X2066851471Y-579200000D01*
X2090106945Y-579312670D02*
X2091877579Y-577542036D01*
X2075479867Y-579312670D02*
X2090106945Y-579312670D01*
X2067801471Y-578250000D02*
X2074417197Y-578250000D01*
X2091877579Y-577542036D02*
X2101931134Y-577542036D01*
X2103389098Y-579000000D02*
X2114950000Y-579000000D01*
X2066851471Y-579200000D02*
X2067801471Y-578250000D01*
X2074417197Y-578250000D02*
X2075479867Y-579312670D01*
X2101931134Y-577542036D02*
X2103389098Y-579000000D01*
%TO.N,Net-(L16-DOUT)*%
X1907780000Y-540400000D02*
X1907650000Y-540270000D01*
X1938898529Y-539670000D02*
X1934239925Y-539670000D01*
X1916391045Y-539670000D02*
X1915661045Y-540400000D01*
X1932907759Y-541002166D02*
X1920830695Y-541002166D01*
X1934239925Y-539670000D02*
X1932907759Y-541002166D01*
X1919498529Y-539670000D02*
X1916391045Y-539670000D01*
X1920830695Y-541002166D02*
X1919498529Y-539670000D01*
X1940813639Y-541585110D02*
X1938898529Y-539670000D01*
X1915661045Y-540400000D02*
X1907780000Y-540400000D01*
X2041137223Y-541585110D02*
X1940813639Y-541585110D01*
%TO.N,Net-(L19-DOUT)*%
X1884614637Y-556450000D02*
X1885900000Y-556450000D01*
X1876962601Y-553160000D02*
X1879702601Y-555900000D01*
X1884064637Y-555900000D02*
X1884614637Y-556450000D01*
X1865300000Y-553200000D02*
X1865340000Y-553160000D01*
X1865340000Y-553160000D02*
X1876962601Y-553160000D01*
X1879702601Y-555900000D02*
X1884064637Y-555900000D01*
%TO.N,Net-(L33-DOUT)*%
X1875507619Y-575800000D02*
X1876150000Y-575800000D01*
X1856200000Y-572500000D02*
X1856490000Y-572210000D01*
X1865120902Y-572210000D02*
X1866885561Y-573974659D01*
X1873682278Y-573974659D02*
X1875507619Y-575800000D01*
X1856490000Y-572210000D02*
X1865120902Y-572210000D01*
X1866885561Y-573974659D02*
X1873682278Y-573974659D01*
%TO.N,Net-(L32-DOUT)*%
X1839200101Y-575300000D02*
X1842290101Y-572210000D01*
X1834001471Y-575300000D02*
X1839200101Y-575300000D01*
X1832350000Y-572500000D02*
X1832350000Y-573648529D01*
X1847273363Y-572210000D02*
X1850013363Y-574950000D01*
X1850013363Y-574950000D02*
X1855725347Y-574950000D01*
X1842290101Y-572210000D02*
X1847273363Y-572210000D01*
X1855725347Y-574950000D02*
X1856475347Y-575700000D01*
X1856475347Y-575700000D02*
X1857050000Y-575700000D01*
X1832350000Y-573648529D02*
X1834001471Y-575300000D01*
%TO.N,Net-(D14-A)*%
X2064532500Y-529200000D02*
X2068302500Y-532970000D01*
X2044150000Y-529200000D02*
X2064532500Y-529200000D01*
%TO.N,Net-(L39-DOUT)*%
X1980628090Y-572210000D02*
X1983118090Y-574700000D01*
X1970450000Y-572450000D02*
X1970690000Y-572210000D01*
X1989452257Y-575550000D02*
X1990200000Y-575550000D01*
X1970690000Y-572210000D02*
X1980628090Y-572210000D01*
X1988602257Y-574700000D02*
X1989452257Y-575550000D01*
X1983118090Y-574700000D02*
X1988602257Y-574700000D01*
%TO.N,Net-(L70-DOUT)*%
X2041858285Y-613600000D02*
X2043000000Y-613600000D01*
X2041308285Y-613050000D02*
X2041858285Y-613600000D01*
X2023240000Y-610310000D02*
X2034125101Y-610310000D01*
X2034125101Y-610310000D02*
X2036865101Y-613050000D01*
X2023200000Y-610350000D02*
X2023240000Y-610310000D01*
X2036865101Y-613050000D02*
X2041308285Y-613050000D01*
%TO.N,Net-(L31-DOUT)*%
X1930019206Y-568458193D02*
X1926007399Y-572470000D01*
X1898860567Y-570463168D02*
X1898523735Y-570800000D01*
X1915903735Y-572470000D02*
X1900867399Y-572470000D01*
X1887907399Y-572470000D02*
X1886747601Y-572470000D01*
X1926007399Y-572470000D02*
X1919917399Y-572470000D01*
X1957641807Y-568458193D02*
X1930019206Y-568458193D01*
X1886747601Y-572470000D02*
X1885927500Y-571649899D01*
X1963400000Y-562700000D02*
X1957641807Y-568458193D01*
X1898523735Y-570800000D02*
X1889577399Y-570800000D01*
X1837300101Y-571649899D02*
X1834250000Y-574700000D01*
X1868857399Y-572470000D02*
X1867697601Y-572470000D01*
X1867697601Y-572470000D02*
X1866877500Y-571649899D01*
X1900867399Y-572470000D02*
X1898860567Y-570463168D01*
X1917910567Y-570463168D02*
X1915903735Y-572470000D01*
X1850627500Y-571649899D02*
X1849807399Y-572470000D01*
X1866877500Y-571649899D02*
X1850627500Y-571649899D01*
X1847278948Y-571649899D02*
X1837300101Y-571649899D01*
X1919917399Y-572470000D02*
X1917910567Y-570463168D01*
X1869677500Y-571649899D02*
X1868857399Y-572470000D01*
X1848099049Y-572470000D02*
X1847278948Y-571649899D01*
X1885927500Y-571649899D02*
X1869677500Y-571649899D01*
X1889577399Y-570800000D02*
X1887907399Y-572470000D01*
X1849807399Y-572470000D02*
X1848099049Y-572470000D01*
%TO.N,Net-(D18-K)*%
X1885600000Y-542250000D02*
X1885952166Y-542602166D01*
X2037854767Y-542602166D02*
X2048672601Y-553420000D01*
X2072037601Y-552020000D02*
X2077827500Y-552020000D01*
X1885952166Y-542602166D02*
X2037854767Y-542602166D01*
X2070637601Y-553420000D02*
X2072037601Y-552020000D01*
X2048672601Y-553420000D02*
X2070637601Y-553420000D01*
%TO.N,/EOS3*%
X1920867399Y-573800000D02*
X1930609219Y-573800000D01*
X1917400000Y-573912399D02*
X1918497601Y-575010000D01*
X1932409219Y-575600000D02*
X1933300000Y-575600000D01*
X1918497601Y-575010000D02*
X1919657399Y-575010000D01*
X1930609219Y-573800000D02*
X1932409219Y-575600000D01*
X1917400000Y-572450000D02*
X1917400000Y-573912399D01*
X1919657399Y-575010000D02*
X1920867399Y-573800000D01*
%TO.N,Net-(L44-DOUT)*%
X2065350000Y-572300000D02*
X2065440000Y-572210000D01*
X2089485495Y-575500000D02*
X2090400000Y-575500000D01*
X2088735495Y-574750000D02*
X2089485495Y-575500000D01*
X2080281724Y-572210000D02*
X2082821724Y-574750000D01*
X2065440000Y-572210000D02*
X2080281724Y-572210000D01*
X2082821724Y-574750000D02*
X2088735495Y-574750000D01*
%TO.N,Net-(L45-DOUT)*%
X2113364575Y-575450000D02*
X2114050000Y-575450000D01*
X2103966977Y-572210000D02*
X2106694549Y-574937572D01*
X2089490000Y-572210000D02*
X2103966977Y-572210000D01*
X2089200000Y-572500000D02*
X2089490000Y-572210000D01*
X2106694549Y-574937572D02*
X2112852147Y-574937572D01*
X2112852147Y-574937572D02*
X2113364575Y-575450000D01*
%TO.N,Net-(D14-K)*%
X2000634900Y-544849999D02*
X2000529567Y-544955332D01*
X2000529567Y-544955332D02*
X1999167168Y-544955332D01*
X1999167168Y-544955332D02*
X1992102500Y-552020000D01*
X2000634901Y-544850000D02*
X2000634900Y-544849999D01*
X2037000000Y-544850000D02*
X2000634901Y-544850000D01*
%TO.N,Net-(L38-DOUT)*%
X1965427601Y-574950000D02*
X1969758247Y-574950000D01*
X1969758247Y-574950000D02*
X1970408247Y-575600000D01*
X1951690000Y-572210000D02*
X1962687601Y-572210000D01*
X1962687601Y-572210000D02*
X1965427601Y-574950000D01*
X1951550000Y-572350000D02*
X1951690000Y-572210000D01*
X1970408247Y-575600000D02*
X1971350000Y-575600000D01*
%TO.N,Net-(L37-DOUT)*%
X1944373206Y-574170318D02*
X1949924381Y-574170318D01*
X1942412888Y-572210000D02*
X1944373206Y-574170318D01*
X1951504063Y-575750000D02*
X1952300000Y-575750000D01*
X1949924381Y-574170318D02*
X1951504063Y-575750000D01*
X1932540000Y-572210000D02*
X1942412888Y-572210000D01*
X1932250000Y-572500000D02*
X1932540000Y-572210000D01*
%TO.N,Net-(D15-A)*%
X2043901471Y-528600000D02*
X2082982500Y-528600000D01*
X2043650735Y-528850735D02*
X2043901471Y-528600000D01*
X2042800000Y-529701470D02*
X2042800000Y-529850000D01*
X2043650735Y-528850735D02*
X2042800000Y-529701470D01*
X2082982500Y-528600000D02*
X2087352500Y-532970000D01*
%TO.N,Net-(L46-DOUT)*%
X1914450000Y-585900000D02*
X1914300000Y-585900000D01*
X1844700000Y-585900000D02*
X1836800000Y-593800000D01*
X1914450000Y-585900000D02*
X1844700000Y-585900000D01*
%TO.N,Net-(L15-DOUT)*%
X2113279469Y-537350000D02*
X2113900000Y-537350000D01*
X2101842399Y-535700000D02*
X2111629469Y-535700000D01*
X2093700000Y-534250000D02*
X2096812601Y-534250000D01*
X2096812601Y-534250000D02*
X2099472601Y-536910000D01*
X2111629469Y-535700000D02*
X2113279469Y-537350000D01*
X2099472601Y-536910000D02*
X2100632399Y-536910000D01*
X2100632399Y-536910000D02*
X2101842399Y-535700000D01*
%TO.N,Net-(D68-K)*%
X2030202500Y-628220000D02*
X2013132399Y-628220000D01*
X2002862398Y-617949999D02*
X1987300000Y-617949999D01*
X2013132399Y-628220000D02*
X2002862398Y-617949999D01*
%TO.N,Net-(L8-DOUT)*%
X1960900000Y-533850000D02*
X1969635902Y-533850000D01*
X1972635902Y-536850000D02*
X1979510915Y-536850000D01*
X1979510915Y-536850000D02*
X1979915352Y-537254437D01*
X1980945563Y-537254437D02*
X1981000000Y-537200000D01*
X1979915352Y-537254437D02*
X1980945563Y-537254437D01*
X1969635902Y-533850000D02*
X1972635902Y-536850000D01*
%TO.N,Net-(L5-DOUT)*%
X1921523461Y-536054437D02*
X1922919024Y-537450000D01*
X1914690339Y-536054437D02*
X1921523461Y-536054437D01*
X1922919024Y-537450000D02*
X1923850000Y-537450000D01*
X1903650000Y-534450000D02*
X1903990000Y-534110000D01*
X1912745902Y-534110000D02*
X1914690339Y-536054437D01*
X1903990000Y-534110000D02*
X1912745902Y-534110000D01*
%TO.N,Net-(USB1-CC1)*%
X1970150000Y-644550000D02*
X1970340000Y-644360000D01*
X1970340000Y-644360000D02*
X1970340000Y-643090000D01*
%TO.N,Net-(USB1-CC2)*%
X1967600000Y-647400000D02*
X1967340000Y-647140000D01*
X1967340000Y-647140000D02*
X1967340000Y-643090000D01*
%TO.N,/GPIO42*%
D28*
X1895700000Y-644100000D02*
X1897500000Y-642300000D01*
X1807675000Y-536508884D02*
X1807150000Y-537033884D01*
X1880550000Y-644100000D02*
X1895700000Y-644100000D01*
X1874275000Y-650375000D02*
X1880550000Y-644100000D01*
X1807150000Y-537033884D02*
X1807150000Y-647600000D01*
X1916100000Y-636700000D02*
X1913700000Y-636700000D01*
X1807100000Y-535000000D02*
X1807675000Y-535575000D01*
X1807675000Y-535575000D02*
X1807675000Y-536508884D01*
X1809925000Y-650375000D02*
X1874275000Y-650375000D01*
X1807150000Y-647600000D02*
X1809925000Y-650375000D01*
%TD*%
M02*
